<?xml version="1.0" encoding="utf-8"?>
<!-- Generator: Adobe Illustrator 16.0.0, SVG Export Plug-In . SVG Version: 6.00 Build 0)  -->
<!DOCTYPE svg PUBLIC "-//W3C//DTD SVG 1.1//EN" "http://www.w3.org/Graphics/SVG/1.1/DTD/svg11.dtd">
<svg version="1.1" id="Layer_1" xmlns="http://www.w3.org/2000/svg" xmlns:xlink="http://www.w3.org/1999/xlink" x="0px" y="0px"
	 width="100px" height="100px" viewBox="0 0 100 100" enable-background="new 0 0 100 100" xml:space="preserve">
<g>
	<defs>
		<rect id="SVGID_1_" width="100" height="100"/>
	</defs>
	<clipPath id="SVGID_2_">
		<use xlink:href="#SVGID_1_"  overflow="visible"/>
	</clipPath>
	<rect clip-path="url(#SVGID_2_)" fill="#F2AB1D" width="99.882" height="100"/>
	<g clip-path="url(#SVGID_2_)">
		<defs>
			<rect id="SVGID_3_" width="99.882" height="100"/>
		</defs>
		<clipPath id="SVGID_4_">
			<use xlink:href="#SVGID_3_"  overflow="visible"/>
		</clipPath>
		<path clip-path="url(#SVGID_4_)" fill="#E2960E" d="M94.573,83.759L77.87,83.73c-0.093,0-0.167,0.074-0.167,0.167l-0.002,0.979
			v0.022l-0.017,9.476c0,0.131,0.145,0.211,0.256,0.142l15.348-9.591l0.141-0.088l1.232-0.77
			C94.804,83.979,94.74,83.76,94.573,83.759 M87.481,86.006l-7.435,4.732c-0.111,0.071-0.257-0.009-0.257-0.141l0.009-4.746
			c0-0.092,0.075-0.167,0.167-0.166l7.426,0.013C87.559,85.698,87.622,85.916,87.481,86.006"/>
		<path clip-path="url(#SVGID_4_)" fill="#E2960E" d="M20.306,66.379c3.377,0.318,6.251-2.129,6.625-5.339
			c0.018,0.001,0.035,0.003,0.053,0.003h0.001h1.758c0.412,0,0.746-0.334,0.746-0.746v-0.312c0-0.412-0.334-0.746-0.746-0.746h-1.56
			h-0.198c-0.037,0-0.074,0.004-0.11,0.009v0.001c-0.51-2.84-2.991-4.995-5.978-4.995c-3.499,0-6.307,2.957-6.062,6.508
			C15.038,63.698,17.376,66.103,20.306,66.379"/>
		<path clip-path="url(#SVGID_4_)" fill="#E2960E" d="M75.907,80.947h3.629l-0.219,0.495l1.126-0.495h8.317
			c0.321,0,0.582-0.261,0.582-0.583v-7.223l0.036-0.036c0.061-0.061,0.094-0.141,0.094-0.227c0-0.085-0.033-0.165-0.094-0.226
			l-0.036-0.037V72.24l0.103-0.103l-0.103-0.102v-0.021l0.358-0.358c0.116-0.116,0.116-0.306,0-0.422l-0.204-0.204
			c-0.044-0.044-0.098-0.071-0.154-0.082v-6.672c0-0.208-0.109-0.389-0.273-0.492c-0.04-0.154-0.135-0.286-0.265-0.372
			c-0.115-0.166-0.307-0.275-0.524-0.275H76.467c-0.328,0-0.595,0.248-0.632,0.565c-0.287,0.036-0.51,0.278-0.51,0.574v16.087
			C75.325,80.687,75.586,80.947,75.907,80.947"/>
		<path clip-path="url(#SVGID_4_)" fill="#E2960E" d="M21.955,90.655h0.012c0.678,0,1.228-0.55,1.228-1.228V74.895
			c0-0.297-0.106-0.568-0.281-0.781c-0.1-0.121-0.223-0.223-0.362-0.298c-0.069-0.038-0.143-0.069-0.22-0.094
			c-0.115-0.035-0.237-0.055-0.365-0.055h-0.012H21.28h-8.091h-0.61h-0.013c-0.678,0-1.227,0.551-1.227,1.228v14.533
			c0,0.678,0.549,1.228,1.227,1.228h0.013h0.61h8.091H21.955z"/>
		<path clip-path="url(#SVGID_4_)" fill="#E2960E" d="M69.245,85.474c-0.015-0.05-0.031-0.101-0.052-0.153
			c-0.018-0.042-0.037-0.086-0.059-0.13c-0.043-0.087-0.096-0.176-0.161-0.265c-0.031-0.045-0.066-0.089-0.105-0.134
			c-0.152-0.177-0.34-0.29-0.553-0.349c-0.106-0.028-0.219-0.043-0.336-0.045c-0.2-0.003-0.416,0.036-0.64,0.107l-0.077-1.698h1.945
			c0.58,0,1.05-0.47,1.05-1.05V60.771c0-0.58-0.47-1.05-1.05-1.05h-0.206c0.687,0,1.279-0.483,1.416-1.157l5.2-19.308
			c0.01-0.046,0.016-0.093,0.021-0.138l0.175-0.849c0.184-0.906-0.428-1.579-1.353-1.579H34.025c-0.925,0-1.519,0.76-1.335,1.666
			l0.186,0.9c-0.182-0.895-0.173-0.895,0.009,0l-0.871,19.308c0.137,0.674,0.729,1.157,1.416,1.157h-0.206
			c-0.58,0-1.05,0.47-1.05,1.05v20.987c0,0.58,0.47,1.05,1.05,1.05H35.5l-0.017,0.376c-0.694-0.252-1.321-0.198-1.704,0.27
			c-0.591,0.727-0.381,1.483-0.381,1.483l-14.042,18.025l6.119,4.755l13.998-18.061c0,0,0.441,0.01,0.897-0.303
			c0.152-0.104,0.306-0.244,0.445-0.433c0.174-0.234,0.24-0.501,0.215-0.782c-0.01-0.113-0.035-0.229-0.072-0.345
			c-0.076-0.232-0.206-0.471-0.382-0.706c-0.112-0.15-0.245-0.3-0.393-0.445l0.353-0.351l0.07-0.069l0.452-0.451l2.589-2.577
			l0.264-0.387h14.036l1.233,1.811l3.469,3.453c-0.826,0.819-1.164,1.741-0.655,2.389c0.578,0.736,1.363,0.696,1.363,0.696
			l14.502,17.636l0.011,0.013l5.979-4.931L69.292,86.263C69.292,86.263,69.377,85.916,69.245,85.474"/>
		<path clip-path="url(#SVGID_4_)" fill="#E6E7E8" d="M67.707,58.304H32.135c-0.687,0-1.279-0.483-1.416-1.157l-3.304-16.272
			c-0.181-0.895,0.503-1.732,1.417-1.732h42.179c0.913,0,1.598,0.837,1.416,1.732l-3.304,16.272
			C68.986,57.82,68.394,58.304,67.707,58.304"/>
		<polygon clip-path="url(#SVGID_4_)" fill="#6DC5AC" points="32.606,56.283 29.536,41.163 70.306,41.163 67.236,56.283 		"/>
		<path clip-path="url(#SVGID_4_)" fill="#E6E7E8" d="M63.538,81.391H36.305c-2.997,0-5.426-2.43-5.426-5.426V63.729
			c0-2.997,2.429-5.426,5.426-5.426h27.233c2.996,0,5.425,2.429,5.425,5.426v12.235C68.963,78.961,66.534,81.391,63.538,81.391"/>
		<rect x="35.236" y="58.304" clip-path="url(#SVGID_4_)" fill="#939598" width="29.37" height="1.069"/>
		<rect x="35.236" y="59.373" clip-path="url(#SVGID_4_)" fill="#808285" width="29.37" height="0.561"/>
		<path clip-path="url(#SVGID_4_)" fill="#BCBEC0" d="M64.303,74.785H35.539c-1.492,0-2.702-1.21-2.702-2.703v-6.096
			c0-1.492,1.21-2.702,2.702-2.702h28.764c1.493,0,2.703,1.21,2.703,2.702v6.096C67.006,73.575,65.796,74.785,64.303,74.785"/>
		<path clip-path="url(#SVGID_4_)" fill="#A7A9AC" d="M32.993,74.252V64.129c0-0.38,0.309-0.688,0.689-0.688h32.791
			c0.15,0,0.288,0.049,0.401,0.131c-0.125-0.173-0.327-0.287-0.558-0.287H33.526c-0.381,0-0.689,0.309-0.689,0.689v10.122
			c0,0.23,0.114,0.433,0.287,0.558C33.042,74.54,32.993,74.402,32.993,74.252"/>
		<path clip-path="url(#SVGID_4_)" fill="#D1D3D4" d="M71.27,38.309H28.557c-0.926,0-1.519,0.759-1.335,1.666l0.186,0.9
			c-0.182-0.895,0.502-1.732,1.415-1.732h42.18c0.913,0,1.598,0.837,1.416,1.732l0.203-0.987
			C72.806,38.98,72.194,38.309,71.27,38.309"/>
		<rect x="35.9" y="64.158" clip-path="url(#SVGID_4_)" fill="#414042" width="1.843" height="1.589"/>
		<rect x="33.549" y="64.158" clip-path="url(#SVGID_4_)" fill="#414042" width="1.843" height="1.589"/>
		<rect x="38.188" y="64.158" clip-path="url(#SVGID_4_)" fill="#414042" width="1.843" height="1.589"/>
		<rect x="40.476" y="64.158" clip-path="url(#SVGID_4_)" fill="#414042" width="1.842" height="1.589"/>
		<rect x="42.762" y="64.158" clip-path="url(#SVGID_4_)" fill="#414042" width="1.843" height="1.589"/>
		<rect x="45.05" y="64.158" clip-path="url(#SVGID_4_)" fill="#414042" width="1.843" height="1.589"/>
		<rect x="47.338" y="64.158" clip-path="url(#SVGID_4_)" fill="#414042" width="1.843" height="1.589"/>
		<rect x="49.626" y="64.158" clip-path="url(#SVGID_4_)" fill="#414042" width="1.842" height="1.589"/>
		<rect x="51.913" y="64.158" clip-path="url(#SVGID_4_)" fill="#414042" width="1.843" height="1.589"/>
		<rect x="54.2" y="64.158" clip-path="url(#SVGID_4_)" fill="#414042" width="1.843" height="1.589"/>
		<rect x="56.487" y="64.158" clip-path="url(#SVGID_4_)" fill="#414042" width="1.843" height="1.589"/>
		<rect x="58.775" y="64.158" clip-path="url(#SVGID_4_)" fill="#414042" width="1.843" height="1.589"/>
		<rect x="61.062" y="64.158" clip-path="url(#SVGID_4_)" fill="#414042" width="1.844" height="1.589"/>
		<rect x="63.278" y="64.158" clip-path="url(#SVGID_4_)" fill="#414042" width="3.015" height="1.589"/>
		<rect x="62.715" y="68.376" clip-path="url(#SVGID_4_)" fill="#414042" width="3.578" height="1.588"/>
		<rect x="61.618" y="70.532" clip-path="url(#SVGID_4_)" fill="#414042" width="4.675" height="1.589"/>
		<rect x="39.225" y="66.207" clip-path="url(#SVGID_4_)" fill="#414042" width="1.842" height="1.589"/>
		<rect x="41.515" y="66.207" clip-path="url(#SVGID_4_)" fill="#414042" width="1.843" height="1.589"/>
		<rect x="43.807" y="66.207" clip-path="url(#SVGID_4_)" fill="#414042" width="1.843" height="1.589"/>
		<rect x="46.098" y="66.207" clip-path="url(#SVGID_4_)" fill="#414042" width="1.843" height="1.589"/>
		<rect x="48.39" y="66.207" clip-path="url(#SVGID_4_)" fill="#414042" width="1.843" height="1.589"/>
		<rect x="50.681" y="66.207" clip-path="url(#SVGID_4_)" fill="#414042" width="1.844" height="1.589"/>
		<rect x="52.972" y="66.207" clip-path="url(#SVGID_4_)" fill="#414042" width="1.844" height="1.589"/>
		<rect x="55.264" y="66.207" clip-path="url(#SVGID_4_)" fill="#414042" width="1.844" height="1.589"/>
		<rect x="57.555" y="66.207" clip-path="url(#SVGID_4_)" fill="#414042" width="1.844" height="1.589"/>
		<rect x="59.847" y="66.207" clip-path="url(#SVGID_4_)" fill="#414042" width="1.844" height="1.589"/>
		<rect x="62.138" y="66.207" clip-path="url(#SVGID_4_)" fill="#414042" width="1.844" height="1.589"/>
		<rect x="64.45" y="66.207" clip-path="url(#SVGID_4_)" fill="#414042" width="1.843" height="1.589"/>
		<rect x="36.933" y="66.207" clip-path="url(#SVGID_4_)" fill="#414042" width="1.843" height="1.589"/>
		<rect x="33.55" y="66.207" clip-path="url(#SVGID_4_)" fill="#414042" width="2.903" height="1.589"/>
		<rect x="33.549" y="68.376" clip-path="url(#SVGID_4_)" fill="#414042" width="3.499" height="1.588"/>
		<rect x="33.55" y="70.473" clip-path="url(#SVGID_4_)" fill="#414042" width="4.678" height="1.589"/>
		<rect x="33.549" y="72.677" clip-path="url(#SVGID_4_)" fill="#414042" width="1.742" height="1.589"/>
		<rect x="35.889" y="72.677" clip-path="url(#SVGID_4_)" fill="#414042" width="1.741" height="1.589"/>
		<rect x="38.164" y="72.677" clip-path="url(#SVGID_4_)" fill="#414042" width="1.741" height="1.589"/>
		<rect x="40.367" y="72.677" clip-path="url(#SVGID_4_)" fill="#414042" width="2.432" height="1.589"/>
		<rect x="37.529" y="68.376" clip-path="url(#SVGID_4_)" fill="#414042" width="1.843" height="1.588"/>
		<rect x="39.818" y="68.376" clip-path="url(#SVGID_4_)" fill="#414042" width="1.843" height="1.588"/>
		<rect x="42.108" y="68.376" clip-path="url(#SVGID_4_)" fill="#414042" width="1.843" height="1.588"/>
		<rect x="44.399" y="68.376" clip-path="url(#SVGID_4_)" fill="#414042" width="1.842" height="1.588"/>
		<rect x="46.688" y="68.376" clip-path="url(#SVGID_4_)" fill="#414042" width="1.843" height="1.588"/>
		<rect x="48.978" y="68.376" clip-path="url(#SVGID_4_)" fill="#414042" width="1.843" height="1.588"/>
		<rect x="51.267" y="68.376" clip-path="url(#SVGID_4_)" fill="#414042" width="1.844" height="1.588"/>
		<rect x="53.557" y="68.376" clip-path="url(#SVGID_4_)" fill="#414042" width="1.844" height="1.588"/>
		<rect x="55.847" y="68.376" clip-path="url(#SVGID_4_)" fill="#414042" width="1.844" height="1.588"/>
		<rect x="58.137" y="68.376" clip-path="url(#SVGID_4_)" fill="#414042" width="1.844" height="1.588"/>
		<rect x="60.428" y="68.376" clip-path="url(#SVGID_4_)" fill="#414042" width="1.842" height="1.588"/>
		<rect x="38.672" y="70.532" clip-path="url(#SVGID_4_)" fill="#414042" width="1.843" height="1.589"/>
		<rect x="40.955" y="70.532" clip-path="url(#SVGID_4_)" fill="#414042" width="1.843" height="1.589"/>
		<rect x="43.238" y="70.532" clip-path="url(#SVGID_4_)" fill="#414042" width="1.843" height="1.589"/>
		<rect x="43.238" y="72.677" clip-path="url(#SVGID_4_)" fill="#414042" width="10.976" height="1.589"/>
		<rect x="45.521" y="70.532" clip-path="url(#SVGID_4_)" fill="#414042" width="1.843" height="1.589"/>
		<rect x="47.804" y="70.532" clip-path="url(#SVGID_4_)" fill="#414042" width="1.843" height="1.589"/>
		<rect x="50.088" y="70.532" clip-path="url(#SVGID_4_)" fill="#414042" width="1.843" height="1.589"/>
		<rect x="52.371" y="70.532" clip-path="url(#SVGID_4_)" fill="#414042" width="1.843" height="1.589"/>
		<rect x="54.654" y="70.532" clip-path="url(#SVGID_4_)" fill="#414042" width="1.842" height="1.589"/>
		<rect x="54.654" y="72.677" clip-path="url(#SVGID_4_)" fill="#414042" width="2.453" height="1.589"/>
		<rect x="57.526" y="72.677" clip-path="url(#SVGID_4_)" fill="#414042" width="1.757" height="1.589"/>
		<rect x="56.936" y="70.532" clip-path="url(#SVGID_4_)" fill="#414042" width="1.844" height="1.589"/>
		<rect x="59.22" y="70.532" clip-path="url(#SVGID_4_)" fill="#414042" width="1.844" height="1.589"/>
		<rect x="59.855" y="73.69" clip-path="url(#SVGID_4_)" fill="#414042" width="1.873" height="0.575"/>
		<rect x="62.081" y="73.69" clip-path="url(#SVGID_4_)" fill="#414042" width="1.875" height="0.575"/>
		<rect x="62.081" y="72.677" clip-path="url(#SVGID_4_)" fill="#414042" width="1.875" height="0.576"/>
		<rect x="64.418" y="73.69" clip-path="url(#SVGID_4_)" fill="#414042" width="1.875" height="0.575"/>
		<path clip-path="url(#SVGID_4_)" fill="#BCBEC0" d="M44.745,79.458v-2.955c0-0.723,0.587-1.31,1.31-1.31h7.732
			c0.724,0,1.31,0.587,1.31,1.31v2.955c0,0.724-0.586,1.31-1.31,1.31h-7.732C45.332,80.768,44.745,80.182,44.745,79.458"/>
		<path clip-path="url(#SVGID_4_)" fill="#F1F2F2" d="M53.701,80.606h-7.56c-0.682,0-1.234-0.553-1.234-1.234v-2.783
			c0-0.682,0.552-1.233,1.234-1.233h7.56c0.682,0,1.234,0.552,1.234,1.233v2.783C54.936,80.054,54.383,80.606,53.701,80.606"/>
		<path clip-path="url(#SVGID_4_)" fill="#4AA88B" d="M56.521,42.486c-0.52,0-0.688,0.266-0.737,0.676
			c-0.049-0.41-0.217-0.676-0.736-0.676H43.883l1.911,12.892h9.985h0.009h9.984l1.911-12.892H56.521z"/>
		<path clip-path="url(#SVGID_4_)" fill="#F1F2F2" d="M55.404,54.994l0.001-11.078c0-0.991,0.174-1.814-0.741-1.814H43.501
			l1.911,12.892H55.404z"/>
		<path clip-path="url(#SVGID_4_)" fill="#E6E7E8" d="M54.664,42.103H52.83c0.915,0,1.112,0.885,1.112,1.876l0.182,11.016h1.28
			l0.001-11.079C55.405,42.924,55.579,42.103,54.664,42.103"/>
		<path clip-path="url(#SVGID_4_)" fill="#F1F2F2" d="M65.389,54.994L67.3,42.102H56.137c-0.915,0-0.741,0.823-0.741,1.814
			l0.001,11.078H65.389z"/>
		<path clip-path="url(#SVGID_4_)" fill="#D1D3D4" d="M57.607,42.103h-1.471c-0.915,0-0.741,0.822-0.741,1.813l0.001,11.079h0.646
			l0.452-11.069C56.495,42.935,56.692,42.103,57.607,42.103"/>
		<polygon clip-path="url(#SVGID_4_)" fill="#F2AB1D" points="53.205,46.781 45.375,46.781 44.904,43.229 53.103,43.229 		"/>
		<path clip-path="url(#SVGID_4_)" fill="#A7A9AC" d="M53.229,47.605h-4.353c-0.035,0-0.066-0.027-0.069-0.06
			c-0.003-0.033,0.023-0.06,0.059-0.06h4.359c0.035,0,0.065,0.027,0.065,0.06C53.293,47.578,53.265,47.605,53.229,47.605"/>
		<path clip-path="url(#SVGID_4_)" fill="#A7A9AC" d="M47.276,47.605h-1.792c-0.036,0-0.067-0.027-0.072-0.06
			c-0.004-0.033,0.021-0.06,0.056-0.06h1.795c0.035,0,0.067,0.027,0.071,0.06C47.337,47.578,47.313,47.605,47.276,47.605"/>
		<path clip-path="url(#SVGID_4_)" fill="#A7A9AC" d="M53.267,48.882H51.19c-0.035,0-0.064-0.026-0.066-0.058
			c-0.002-0.031,0.024-0.057,0.06-0.057h2.079c0.035,0,0.064,0.026,0.064,0.057C53.328,48.856,53.301,48.882,53.267,48.882"/>
		<path clip-path="url(#SVGID_4_)" fill="#A7A9AC" d="M50.268,48.882h-4.614c-0.034,0-0.066-0.026-0.071-0.058
			c-0.003-0.031,0.021-0.057,0.056-0.057h4.621c0.034,0,0.064,0.026,0.066,0.057C50.328,48.856,50.303,48.882,50.268,48.882"/>
		<path clip-path="url(#SVGID_4_)" fill="#A7A9AC" d="M53.302,50.117h-4.35c-0.034,0-0.065-0.025-0.067-0.057
			c-0.003-0.03,0.022-0.055,0.057-0.055h4.357c0.034,0,0.063,0.024,0.064,0.055C53.364,50.092,53.336,50.117,53.302,50.117"/>
		<path clip-path="url(#SVGID_4_)" fill="#A7A9AC" d="M47.591,50.117h-1.773c-0.035,0-0.065-0.025-0.07-0.057
			c-0.004-0.03,0.021-0.055,0.055-0.055h1.776c0.034,0,0.065,0.024,0.068,0.055C47.65,50.092,47.625,50.117,47.591,50.117"/>
		<path clip-path="url(#SVGID_4_)" fill="#A7A9AC" d="M53.337,51.311h-7.361c-0.034,0-0.064-0.023-0.068-0.054
			c-0.004-0.03,0.02-0.054,0.054-0.054h7.372c0.033,0,0.062,0.023,0.063,0.054S53.37,51.311,53.337,51.311"/>
		<path clip-path="url(#SVGID_4_)" fill="#A7A9AC" d="M53.37,52.466h-1.915c-0.033,0-0.061-0.023-0.063-0.053
			c-0.002-0.028,0.023-0.052,0.057-0.052h1.918c0.033,0,0.061,0.023,0.062,0.052C53.43,52.442,53.403,52.466,53.37,52.466"/>
		<path clip-path="url(#SVGID_4_)" fill="#A7A9AC" d="M49.799,52.466h-3.67c-0.034,0-0.063-0.023-0.067-0.053
			c-0.004-0.028,0.02-0.052,0.053-0.052h3.676c0.033,0,0.062,0.023,0.064,0.052C49.857,52.442,49.833,52.466,49.799,52.466"/>
		<path clip-path="url(#SVGID_4_)" fill="#A7A9AC" d="M53.403,53.584h-4.594c-0.032,0-0.061-0.022-0.064-0.051
			c-0.002-0.028,0.022-0.051,0.054-0.051H53.4c0.032,0,0.06,0.022,0.06,0.051C53.461,53.562,53.436,53.584,53.403,53.584"/>
		<path clip-path="url(#SVGID_4_)" fill="#A7A9AC" d="M47.573,53.584h-1.295c-0.033,0-0.062-0.022-0.066-0.051
			s0.02-0.051,0.052-0.051h1.298c0.032,0,0.061,0.022,0.064,0.051C47.63,53.562,47.606,53.584,47.573,53.584"/>
		<path clip-path="url(#SVGID_4_)" fill="#A7A9AC" d="M65.265,45.11h-2.183c-0.037,0-0.063-0.029-0.061-0.064
			c0.004-0.035,0.036-0.064,0.073-0.064h2.186c0.037,0,0.063,0.029,0.059,0.064C65.334,45.081,65.301,45.11,65.265,45.11"/>
		<path clip-path="url(#SVGID_4_)" fill="#A7A9AC" d="M62.111,45.11h-4.851c-0.036,0-0.065-0.029-0.064-0.064
			s0.031-0.064,0.067-0.064h4.859c0.036,0,0.063,0.029,0.061,0.064S62.148,45.11,62.111,45.11"/>
		<path clip-path="url(#SVGID_4_)" fill="#A7A9AC" d="M65.09,46.473h-4.569c-0.036,0-0.063-0.027-0.062-0.062
			c0.003-0.034,0.033-0.061,0.068-0.061h4.579c0.035,0,0.062,0.027,0.057,0.061C65.159,46.446,65.126,46.473,65.09,46.473"/>
		<path clip-path="url(#SVGID_4_)" fill="#A7A9AC" d="M59.091,46.473h-1.862c-0.036,0-0.064-0.027-0.063-0.062
			c0-0.034,0.029-0.061,0.066-0.061h1.865c0.036,0,0.064,0.027,0.063,0.061C59.157,46.446,59.127,46.473,59.091,46.473"/>
		<path clip-path="url(#SVGID_4_)" fill="#A7A9AC" d="M64.473,51.311h-7.361c-0.033,0-0.06-0.023-0.06-0.054
			c0.001-0.03,0.029-0.054,0.063-0.054h7.372c0.034,0,0.058,0.023,0.054,0.054C64.537,51.287,64.506,51.311,64.473,51.311"/>
		<path clip-path="url(#SVGID_4_)" fill="#A7A9AC" d="M64.325,52.466H62.41c-0.033,0-0.058-0.023-0.055-0.053
			c0.003-0.028,0.033-0.052,0.065-0.052h1.918c0.033,0,0.057,0.023,0.053,0.052C64.387,52.442,64.358,52.466,64.325,52.466"/>
		<path clip-path="url(#SVGID_4_)" fill="#A7A9AC" d="M60.755,52.466h-3.671c-0.033,0-0.06-0.023-0.058-0.053
			c0-0.028,0.027-0.052,0.06-0.052h3.677c0.033,0,0.058,0.023,0.056,0.052C60.817,52.442,60.787,52.466,60.755,52.466"/>
		<path clip-path="url(#SVGID_4_)" fill="#A7A9AC" d="M64.183,53.584h-4.594c-0.032,0-0.058-0.022-0.056-0.051
			s0.029-0.051,0.063-0.051h4.6c0.032,0,0.057,0.022,0.053,0.051S64.215,53.584,64.183,53.584"/>
		<path clip-path="url(#SVGID_4_)" fill="#A7A9AC" d="M58.353,53.584h-1.296c-0.032,0-0.059-0.022-0.059-0.051
			c0.001-0.028,0.028-0.051,0.062-0.051h1.297c0.033,0,0.058,0.022,0.058,0.051C58.412,53.562,58.385,53.584,58.353,53.584"/>
		<path clip-path="url(#SVGID_4_)" fill="#F2AB1D" d="M64.608,50.251h-7.471c-0.034,0-0.062-0.025-0.061-0.057l0.062-2.649
			c0-0.033,0.029-0.06,0.065-0.06h7.757c0.035,0,0.061,0.027,0.057,0.06l-0.341,2.649C64.673,50.226,64.643,50.251,64.608,50.251"/>
		<polygon clip-path="url(#SVGID_4_)" fill="#4AA88B" points="32.808,48.462 31.483,42.179 41.536,42.179 42.658,48.462 		"/>
		<polygon clip-path="url(#SVGID_4_)" fill="#E6E7E8" points="42.368,48.219 33.005,48.219 31.782,42.421 41.332,42.421 		"/>
		<path clip-path="url(#SVGID_4_)" fill="#EE4127" d="M38.523,45.478c0.031,0.831-0.663,1.443-1.547,1.443
			c-0.885,0-1.758-0.612-1.971-1.443c-0.237-0.926,0.424-1.759,1.501-1.759C37.584,43.719,38.489,44.552,38.523,45.478"/>
		<polygon clip-path="url(#SVGID_4_)" fill="#E6E7E8" points="36.049,44.291 36.444,46.514 37.88,45.478 		"/>
		<rect x="33.201" y="49.248" clip-path="url(#SVGID_4_)" fill="#D1D3D4" width="9.167" height="0.143"/>
		<rect x="33.62" y="51.064" clip-path="url(#SVGID_4_)" fill="#D1D3D4" width="9.167" height="0.143"/>
		<rect x="34.009" y="52.912" clip-path="url(#SVGID_4_)" fill="#D1D3D4" width="9.167" height="0.143"/>
		<rect x="34.334" y="54.771" clip-path="url(#SVGID_4_)" fill="#D1D3D4" width="9.167" height="0.143"/>
	</g>
	<g clip-path="url(#SVGID_2_)">
		<text transform="matrix(1 0 0 1 46.4404 45.7588)" fill="#FFFFFF" font-family="'Lora-Regular'" font-size="1.7108">ASPEN</text>
	</g>
	<g clip-path="url(#SVGID_2_)">
		<defs>
			<rect id="SVGID_5_" width="99.882" height="100"/>
		</defs>
		<clipPath id="SVGID_6_">
			<use xlink:href="#SVGID_5_"  overflow="visible"/>
		</clipPath>
		<path clip-path="url(#SVGID_6_)" fill="#EE4036" d="M94.218,83.175l-16.703-0.028c-0.093,0-0.167,0.074-0.167,0.167l-0.019,10.478
			c0,0.131,0.145,0.211,0.256,0.142l16.721-10.448C94.448,83.395,94.385,83.176,94.218,83.175 M87.126,85.422l-7.435,4.733
			c-0.111,0.07-0.257-0.01-0.256-0.142l0.008-4.746c0-0.092,0.075-0.166,0.167-0.166l7.426,0.013
			C87.203,85.114,87.267,85.332,87.126,85.422"/>
		<rect x="93.651" y="83.243" clip-path="url(#SVGID_6_)" fill="#BCBEC0" width="0.049" height="0.514"/>
		<rect x="92.907" y="83.242" clip-path="url(#SVGID_6_)" fill="#BCBEC0" width="0.049" height="0.514"/>
		<rect x="92.163" y="83.24" clip-path="url(#SVGID_6_)" fill="#BCBEC0" width="0.05" height="0.515"/>
		<rect x="91.419" y="83.239" clip-path="url(#SVGID_6_)" fill="#BCBEC0" width="0.049" height="0.514"/>
		<rect x="90.675" y="83.238" clip-path="url(#SVGID_6_)" fill="#BCBEC0" width="0.05" height="0.514"/>
		<rect x="89.932" y="83.237" clip-path="url(#SVGID_6_)" fill="#BCBEC0" width="0.05" height="0.515"/>
		<rect x="89.188" y="83.235" clip-path="url(#SVGID_6_)" fill="#BCBEC0" width="0.049" height="0.514"/>
		<rect x="88.444" y="83.234" clip-path="url(#SVGID_6_)" fill="#BCBEC0" width="0.05" height="0.514"/>
		<rect x="87.701" y="83.233" clip-path="url(#SVGID_6_)" fill="#BCBEC0" width="0.049" height="0.514"/>
		<rect x="86.957" y="83.231" clip-path="url(#SVGID_6_)" fill="#BCBEC0" width="0.05" height="0.515"/>
		<rect x="86.213" y="83.23" clip-path="url(#SVGID_6_)" fill="#BCBEC0" width="0.05" height="0.514"/>
		<rect x="85.469" y="83.229" clip-path="url(#SVGID_6_)" fill="#BCBEC0" width="0.049" height="0.514"/>
		<rect x="84.725" y="83.228" clip-path="url(#SVGID_6_)" fill="#BCBEC0" width="0.05" height="0.515"/>
		<rect x="83.982" y="83.227" clip-path="url(#SVGID_6_)" fill="#BCBEC0" width="0.049" height="0.514"/>
		<rect x="83.238" y="83.226" clip-path="url(#SVGID_6_)" fill="#BCBEC0" width="0.049" height="0.514"/>
		<rect x="82.494" y="83.224" clip-path="url(#SVGID_6_)" fill="#BCBEC0" width="0.05" height="0.515"/>
		<rect x="81.75" y="83.223" clip-path="url(#SVGID_6_)" fill="#BCBEC0" width="0.049" height="0.514"/>
		<rect x="81.006" y="83.222" clip-path="url(#SVGID_6_)" fill="#BCBEC0" width="0.05" height="0.514"/>
		<rect x="80.263" y="83.221" clip-path="url(#SVGID_6_)" fill="#BCBEC0" width="0.05" height="0.514"/>
		<rect x="79.519" y="83.219" clip-path="url(#SVGID_6_)" fill="#BCBEC0" width="0.049" height="0.515"/>
		<rect x="78.775" y="83.218" clip-path="url(#SVGID_6_)" fill="#BCBEC0" width="0.05" height="0.514"/>
		<rect x="78.032" y="83.217" clip-path="url(#SVGID_6_)" fill="#BCBEC0" width="0.049" height="0.514"/>
		<rect x="93.29" y="83.242" clip-path="url(#SVGID_6_)" fill="#BCBEC0" width="0.049" height="0.257"/>
		<rect x="92.546" y="83.241" clip-path="url(#SVGID_6_)" fill="#BCBEC0" width="0.05" height="0.257"/>
		<rect x="91.802" y="83.24" clip-path="url(#SVGID_6_)" fill="#BCBEC0" width="0.049" height="0.257"/>
		<rect x="91.059" y="83.238" clip-path="url(#SVGID_6_)" fill="#BCBEC0" width="0.05" height="0.258"/>
		<rect x="90.315" y="83.237" clip-path="url(#SVGID_6_)" fill="#BCBEC0" width="0.049" height="0.257"/>
		<rect x="89.571" y="83.236" clip-path="url(#SVGID_6_)" fill="#BCBEC0" width="0.049" height="0.257"/>
		<rect x="88.827" y="83.235" clip-path="url(#SVGID_6_)" fill="#BCBEC0" width="0.05" height="0.258"/>
		<rect x="88.083" y="83.233" clip-path="url(#SVGID_6_)" fill="#BCBEC0" width="0.049" height="0.257"/>
		<rect x="87.34" y="83.232" clip-path="url(#SVGID_6_)" fill="#BCBEC0" width="0.05" height="0.257"/>
		<rect x="86.596" y="83.231" clip-path="url(#SVGID_6_)" fill="#BCBEC0" width="0.051" height="0.257"/>
		<rect x="85.852" y="83.229" clip-path="url(#SVGID_6_)" fill="#BCBEC0" width="0.049" height="0.257"/>
		<rect x="85.108" y="83.229" clip-path="url(#SVGID_6_)" fill="#BCBEC0" width="0.05" height="0.257"/>
		<rect x="84.365" y="83.228" clip-path="url(#SVGID_6_)" fill="#BCBEC0" width="0.049" height="0.257"/>
		<rect x="83.621" y="83.226" clip-path="url(#SVGID_6_)" fill="#BCBEC0" width="0.049" height="0.259"/>
		<rect x="82.877" y="83.225" clip-path="url(#SVGID_6_)" fill="#BCBEC0" width="0.05" height="0.257"/>
		<rect x="82.133" y="83.224" clip-path="url(#SVGID_6_)" fill="#BCBEC0" width="0.049" height="0.257"/>
		<rect x="81.39" y="83.222" clip-path="url(#SVGID_6_)" fill="#BCBEC0" width="0.05" height="0.258"/>
		<rect x="80.646" y="83.221" clip-path="url(#SVGID_6_)" fill="#BCBEC0" width="0.049" height="0.257"/>
		<rect x="79.902" y="83.22" clip-path="url(#SVGID_6_)" fill="#BCBEC0" width="0.049" height="0.257"/>
		<rect x="79.158" y="83.219" clip-path="url(#SVGID_6_)" fill="#BCBEC0" width="0.05" height="0.257"/>
		<rect x="78.415" y="83.217" clip-path="url(#SVGID_6_)" fill="#BCBEC0" width="0.049" height="0.257"/>
		<rect x="77.671" y="83.216" clip-path="url(#SVGID_6_)" fill="#BCBEC0" width="0.05" height="0.257"/>
		<polygon clip-path="url(#SVGID_6_)" fill="#D8231E" points="77.346,84.216 77.346,84.315 92.933,84.342 93.092,84.242 		"/>
		<path clip-path="url(#SVGID_6_)" fill="#D1D3D4" d="M28.205,60.271h-2.402c-0.234,0-0.424-0.189-0.424-0.424v-0.955
			c0-0.234,0.19-0.424,0.424-0.424h2.402c0.234,0,0.424,0.189,0.424,0.424v0.955C28.629,60.082,28.439,60.271,28.205,60.271"/>
		<path clip-path="url(#SVGID_6_)" fill="#FFFFFF" d="M26.114,59.56c0,3.355-2.721,6.076-6.077,6.076s-6.076-2.721-6.076-6.076
			c0-3.356,2.72-6.076,6.076-6.076S26.114,56.203,26.114,59.56"/>
		<path clip-path="url(#SVGID_6_)" fill="#939598" d="M25.279,59.56c0,2.896-2.347,5.242-5.242,5.242s-5.242-2.347-5.242-5.242
			c0-2.895,2.347-5.242,5.242-5.242S25.279,56.665,25.279,59.56"/>
		<path clip-path="url(#SVGID_6_)" fill="#231F20" d="M25.279,59.56c0,2.896-2.347,5.242-5.242,5.242s-5.242-2.347-5.242-5.242
			c0-2.895,2.347-5.242,5.242-5.242S25.279,56.665,25.279,59.56"/>
		<path clip-path="url(#SVGID_6_)" fill="#58595B" d="M16.129,60.044c0-2.426,1.967-4.393,4.393-4.393
			c1.089,0,2.086,0.397,2.853,1.055c-0.806-0.941-2.001-1.539-3.338-1.539c-2.426,0-4.392,1.967-4.392,4.393
			c0,1.336,0.597,2.532,1.539,3.338C16.527,62.13,16.129,61.134,16.129,60.044"/>
		<path clip-path="url(#SVGID_6_)" fill="#BCBEC0" d="M20.037,54.195c-2.963,0-5.364,2.401-5.364,5.364s2.401,5.364,5.364,5.364
			c2.963,0,5.364-2.401,5.364-5.364S23,54.195,20.037,54.195 M20.154,64.584c-2.775,0-5.025-2.249-5.025-5.024
			s2.25-5.024,5.025-5.024s5.025,2.249,5.025,5.024S22.929,64.584,20.154,64.584"/>
		<path clip-path="url(#SVGID_6_)" fill="#A7A9AC" d="M26.323,58.469h-0.198c-0.037,0-0.073,0.004-0.11,0.009
			c0.064,0.352,0.099,0.713,0.099,1.082c0,0.24-0.016,0.477-0.043,0.71c0.018,0.001,0.036,0.002,0.054,0.002h0.255
			c0.027-0.233,0.043-0.471,0.043-0.712C26.423,59.187,26.387,58.822,26.323,58.469"/>
		<path clip-path="url(#SVGID_6_)" fill="#27AEB6" d="M85.189,80.176h-7.43c-1.819,0-3.294-1.475-3.294-3.294V66.219
			c0-1.819,1.475-3.294,3.294-3.294h7.43c1.819,0,3.294,1.475,3.294,3.294v10.663C88.483,78.701,87.009,80.176,85.189,80.176"/>
		<path clip-path="url(#SVGID_6_)" fill="#DBD2AB" d="M87.593,62.535H75.779c-0.354,0-0.64,0.287-0.64,0.64V79.19
			c0,0.354,0.286,0.64,0.64,0.64h11.813c0.353,0,0.64-0.286,0.64-0.64V63.175C88.232,62.822,87.945,62.535,87.593,62.535
			 M75.681,78.765c-0.204,0-0.368-0.165-0.368-0.368s0.164-0.368,0.368-0.368c0.203,0,0.368,0.165,0.368,0.368
			S75.884,78.765,75.681,78.765 M75.681,76.664c-0.204,0-0.368-0.165-0.368-0.368c0-0.204,0.164-0.369,0.368-0.369
			c0.203,0,0.368,0.165,0.368,0.369C76.049,76.499,75.884,76.664,75.681,76.664 M75.681,74.563c-0.204,0-0.368-0.164-0.368-0.368
			c0-0.203,0.164-0.368,0.368-0.368c0.203,0,0.368,0.165,0.368,0.368C76.049,74.398,75.884,74.563,75.681,74.563 M75.681,72.462
			c-0.204,0-0.368-0.165-0.368-0.368c0-0.204,0.164-0.369,0.368-0.369c0.203,0,0.368,0.165,0.368,0.369
			C76.049,72.297,75.884,72.462,75.681,72.462 M75.681,70.36c-0.204,0-0.368-0.164-0.368-0.368c0-0.203,0.164-0.368,0.368-0.368
			c0.203,0,0.368,0.165,0.368,0.368C76.049,70.196,75.884,70.36,75.681,70.36 M75.681,68.26c-0.204,0-0.368-0.165-0.368-0.368
			c0-0.204,0.164-0.369,0.368-0.369c0.203,0,0.368,0.165,0.368,0.369C76.049,68.095,75.884,68.26,75.681,68.26 M75.681,66.159
			c-0.204,0-0.368-0.165-0.368-0.369c0-0.203,0.164-0.368,0.368-0.368c0.203,0,0.368,0.165,0.368,0.368
			C76.049,65.994,75.884,66.159,75.681,66.159 M75.681,64.058c-0.204,0-0.368-0.165-0.368-0.368c0-0.204,0.164-0.369,0.368-0.369
			c0.203,0,0.368,0.165,0.368,0.369C76.049,63.893,75.884,64.058,75.681,64.058"/>
		<path clip-path="url(#SVGID_6_)" fill="#F2EED6" d="M87.42,62.368H75.607c-0.354,0-0.64,0.285-0.64,0.639v16.015
			c0,0.354,0.286,0.64,0.64,0.64H87.42c0.354,0,0.64-0.286,0.64-0.64V63.007C88.06,62.653,87.773,62.368,87.42,62.368
			 M75.509,78.597c-0.204,0-0.369-0.165-0.369-0.369c0-0.203,0.165-0.368,0.369-0.368c0.203,0,0.368,0.165,0.368,0.368
			C75.877,78.432,75.712,78.597,75.509,78.597 M75.509,76.495c-0.204,0-0.369-0.165-0.369-0.368c0-0.204,0.165-0.368,0.369-0.368
			c0.203,0,0.368,0.164,0.368,0.368C75.877,76.33,75.712,76.495,75.509,76.495 M75.509,74.395c-0.204,0-0.369-0.165-0.369-0.369
			c0-0.203,0.165-0.368,0.369-0.368c0.203,0,0.368,0.165,0.368,0.368C75.877,74.229,75.712,74.395,75.509,74.395 M75.509,72.293
			c-0.204,0-0.369-0.165-0.369-0.368s0.165-0.368,0.369-0.368c0.203,0,0.368,0.165,0.368,0.368S75.712,72.293,75.509,72.293
			 M75.509,70.192c-0.204,0-0.369-0.165-0.369-0.369c0-0.203,0.165-0.368,0.369-0.368c0.203,0,0.368,0.165,0.368,0.368
			C75.877,70.027,75.712,70.192,75.509,70.192 M75.509,68.091c-0.204,0-0.369-0.165-0.369-0.368s0.165-0.368,0.369-0.368
			c0.203,0,0.368,0.165,0.368,0.368S75.712,68.091,75.509,68.091 M75.509,65.99c-0.204,0-0.369-0.164-0.369-0.369
			c0-0.203,0.165-0.368,0.369-0.368c0.203,0,0.368,0.165,0.368,0.368C75.877,65.826,75.712,65.99,75.509,65.99 M75.509,63.889
			c-0.204,0-0.369-0.165-0.369-0.368s0.165-0.368,0.369-0.368c0.203,0,0.368,0.165,0.368,0.368S75.712,63.889,75.509,63.889"/>
		<path clip-path="url(#SVGID_6_)" fill="#A7A9AC" d="M75.603,63.771h-0.878c-0.065,0-0.118-0.053-0.118-0.118v-0.266
			c0-0.065,0.053-0.118,0.118-0.118h0.878c0.063,0,0.117,0.053,0.117,0.118v0.266C75.72,63.719,75.666,63.771,75.603,63.771"/>
		<path clip-path="url(#SVGID_6_)" fill="#A7A9AC" d="M75.513,65.872h-0.698c-0.113,0-0.208-0.093-0.208-0.207v-0.087
			c0-0.114,0.095-0.207,0.208-0.207h0.698c0.114,0,0.207,0.093,0.207,0.207v0.087C75.72,65.779,75.627,65.872,75.513,65.872"/>
		<path clip-path="url(#SVGID_6_)" fill="#A7A9AC" d="M75.513,67.974h-0.698c-0.113,0-0.208-0.093-0.208-0.208V67.68
			c0-0.115,0.095-0.208,0.208-0.208h0.698c0.114,0,0.207,0.093,0.207,0.208v0.086C75.72,67.881,75.627,67.974,75.513,67.974"/>
		<path clip-path="url(#SVGID_6_)" fill="#A7A9AC" d="M75.513,70.074h-0.698c-0.113,0-0.208-0.093-0.208-0.207V69.78
			c0-0.114,0.095-0.207,0.208-0.207h0.698c0.114,0,0.207,0.093,0.207,0.207v0.087C75.72,69.981,75.627,70.074,75.513,70.074"/>
		<path clip-path="url(#SVGID_6_)" fill="#A7A9AC" d="M75.513,72.176h-0.698c-0.113,0-0.208-0.093-0.208-0.208v-0.086
			c0-0.115,0.095-0.208,0.208-0.208h0.698c0.114,0,0.207,0.093,0.207,0.208v0.086C75.72,72.083,75.627,72.176,75.513,72.176"/>
		<path clip-path="url(#SVGID_6_)" fill="#A7A9AC" d="M75.513,74.276h-0.698c-0.113,0-0.208-0.093-0.208-0.207v-0.087
			c0-0.114,0.095-0.208,0.208-0.208h0.698c0.114,0,0.207,0.094,0.207,0.208v0.087C75.72,74.184,75.627,74.276,75.513,74.276"/>
		<path clip-path="url(#SVGID_6_)" fill="#A7A9AC" d="M75.513,76.378h-0.698c-0.113,0-0.208-0.093-0.208-0.208v-0.086
			c0-0.115,0.095-0.208,0.208-0.208h0.698c0.114,0,0.207,0.093,0.207,0.208v0.086C75.72,76.285,75.627,76.378,75.513,76.378"/>
		<path clip-path="url(#SVGID_6_)" fill="#A7A9AC" d="M75.603,78.479h-0.878c-0.065,0-0.118-0.053-0.118-0.118v-0.266
			c0-0.064,0.053-0.118,0.118-0.118h0.878c0.063,0,0.117,0.054,0.117,0.118v0.266C75.72,78.426,75.666,78.479,75.603,78.479"/>
		<path clip-path="url(#SVGID_6_)" fill="#D1D3D4" d="M75.513,63.27h-0.698c-0.113,0-0.208,0.093-0.208,0.208v0.086
			c0,0.029,0.007,0.058,0.018,0.082c0.032-0.073,0.105-0.125,0.19-0.125h0.698c0.085,0,0.158,0.052,0.19,0.125
			c0.011-0.024,0.017-0.053,0.017-0.082v-0.086C75.72,63.362,75.627,63.27,75.513,63.27"/>
		<path clip-path="url(#SVGID_6_)" fill="#D1D3D4" d="M75.513,65.371h-0.698c-0.113,0-0.208,0.093-0.208,0.207v0.087
			c0,0.029,0.007,0.057,0.018,0.082c0.032-0.074,0.105-0.126,0.19-0.126h0.698c0.085,0,0.158,0.052,0.19,0.126
			c0.011-0.025,0.017-0.053,0.017-0.082v-0.087C75.72,65.464,75.627,65.371,75.513,65.371"/>
		<path clip-path="url(#SVGID_6_)" fill="#D1D3D4" d="M75.513,67.472h-0.698c-0.113,0-0.208,0.093-0.208,0.208v0.086
			c0,0.029,0.007,0.058,0.018,0.082c0.032-0.073,0.105-0.125,0.19-0.125h0.698c0.085,0,0.158,0.052,0.19,0.125
			c0.011-0.024,0.017-0.053,0.017-0.082V67.68C75.72,67.564,75.627,67.472,75.513,67.472"/>
		<path clip-path="url(#SVGID_6_)" fill="#D1D3D4" d="M75.513,69.573h-0.698c-0.113,0-0.208,0.093-0.208,0.207v0.087
			c0,0.029,0.007,0.057,0.018,0.082c0.032-0.074,0.105-0.126,0.19-0.126h0.698c0.085,0,0.158,0.052,0.19,0.126
			c0.011-0.025,0.017-0.053,0.017-0.082V69.78C75.72,69.666,75.627,69.573,75.513,69.573"/>
		<path clip-path="url(#SVGID_6_)" fill="#D1D3D4" d="M75.513,71.674h-0.698c-0.113,0-0.208,0.093-0.208,0.208v0.086
			c0,0.029,0.007,0.057,0.018,0.082c0.032-0.073,0.105-0.125,0.19-0.125h0.698c0.085,0,0.158,0.052,0.19,0.125
			c0.011-0.025,0.017-0.053,0.017-0.082v-0.086C75.72,71.767,75.627,71.674,75.513,71.674"/>
		<path clip-path="url(#SVGID_6_)" fill="#D1D3D4" d="M75.513,73.774h-0.698c-0.113,0-0.208,0.094-0.208,0.208v0.087
			c0,0.029,0.007,0.057,0.018,0.082c0.032-0.074,0.105-0.126,0.19-0.126h0.698c0.085,0,0.158,0.052,0.19,0.126
			c0.011-0.025,0.017-0.053,0.017-0.082v-0.087C75.72,73.868,75.627,73.774,75.513,73.774"/>
		<path clip-path="url(#SVGID_6_)" fill="#D1D3D4" d="M75.513,75.876h-0.698c-0.113,0-0.208,0.093-0.208,0.208v0.086
			c0,0.029,0.007,0.057,0.018,0.082c0.032-0.073,0.105-0.125,0.19-0.125h0.698c0.085,0,0.158,0.052,0.19,0.125
			c0.011-0.025,0.017-0.053,0.017-0.082v-0.086C75.72,75.969,75.627,75.876,75.513,75.876"/>
		<path clip-path="url(#SVGID_6_)" fill="#D1D3D4" d="M75.513,77.977h-0.698c-0.113,0-0.208,0.094-0.208,0.208v0.086
			c0,0.029,0.007,0.058,0.018,0.083c0.032-0.074,0.105-0.126,0.19-0.126h0.698c0.085,0,0.158,0.052,0.19,0.126
			c0.011-0.025,0.017-0.054,0.017-0.083v-0.086C75.72,78.07,75.627,77.977,75.513,77.977"/>
		<g clip-path="url(#SVGID_6_)">
			<g>
				<defs>
					<rect id="SVGID_7_" x="79.438" y="71.183" width="8.622" height="8.479"/>
				</defs>
				<clipPath id="SVGID_8_">
					<use xlink:href="#SVGID_7_"  overflow="visible"/>
				</clipPath>
				<polygon clip-path="url(#SVGID_8_)" fill="#E6E7E8" points="81.089,79.661 88.012,72.736 88.013,72.737 88.06,72.69 
					88.06,71.21 88,71.271 87.913,71.183 87.671,71.426 87.638,71.393 87.239,71.792 87.271,71.824 79.438,79.661 				"/>
				<path clip-path="url(#SVGID_8_)" fill="#E6E7E8" d="M88.06,73.59v-0.632l-0.94,0.94c-0.088,0.087-0.088,0.229,0,0.316
					c0.043,0.043,0.101,0.065,0.157,0.065c0.058,0,0.114-0.022,0.158-0.065L88.06,73.59z"/>
			</g>
		</g>
		<path clip-path="url(#SVGID_6_)" fill="#F15A29" d="M88.905,70.528l-0.332-0.332c-0.082-0.081-0.214-0.081-0.295,0l-0.45,0.451
			l0.626,0.626l0.451-0.45C88.986,70.741,88.986,70.609,88.905,70.528"/>
		
			<rect x="83.263" y="69.162" transform="matrix(0.7075 0.7067 -0.7067 0.7075 77.7235 -37.2356)" clip-path="url(#SVGID_6_)" fill="#F2AB1D" width="1.168" height="12.238"/>
		
			<rect x="83.263" y="69.162" transform="matrix(0.7075 0.7067 -0.7067 0.7075 77.7235 -37.2356)" clip-path="url(#SVGID_6_)" fill="#F2AB1D" width="1.168" height="12.238"/>
		<polygon clip-path="url(#SVGID_6_)" fill="#E59B1A" points="88.401,71.184 79.742,79.83 79.934,80.021 88.585,71.367 		"/>
		
			<rect x="83.383" y="68.872" transform="matrix(0.7057 0.7085 -0.7085 0.7057 77.7235 -37.1302)" clip-path="url(#SVGID_6_)" fill="#F7B64D" width="0.346" height="12.238"/>
		<polygon clip-path="url(#SVGID_6_)" fill="#F15A29" points="78.457,80.672 79.934,80.021 79.107,79.196 		"/>
		
			<rect x="87.1" y="71.115" transform="matrix(0.7071 0.7071 -0.7071 0.7071 76.1817 -41.124)" clip-path="url(#SVGID_6_)" fill="#F15A29" width="1.264" height="0.564"/>
		
			<rect x="87.1" y="71.115" transform="matrix(0.7071 0.7071 -0.7071 0.7071 76.1817 -41.124)" clip-path="url(#SVGID_6_)" fill="#F15A29" width="1.264" height="0.564"/>
		
			<rect x="87.1" y="71.115" transform="matrix(0.7071 0.7071 -0.7071 0.7071 76.1817 -41.124)" clip-path="url(#SVGID_6_)" fill="#F15A29" width="1.264" height="0.564"/>
		<path clip-path="url(#SVGID_6_)" fill="#F15A29" d="M88.52,71.882l-0.189-0.189l-0.315,0.316l0.1,0.1l-1.149,1.148
			c-0.087,0.087-0.087,0.229,0,0.316c0.044,0.043,0.102,0.065,0.158,0.065c0.058,0,0.114-0.022,0.158-0.065l1.238-1.238
			c0.061-0.061,0.094-0.142,0.094-0.227S88.58,71.942,88.52,71.882"/>
		
			<rect x="87.988" y="71.834" transform="matrix(0.706 -0.7082 0.7082 0.706 -24.9792 83.6059)" clip-path="url(#SVGID_6_)" fill="#DB461F" width="0.447" height="0.11"/>
		
			<rect x="87.429" y="71.055" transform="matrix(0.7111 -0.7031 0.7031 0.7111 -25.0932 82.2115)" clip-path="url(#SVGID_6_)" fill="#E29814" width="0.122" height="1.168"/>
		<path clip-path="url(#SVGID_6_)" fill="#296A87" d="M19.552,89.885h-6.277c-1.537,0-2.783-1.246-2.783-2.783V75.68
			c0-1.537,1.246-2.783,2.783-2.783h6.277c1.537,0,2.783,1.246,2.783,2.783v11.422C22.335,88.639,21.089,89.885,19.552,89.885"/>
		<path clip-path="url(#SVGID_6_)" fill="#296A87" d="M19.539,89.885h-6.277c-1.537,0-2.783-1.246-2.783-2.783V75.68
			c0-1.537,1.246-2.783,2.783-2.783h6.277c1.537,0,2.783,1.246,2.783,2.783v11.422C22.322,88.639,21.076,89.885,19.539,89.885"/>
		<path clip-path="url(#SVGID_6_)" fill="#206177" d="M21.108,72.896h-0.687c0.677,0,1.227,0.549,1.227,1.227v14.534
			c0,0.678-0.55,1.228-1.227,1.228h0.687c0.678,0,1.227-0.55,1.227-1.228V74.123C22.335,73.445,21.786,72.896,21.108,72.896"/>
		<path clip-path="url(#SVGID_6_)" fill="#3E859E" d="M11.103,88.657V74.123c0-0.678,0.549-1.227,1.227-1.227h-0.611
			c-0.678,0-1.227,0.549-1.227,1.227v14.534c0,0.678,0.549,1.228,1.227,1.228h0.611C11.651,89.885,11.103,89.335,11.103,88.657"/>
		<path clip-path="url(#SVGID_6_)" fill="#093754" d="M13.173,81.357h-1.39c-0.194,0-0.352-0.157-0.352-0.353v-0.794
			c0-0.194,0.158-0.353,0.352-0.353h1.39c0.195,0,0.353,0.158,0.353,0.353v0.794C13.526,81.2,13.368,81.357,13.173,81.357"/>
		<path clip-path="url(#SVGID_6_)" fill="#093754" d="M15.796,81.357h-1.39c-0.194,0-0.352-0.157-0.352-0.353v-0.794
			c0-0.194,0.158-0.353,0.352-0.353h1.39c0.195,0,0.353,0.158,0.353,0.353v0.794C16.149,81.2,15.991,81.357,15.796,81.357"/>
		<path clip-path="url(#SVGID_6_)" fill="#093754" d="M18.419,81.357h-1.39c-0.194,0-0.352-0.157-0.352-0.353v-0.794
			c0-0.194,0.158-0.353,0.352-0.353h1.39c0.195,0,0.353,0.158,0.353,0.353v0.794C18.772,81.2,18.614,81.357,18.419,81.357"/>
		<path clip-path="url(#SVGID_6_)" fill="#093754" d="M21.042,81.357h-1.39c-0.194,0-0.352-0.157-0.352-0.353v-0.794
			c0-0.194,0.158-0.353,0.352-0.353h1.39c0.195,0,0.353,0.158,0.353,0.353v0.794C21.396,81.2,21.237,81.357,21.042,81.357"/>
		<path clip-path="url(#SVGID_6_)" fill="#093754" d="M13.173,83.457h-1.39c-0.194,0-0.352-0.157-0.352-0.352v-0.795
			c0-0.194,0.158-0.353,0.352-0.353h1.39c0.195,0,0.353,0.158,0.353,0.353v0.795C13.526,83.3,13.368,83.457,13.173,83.457"/>
		<path clip-path="url(#SVGID_6_)" fill="#093754" d="M15.796,83.457h-1.39c-0.194,0-0.352-0.157-0.352-0.352v-0.795
			c0-0.194,0.158-0.353,0.352-0.353h1.39c0.195,0,0.353,0.158,0.353,0.353v0.795C16.149,83.3,15.991,83.457,15.796,83.457"/>
		<path clip-path="url(#SVGID_6_)" fill="#093754" d="M18.419,83.457h-1.39c-0.194,0-0.352-0.157-0.352-0.352v-0.795
			c0-0.194,0.158-0.353,0.352-0.353h1.39c0.195,0,0.353,0.158,0.353,0.353v0.795C18.772,83.3,18.614,83.457,18.419,83.457"/>
		<path clip-path="url(#SVGID_6_)" fill="#093754" d="M21.042,83.457h-1.39c-0.194,0-0.352-0.157-0.352-0.352v-0.795
			c0-0.194,0.158-0.353,0.352-0.353h1.39c0.195,0,0.353,0.158,0.353,0.353v0.795C21.396,83.3,21.237,83.457,21.042,83.457"/>
		<path clip-path="url(#SVGID_6_)" fill="#093754" d="M13.173,85.558h-1.39c-0.194,0-0.352-0.158-0.352-0.353V84.41
			c0-0.194,0.158-0.353,0.352-0.353h1.39c0.195,0,0.353,0.158,0.353,0.353v0.795C13.526,85.399,13.368,85.558,13.173,85.558"/>
		<path clip-path="url(#SVGID_6_)" fill="#093754" d="M15.796,85.558h-1.39c-0.194,0-0.352-0.158-0.352-0.353V84.41
			c0-0.194,0.158-0.353,0.352-0.353h1.39c0.195,0,0.353,0.158,0.353,0.353v0.795C16.149,85.399,15.991,85.558,15.796,85.558"/>
		<path clip-path="url(#SVGID_6_)" fill="#093754" d="M18.419,85.558h-1.39c-0.194,0-0.352-0.158-0.352-0.353V84.41
			c0-0.194,0.158-0.353,0.352-0.353h1.39c0.195,0,0.353,0.158,0.353,0.353v0.795C18.772,85.399,18.614,85.558,18.419,85.558"/>
		<path clip-path="url(#SVGID_6_)" fill="#093754" d="M15.814,86.157h-1.312h-0.114h-1.197h-0.114h-1.312
			c-0.184,0-0.334,0.15-0.334,0.335v0.83c0,0.185,0.15,0.335,0.334,0.335h1.312h0.114h1.197h0.114h1.312
			c0.185,0,0.334-0.15,0.334-0.335v-0.83C16.148,86.308,16,86.157,15.814,86.157"/>
		<path clip-path="url(#SVGID_6_)" fill="#093754" d="M18.419,87.657h-1.39c-0.194,0-0.352-0.158-0.352-0.353V86.51
			c0-0.194,0.158-0.353,0.352-0.353h1.39c0.195,0,0.353,0.158,0.353,0.353v0.795C18.772,87.499,18.614,87.657,18.419,87.657"/>
		<path clip-path="url(#SVGID_6_)" fill="#093754" d="M21.042,87.657h-1.39c-0.194,0-0.352-0.158-0.352-0.353V86.51
			c0-0.194,0.158-0.353,0.352-0.353h1.39c0.195,0,0.353,0.158,0.353,0.353v0.795C21.396,87.499,21.237,87.657,21.042,87.657"/>
		<path clip-path="url(#SVGID_6_)" fill="#231F20" d="M13.173,81.23h-1.39c-0.194,0-0.352-0.158-0.352-0.353v-0.794
			c0-0.195,0.158-0.353,0.352-0.353h1.39c0.194,0,0.352,0.157,0.352,0.353v0.794C13.525,81.072,13.367,81.23,13.173,81.23"/>
		<path clip-path="url(#SVGID_6_)" fill="#231F20" d="M15.796,81.23h-1.39c-0.194,0-0.352-0.158-0.352-0.353v-0.794
			c0-0.195,0.158-0.353,0.352-0.353h1.39c0.194,0,0.353,0.157,0.353,0.353v0.794C16.149,81.072,15.99,81.23,15.796,81.23"/>
		<path clip-path="url(#SVGID_6_)" fill="#231F20" d="M18.419,81.23h-1.39c-0.194,0-0.352-0.158-0.352-0.353v-0.794
			c0-0.195,0.158-0.353,0.352-0.353h1.39c0.195,0,0.353,0.157,0.353,0.353v0.794C18.772,81.072,18.614,81.23,18.419,81.23"/>
		<path clip-path="url(#SVGID_6_)" fill="#231F20" d="M21.042,81.23h-1.39c-0.194,0-0.352-0.158-0.352-0.353v-0.794
			c0-0.195,0.158-0.353,0.352-0.353h1.39c0.195,0,0.353,0.157,0.353,0.353v0.794C21.396,81.072,21.237,81.23,21.042,81.23"/>
		<path clip-path="url(#SVGID_6_)" fill="#231F20" d="M13.173,83.33h-1.39c-0.194,0-0.352-0.157-0.352-0.353v-0.793
			c0-0.196,0.158-0.354,0.352-0.354h1.39c0.194,0,0.352,0.157,0.352,0.354v0.793C13.525,83.173,13.367,83.33,13.173,83.33"/>
		<path clip-path="url(#SVGID_6_)" fill="#231F20" d="M15.796,83.33h-1.39c-0.194,0-0.352-0.157-0.352-0.353v-0.793
			c0-0.196,0.158-0.354,0.352-0.354h1.39c0.194,0,0.353,0.157,0.353,0.354v0.793C16.149,83.173,15.99,83.33,15.796,83.33"/>
		<path clip-path="url(#SVGID_6_)" fill="#231F20" d="M18.419,83.33h-1.39c-0.194,0-0.352-0.157-0.352-0.353v-0.793
			c0-0.196,0.158-0.354,0.352-0.354h1.39c0.195,0,0.353,0.157,0.353,0.354v0.793C18.772,83.173,18.614,83.33,18.419,83.33"/>
		<path clip-path="url(#SVGID_6_)" fill="#231F20" d="M21.042,83.33h-1.39c-0.194,0-0.352-0.157-0.352-0.353v-0.793
			c0-0.196,0.158-0.354,0.352-0.354h1.39c0.195,0,0.353,0.157,0.353,0.354v0.793C21.396,83.173,21.237,83.33,21.042,83.33"/>
		<path clip-path="url(#SVGID_6_)" fill="#231F20" d="M13.173,85.43h-1.39c-0.194,0-0.352-0.157-0.352-0.353v-0.793
			c0-0.196,0.158-0.354,0.352-0.354h1.39c0.194,0,0.352,0.157,0.352,0.354v0.793C13.525,85.272,13.367,85.43,13.173,85.43"/>
		<path clip-path="url(#SVGID_6_)" fill="#231F20" d="M15.796,85.43h-1.39c-0.194,0-0.352-0.157-0.352-0.353v-0.793
			c0-0.196,0.158-0.354,0.352-0.354h1.39c0.194,0,0.353,0.157,0.353,0.354v0.793C16.149,85.272,15.99,85.43,15.796,85.43"/>
		<path clip-path="url(#SVGID_6_)" fill="#231F20" d="M18.419,85.43h-1.39c-0.194,0-0.352-0.157-0.352-0.353v-0.793
			c0-0.196,0.158-0.354,0.352-0.354h1.39c0.195,0,0.353,0.157,0.353,0.354v0.793C18.772,85.272,18.614,85.43,18.419,85.43"/>
		<path clip-path="url(#SVGID_6_)" fill="#231F20" d="M15.814,86.03h-1.347h-0.079h-1.197h-0.149h-1.277
			c-0.184,0-0.334,0.149-0.334,0.334v0.831c0,0.185,0.15,0.334,0.334,0.334h1.277h0.149h1.197h0.079h1.347
			c0.185,0,0.334-0.149,0.334-0.334v-0.831C16.148,86.18,16,86.03,15.814,86.03"/>
		<path clip-path="url(#SVGID_6_)" fill="#231F20" d="M18.419,87.529h-1.39c-0.194,0-0.352-0.157-0.352-0.352v-0.795
			c0-0.194,0.158-0.353,0.352-0.353h1.39c0.195,0,0.353,0.158,0.353,0.353v0.795C18.772,87.372,18.614,87.529,18.419,87.529"/>
		<path clip-path="url(#SVGID_6_)" fill="#206177" d="M20.644,77.859h-8.461c-0.414,0-0.751-0.337-0.751-0.752v-1.694
			c0-0.415,0.337-0.752,0.751-0.752h8.461c0.415,0,0.751,0.337,0.751,0.752v1.694C21.395,77.522,21.059,77.859,20.644,77.859"/>
		<path clip-path="url(#SVGID_6_)" fill="#D1D3D4" d="M11.518,77.062v-1.603c0-0.393,0.318-0.711,0.71-0.711h8.37
			c0.392,0,0.711,0.318,0.711,0.711v1.604c0,0.393-0.319,0.71-0.711,0.71h-8.369C11.836,77.772,11.518,77.454,11.518,77.062"/>
		<path clip-path="url(#SVGID_6_)" fill="#093754" d="M19.691,79.018h1.459c0.089,0,0.162-0.072,0.162-0.162v-0.363
			c0-0.09-0.073-0.161-0.162-0.161h-1.459c-0.089,0-0.162,0.071-0.162,0.161v0.363C19.529,78.945,19.602,79.018,19.691,79.018"/>
		<path clip-path="url(#SVGID_6_)" fill="#093754" d="M17.539,79.018h1.459c0.089,0,0.162-0.072,0.162-0.162v-0.363
			c0-0.09-0.073-0.161-0.162-0.161h-1.459c-0.089,0-0.162,0.071-0.162,0.161v0.363C17.376,78.945,17.45,79.018,17.539,79.018"/>
		<path clip-path="url(#SVGID_6_)" fill="#F7941E" d="M19.771,79.076h1.459c0.089,0,0.162-0.072,0.162-0.161v-0.364
			c0-0.089-0.073-0.161-0.162-0.161h-1.459c-0.089,0-0.162,0.072-0.162,0.161v0.364C19.609,79.004,19.682,79.076,19.771,79.076"/>
		<path clip-path="url(#SVGID_6_)" fill="#27AAE1" d="M17.619,79.076h1.459c0.089,0,0.162-0.072,0.162-0.161v-0.364
			c0-0.089-0.073-0.161-0.162-0.161h-1.459c-0.089,0-0.162,0.072-0.162,0.161v0.364C17.457,79.004,17.53,79.076,17.619,79.076"/>
	</g>
	<g clip-path="url(#SVGID_2_)">
		<text transform="matrix(1 0 0 1 12.6416 76.9873)" fill="#206177" font-family="'Lato-Light'" font-size="2.0035">543210</text>
	</g>
	<g clip-path="url(#SVGID_2_)">
		<defs>
			<rect id="SVGID_9_" width="99.882" height="100"/>
		</defs>
		<clipPath id="SVGID_10_">
			<use xlink:href="#SVGID_9_"  overflow="visible"/>
		</clipPath>
		<path clip-path="url(#SVGID_10_)" fill="#BCBEC0" d="M11.977,85.144h0.195v-0.583c0-0.021,0.001-0.046,0.003-0.071l-0.139,0.121
			c-0.006,0.005-0.012,0.008-0.018,0.01c-0.006,0.003-0.012,0.003-0.018,0.003c-0.009,0-0.017-0.001-0.024-0.006
			c-0.007-0.004-0.013-0.008-0.017-0.014l-0.051-0.073l0.294-0.26h0.135v0.873h0.174v0.128h-0.534V85.144z"/>
		<path clip-path="url(#SVGID_10_)" fill="#BCBEC0" d="M15,84.266c0.044,0,0.085,0.007,0.122,0.021s0.069,0.033,0.095,0.058
			c0.026,0.025,0.047,0.055,0.061,0.09c0.015,0.035,0.022,0.074,0.022,0.117c0,0.036-0.005,0.069-0.015,0.103
			c-0.011,0.031-0.025,0.061-0.042,0.09c-0.018,0.028-0.038,0.056-0.062,0.083c-0.024,0.026-0.048,0.054-0.074,0.081l-0.218,0.23
			c0.022-0.007,0.043-0.012,0.063-0.015c0.02-0.004,0.04-0.006,0.059-0.006h0.247c0.018,0,0.033,0.006,0.043,0.016
			c0.01,0.011,0.015,0.024,0.015,0.041v0.103h-0.662V85.22c0-0.012,0.003-0.023,0.007-0.036c0.005-0.012,0.012-0.023,0.023-0.034
			l0.293-0.305c0.024-0.025,0.046-0.05,0.065-0.073c0.02-0.023,0.036-0.047,0.049-0.07c0.013-0.022,0.023-0.046,0.03-0.07
			c0.007-0.023,0.01-0.049,0.01-0.075c0-0.023-0.003-0.045-0.009-0.063c-0.007-0.019-0.017-0.034-0.029-0.046
			c-0.012-0.013-0.028-0.022-0.045-0.028c-0.017-0.008-0.036-0.01-0.057-0.01c-0.04,0-0.073,0.011-0.098,0.031
			c-0.026,0.021-0.043,0.049-0.054,0.084c-0.005,0.018-0.012,0.03-0.022,0.037c-0.01,0.008-0.022,0.012-0.037,0.012
			c-0.007,0-0.014-0.001-0.022-0.002l-0.087-0.016c0.007-0.048,0.019-0.09,0.038-0.127c0.02-0.036,0.044-0.065,0.072-0.09
			c0.029-0.024,0.062-0.043,0.099-0.055C14.917,84.271,14.958,84.266,15,84.266"/>
		<path clip-path="url(#SVGID_10_)" fill="#BCBEC0" d="M17.569,84.26c0.044,0,0.085,0.007,0.121,0.021
			c0.035,0.012,0.066,0.03,0.091,0.053c0.026,0.023,0.045,0.051,0.059,0.082c0.013,0.031,0.02,0.065,0.02,0.102
			c0,0.032-0.003,0.061-0.01,0.084c-0.007,0.024-0.017,0.046-0.03,0.063c-0.013,0.019-0.029,0.033-0.048,0.046
			s-0.041,0.022-0.065,0.031c0.058,0.019,0.101,0.048,0.13,0.086c0.028,0.039,0.043,0.088,0.043,0.146
			c0,0.05-0.009,0.094-0.027,0.132c-0.018,0.038-0.042,0.07-0.072,0.097c-0.03,0.026-0.066,0.046-0.106,0.059
			c-0.039,0.014-0.082,0.021-0.126,0.021c-0.048,0-0.091-0.006-0.127-0.018s-0.067-0.028-0.094-0.051
			c-0.027-0.022-0.049-0.051-0.068-0.083c-0.019-0.033-0.035-0.07-0.048-0.113l0.073-0.031c0.012-0.006,0.025-0.009,0.038-0.009
			c0.011,0,0.022,0.003,0.031,0.008c0.009,0.005,0.016,0.013,0.021,0.022c0.008,0.016,0.017,0.032,0.026,0.048
			c0.01,0.017,0.021,0.029,0.035,0.042c0.013,0.012,0.029,0.021,0.047,0.029s0.039,0.012,0.064,0.012
			c0.028,0,0.053-0.005,0.073-0.015c0.021-0.009,0.039-0.021,0.053-0.037c0.014-0.015,0.024-0.032,0.031-0.051
			c0.007-0.019,0.011-0.037,0.011-0.056c0-0.024-0.003-0.046-0.008-0.065c-0.005-0.021-0.015-0.037-0.031-0.051
			c-0.015-0.014-0.037-0.024-0.066-0.032c-0.03-0.008-0.069-0.012-0.118-0.012v-0.122c0.041,0,0.075-0.004,0.101-0.012
			c0.027-0.007,0.048-0.018,0.064-0.03c0.016-0.014,0.027-0.029,0.033-0.048c0.006-0.019,0.009-0.038,0.009-0.061
			c0-0.048-0.012-0.083-0.037-0.107c-0.025-0.024-0.059-0.035-0.102-0.035c-0.039,0-0.072,0.01-0.098,0.03
			c-0.025,0.021-0.043,0.05-0.054,0.083c-0.005,0.018-0.012,0.03-0.022,0.038c-0.009,0.007-0.022,0.011-0.037,0.011
			c-0.007,0-0.014,0-0.022-0.002L17.24,84.55c0.007-0.048,0.019-0.09,0.039-0.126c0.019-0.036,0.043-0.066,0.072-0.091
			c0.028-0.024,0.061-0.042,0.098-0.055C17.486,84.267,17.527,84.26,17.569,84.26"/>
		<path clip-path="url(#SVGID_10_)" fill="#BCBEC0" d="M12.455,82.823h0.122v0.099c0,0.009-0.003,0.018-0.009,0.023
			c-0.006,0.007-0.014,0.011-0.026,0.011h-0.087V83.2h-0.144v-0.244h-0.407c-0.011,0-0.021-0.004-0.03-0.011
			c-0.008-0.008-0.013-0.017-0.016-0.027l-0.016-0.086l0.457-0.633h0.156V82.823z M12.311,82.496c0-0.015,0-0.031,0.001-0.048
			c0.001-0.018,0.003-0.035,0.005-0.054l-0.299,0.429h0.293V82.496z"/>
		<path clip-path="url(#SVGID_10_)" fill="#BCBEC0" d="M15.274,82.267c0,0.024-0.008,0.044-0.022,0.06
			c-0.016,0.015-0.04,0.022-0.075,0.022h-0.266l-0.034,0.209c0.043-0.009,0.083-0.014,0.119-0.014c0.051,0,0.095,0.008,0.134,0.023
			s0.071,0.037,0.097,0.065c0.026,0.027,0.046,0.06,0.06,0.097c0.013,0.037,0.02,0.077,0.02,0.12c0,0.053-0.01,0.102-0.028,0.146
			c-0.018,0.043-0.043,0.081-0.075,0.112c-0.032,0.031-0.07,0.056-0.114,0.072S15,83.205,14.947,83.205
			c-0.03,0-0.059-0.003-0.086-0.01s-0.052-0.015-0.076-0.026c-0.024-0.011-0.046-0.022-0.066-0.037
			c-0.021-0.014-0.039-0.028-0.055-0.044l0.051-0.073c0.011-0.016,0.025-0.023,0.043-0.023c0.011,0,0.022,0.004,0.034,0.011
			c0.011,0.008,0.024,0.016,0.039,0.024c0.015,0.009,0.033,0.017,0.053,0.024s0.044,0.011,0.073,0.011
			c0.03,0,0.057-0.005,0.08-0.015c0.023-0.011,0.042-0.024,0.058-0.043c0.015-0.018,0.027-0.04,0.034-0.064
			c0.008-0.025,0.012-0.053,0.012-0.082c0-0.055-0.015-0.098-0.046-0.128c-0.03-0.03-0.075-0.046-0.134-0.046
			c-0.047,0-0.094,0.009-0.141,0.026l-0.103-0.03l0.08-0.485h0.477V82.267z"/>
		<path clip-path="url(#SVGID_10_)" fill="#BCBEC0" d="M17.598,82.569c0.037,0,0.072,0.007,0.106,0.019
			c0.035,0.013,0.065,0.031,0.092,0.057c0.026,0.025,0.047,0.057,0.063,0.094c0.016,0.038,0.024,0.081,0.024,0.131
			c0,0.046-0.008,0.09-0.025,0.131c-0.016,0.041-0.039,0.076-0.069,0.106c-0.03,0.031-0.066,0.055-0.108,0.072
			s-0.088,0.026-0.139,0.026c-0.052,0-0.098-0.009-0.139-0.025c-0.041-0.018-0.076-0.041-0.105-0.072
			c-0.029-0.03-0.051-0.067-0.066-0.11c-0.015-0.043-0.023-0.091-0.023-0.144c0-0.047,0.009-0.095,0.028-0.145
			c0.018-0.05,0.047-0.102,0.085-0.154l0.231-0.32c0.007-0.012,0.019-0.021,0.035-0.028c0.015-0.008,0.033-0.012,0.052-0.012h0.147
			L17.5,82.557c-0.006,0.008-0.012,0.016-0.017,0.022c-0.006,0.007-0.012,0.014-0.017,0.021c0.019-0.01,0.039-0.018,0.061-0.022
			C17.549,82.572,17.573,82.569,17.598,82.569 M17.367,82.88c0,0.027,0.004,0.053,0.011,0.076c0.008,0.022,0.018,0.042,0.033,0.058
			c0.014,0.017,0.032,0.029,0.054,0.038c0.021,0.009,0.046,0.014,0.073,0.014c0.027,0,0.051-0.005,0.073-0.014
			c0.022-0.01,0.041-0.022,0.057-0.039c0.015-0.017,0.028-0.036,0.037-0.059c0.009-0.022,0.013-0.047,0.013-0.072
			c0-0.029-0.004-0.055-0.013-0.077c-0.008-0.023-0.02-0.043-0.036-0.059c-0.015-0.016-0.034-0.028-0.056-0.036
			c-0.021-0.009-0.045-0.013-0.072-0.013c-0.026,0-0.05,0.005-0.071,0.014c-0.021,0.01-0.04,0.023-0.055,0.039
			c-0.016,0.016-0.027,0.035-0.036,0.058C17.371,82.83,17.367,82.854,17.367,82.88"/>
		<path clip-path="url(#SVGID_10_)" fill="#BCBEC0" d="M12.708,80.145v0.074c0,0.021-0.002,0.04-0.007,0.053
			c-0.005,0.014-0.009,0.025-0.014,0.035l-0.365,0.779c-0.007,0.017-0.018,0.03-0.031,0.041c-0.015,0.012-0.033,0.018-0.057,0.018
			h-0.119l0.374-0.765c0.015-0.031,0.032-0.058,0.052-0.081h-0.462c-0.011,0-0.019-0.003-0.027-0.011
			c-0.008-0.009-0.011-0.018-0.011-0.028v-0.115H12.708z"/>
		<path clip-path="url(#SVGID_10_)" fill="#BCBEC0" d="M14.986,81.155c-0.05,0-0.095-0.007-0.136-0.021
			c-0.042-0.013-0.077-0.033-0.106-0.059c-0.029-0.025-0.052-0.057-0.069-0.092c-0.016-0.036-0.024-0.076-0.024-0.121
			c0-0.059,0.014-0.108,0.042-0.149s0.072-0.071,0.131-0.091c-0.047-0.021-0.083-0.049-0.106-0.087
			c-0.024-0.037-0.035-0.081-0.035-0.135c0-0.037,0.008-0.073,0.022-0.105c0.015-0.033,0.036-0.062,0.063-0.086
			c0.027-0.023,0.058-0.043,0.095-0.057c0.038-0.013,0.079-0.02,0.123-0.02s0.085,0.007,0.123,0.02
			c0.037,0.014,0.068,0.033,0.095,0.057c0.027,0.024,0.048,0.053,0.063,0.086c0.014,0.032,0.022,0.068,0.022,0.105
			c0,0.054-0.011,0.098-0.035,0.135c-0.024,0.038-0.059,0.066-0.106,0.087c0.059,0.02,0.103,0.05,0.131,0.091
			s0.042,0.091,0.042,0.149c0,0.045-0.008,0.085-0.024,0.121c-0.017,0.035-0.039,0.066-0.069,0.092
			c-0.029,0.025-0.064,0.046-0.105,0.059C15.081,81.148,15.036,81.155,14.986,81.155 M14.986,81.022
			c0.027,0,0.051-0.005,0.071-0.013c0.021-0.008,0.038-0.02,0.052-0.033c0.014-0.015,0.025-0.031,0.032-0.052
			c0.007-0.02,0.011-0.041,0.011-0.064c0-0.055-0.015-0.096-0.044-0.124c-0.03-0.028-0.07-0.042-0.122-0.042
			c-0.052,0-0.092,0.014-0.122,0.042c-0.029,0.028-0.044,0.069-0.044,0.124c0,0.023,0.004,0.045,0.011,0.064
			c0.007,0.021,0.018,0.037,0.032,0.052c0.014,0.014,0.031,0.025,0.052,0.033C14.935,81.018,14.959,81.022,14.986,81.022
			 M14.986,80.56c0.027,0,0.049-0.004,0.067-0.013c0.019-0.008,0.034-0.021,0.044-0.035c0.012-0.014,0.019-0.031,0.024-0.05
			c0.005-0.019,0.007-0.038,0.007-0.058c0-0.019-0.003-0.037-0.008-0.054c-0.006-0.018-0.015-0.032-0.027-0.046
			c-0.011-0.013-0.026-0.023-0.044-0.031c-0.017-0.008-0.039-0.012-0.063-0.012s-0.045,0.004-0.063,0.012s-0.033,0.019-0.045,0.031
			c-0.012,0.014-0.02,0.028-0.026,0.046c-0.005,0.017-0.008,0.035-0.008,0.054c0,0.02,0.002,0.039,0.007,0.058
			c0.005,0.019,0.012,0.036,0.024,0.05c0.011,0.015,0.026,0.027,0.044,0.035C14.937,80.556,14.959,80.56,14.986,80.56"/>
		<path clip-path="url(#SVGID_10_)" fill="#BCBEC0" d="M17.645,80.751c-0.033,0-0.066-0.006-0.098-0.019
			c-0.032-0.011-0.061-0.029-0.086-0.053c-0.025-0.025-0.045-0.056-0.06-0.091c-0.015-0.036-0.023-0.078-0.023-0.126
			c0-0.044,0.008-0.086,0.024-0.126c0.016-0.039,0.039-0.072,0.068-0.103c0.028-0.029,0.063-0.053,0.104-0.07
			c0.04-0.017,0.085-0.024,0.134-0.024c0.049,0,0.094,0.007,0.133,0.023c0.039,0.018,0.073,0.039,0.101,0.067
			c0.028,0.029,0.049,0.064,0.064,0.104c0.015,0.041,0.022,0.085,0.022,0.134c0,0.031-0.002,0.061-0.007,0.088
			s-0.013,0.055-0.023,0.08c-0.009,0.025-0.021,0.05-0.034,0.074c-0.013,0.024-0.028,0.049-0.045,0.073l-0.22,0.326
			c-0.008,0.011-0.019,0.021-0.034,0.028s-0.032,0.011-0.051,0.011h-0.152l0.3-0.388c0.007-0.01,0.015-0.019,0.022-0.028
			c0.006-0.009,0.012-0.019,0.019-0.027c-0.022,0.016-0.047,0.025-0.074,0.033C17.703,80.747,17.675,80.751,17.645,80.751
			 M17.87,80.451c0-0.027-0.004-0.051-0.012-0.072c-0.008-0.021-0.019-0.04-0.034-0.055c-0.015-0.015-0.032-0.026-0.052-0.034
			c-0.021-0.008-0.043-0.012-0.067-0.012s-0.047,0.005-0.067,0.013c-0.02,0.009-0.037,0.021-0.051,0.036
			c-0.014,0.015-0.025,0.033-0.032,0.054c-0.008,0.021-0.012,0.044-0.012,0.069c0,0.056,0.014,0.098,0.042,0.128
			c0.028,0.028,0.067,0.043,0.118,0.043c0.027,0,0.051-0.004,0.071-0.013c0.021-0.009,0.038-0.021,0.053-0.036
			c0.014-0.015,0.025-0.033,0.032-0.054C17.867,80.498,17.87,80.476,17.87,80.451"/>
		<path clip-path="url(#SVGID_10_)" fill="#231F20" d="M21.395,84.265c0-0.185-0.15-0.334-0.334-0.334h-1.426
			c-0.185,0-0.334,0.149-0.334,0.334v2.931c0,0.185,0.149,0.334,0.334,0.334h1.426c0.184,0,0.334-0.149,0.334-0.334V84.265z"/>
		<rect x="13.195" y="86.666" clip-path="url(#SVGID_10_)" fill="#BCBEC0" width="0.859" height="0.229"/>
		<rect x="19.918" y="85.315" clip-path="url(#SVGID_10_)" fill="#BCBEC0" width="0.859" height="0.229"/>
		<rect x="19.918" y="85.916" clip-path="url(#SVGID_10_)" fill="#BCBEC0" width="0.859" height="0.229"/>
		<polygon clip-path="url(#SVGID_10_)" fill="#BCBEC0" points="18.154,86.666 17.839,86.666 17.839,86.351 17.611,86.351 
			17.611,86.666 17.295,86.666 17.295,86.895 17.611,86.895 17.611,87.21 17.839,87.21 17.839,86.895 18.154,86.895 		"/>
		<path clip-path="url(#SVGID_10_)" fill="#BCBEC0" d="M20.457,80.37c0,0.035-0.006,0.066-0.018,0.094
			c-0.011,0.028-0.026,0.052-0.046,0.072c-0.019,0.02-0.042,0.034-0.068,0.045c-0.026,0.011-0.053,0.016-0.08,0.016
			c-0.031,0-0.059-0.005-0.085-0.016c-0.026-0.011-0.048-0.025-0.067-0.045c-0.019-0.021-0.033-0.044-0.044-0.072
			c-0.01-0.027-0.016-0.059-0.016-0.094s0.006-0.067,0.016-0.096c0.011-0.029,0.025-0.054,0.044-0.073
			c0.019-0.02,0.041-0.035,0.067-0.046c0.026-0.011,0.054-0.017,0.085-0.017c0.03,0,0.058,0.006,0.084,0.017
			s0.049,0.026,0.068,0.046s0.034,0.044,0.044,0.073C20.452,80.303,20.457,80.335,20.457,80.37 M20.762,80.173
			c0.005-0.006,0.011-0.012,0.019-0.017c0.008-0.005,0.018-0.008,0.032-0.008h0.113l-0.681,0.894
			c-0.005,0.007-0.012,0.013-0.019,0.017c-0.008,0.005-0.018,0.007-0.028,0.007h-0.117L20.762,80.173z M20.336,80.37
			c0-0.024-0.003-0.045-0.007-0.062c-0.005-0.017-0.011-0.029-0.019-0.04c-0.009-0.01-0.018-0.017-0.03-0.021
			c-0.011-0.005-0.023-0.007-0.035-0.007c-0.013,0-0.025,0.002-0.036,0.007c-0.011,0.005-0.021,0.012-0.028,0.021
			c-0.009,0.011-0.015,0.023-0.019,0.04c-0.005,0.017-0.007,0.037-0.007,0.062s0.002,0.044,0.007,0.06
			c0.004,0.016,0.01,0.028,0.019,0.038c0.007,0.01,0.017,0.017,0.028,0.021c0.011,0.004,0.023,0.006,0.036,0.006
			c0.012,0,0.024-0.002,0.035-0.006c0.012-0.005,0.021-0.012,0.03-0.021c0.008-0.01,0.014-0.022,0.019-0.038
			C20.333,80.414,20.336,80.395,20.336,80.37 M20.975,80.85c0,0.035-0.006,0.066-0.018,0.094c-0.012,0.028-0.027,0.052-0.046,0.072
			c-0.02,0.02-0.042,0.034-0.068,0.045c-0.026,0.011-0.053,0.017-0.081,0.017c-0.031,0-0.058-0.006-0.084-0.017
			c-0.026-0.011-0.049-0.025-0.067-0.045c-0.019-0.021-0.034-0.044-0.044-0.072c-0.011-0.027-0.016-0.059-0.016-0.094
			s0.005-0.067,0.016-0.096c0.01-0.029,0.025-0.054,0.044-0.073c0.018-0.02,0.041-0.035,0.067-0.046
			c0.026-0.011,0.053-0.017,0.084-0.017c0.03,0,0.059,0.006,0.085,0.017c0.026,0.011,0.048,0.026,0.068,0.046
			c0.018,0.02,0.033,0.044,0.043,0.073C20.969,80.782,20.975,80.814,20.975,80.85 M20.854,80.85c0-0.024-0.002-0.045-0.007-0.062
			c-0.005-0.017-0.012-0.029-0.02-0.04c-0.008-0.01-0.018-0.017-0.029-0.021c-0.011-0.005-0.023-0.007-0.036-0.007
			c-0.012,0-0.025,0.002-0.035,0.007c-0.012,0.005-0.021,0.012-0.029,0.021c-0.008,0.011-0.014,0.023-0.018,0.04
			c-0.005,0.017-0.007,0.037-0.007,0.062s0.002,0.044,0.007,0.06c0.004,0.017,0.01,0.029,0.018,0.039
			c0.008,0.01,0.017,0.017,0.029,0.021c0.01,0.005,0.023,0.007,0.035,0.007c0.013,0,0.025-0.002,0.036-0.007
			c0.011-0.004,0.021-0.011,0.029-0.021c0.008-0.01,0.015-0.022,0.02-0.039C20.852,80.894,20.854,80.874,20.854,80.85"/>
		<path clip-path="url(#SVGID_10_)" fill="#BCBEC0" d="M20.294,82.892v-0.168c0-0.012,0-0.023,0.002-0.035
			c0.001-0.012,0.004-0.022,0.008-0.033c-0.007,0.009-0.015,0.017-0.024,0.022c-0.009,0.007-0.019,0.014-0.029,0.021l-0.145,0.084
			l-0.054-0.091l0.146-0.085c0.011-0.007,0.021-0.012,0.032-0.017c0.011-0.004,0.022-0.007,0.034-0.009
			c-0.012-0.001-0.023-0.004-0.034-0.01c-0.011-0.005-0.021-0.01-0.032-0.017l-0.146-0.086l0.053-0.091l0.146,0.086
			c0.01,0.007,0.02,0.014,0.029,0.021c0.01,0.007,0.018,0.015,0.025,0.023c-0.005-0.011-0.008-0.021-0.009-0.033
			c-0.002-0.012-0.002-0.023-0.002-0.036V82.27h0.108v0.168c0,0.013-0.001,0.024-0.003,0.037c-0.001,0.012-0.004,0.022-0.008,0.033
			c0.007-0.009,0.015-0.017,0.024-0.023c0.009-0.007,0.019-0.014,0.03-0.021l0.145-0.085l0.054,0.092l-0.146,0.084
			c-0.011,0.007-0.022,0.012-0.033,0.017c-0.01,0.005-0.021,0.009-0.033,0.01c0.021,0.004,0.043,0.012,0.066,0.025l0.146,0.085
			l-0.053,0.092l-0.146-0.085c-0.011-0.007-0.021-0.014-0.03-0.021c-0.009-0.006-0.017-0.014-0.025-0.022
			c0.008,0.02,0.012,0.042,0.012,0.067v0.169H20.294z"/>
		<path clip-path="url(#SVGID_10_)" fill="#F8C59A" d="M34.185,81.854l0.241-5.293l2.603-7.157c0.022-0.061,0.089-0.092,0.149-0.07
			c0.393,0.139,0.62,0.55,0.528,0.956l-1.218,5.386l1.494-3.749l2.461-3.5c0.179-0.255,0.545-0.287,0.765-0.066l0.009,0.009
			c0.166,0.167,0.199,0.42,0.083,0.621c-0.551,0.956-2.073,3.59-2.073,3.59l-0.787,3.606l1.674-3.722l2.632-4.496
			c0.139-0.238,0.458-0.298,0.675-0.126l0.009,0.007c0.17,0.136,0.225,0.366,0.134,0.562c-0.525,1.128-2.203,4.742-2.203,4.742
			l-1.117,4.159l2.487-4.85l2.499-3.318c0.038-0.059,0.116-0.073,0.172-0.032c0.307,0.229,0.412,0.642,0.253,0.989L43.8,74.141
			l-0.666,3.105l1.626-2.438l0.577-0.652c0.258-0.292,0.74-0.097,0.722,0.293l-0.025,0.549c-0.039,0.845-0.279,1.669-0.7,2.402
			l-2.981,4.377l-3.505,3.49l-4.717,6.452L29.2,88.664L34.185,81.854z"/>
		<path clip-path="url(#SVGID_10_)" fill="#E2A97F" d="M43.199,67.832l0.009,0.007c0.17,0.136,0.226,0.366,0.135,0.562
			c-0.525,1.128-2.204,4.743-2.204,4.743l-1.117,4.158l0.472-0.922l0.867-3.227c0,0,1.679-3.614,2.204-4.742
			c0.091-0.195,0.035-0.426-0.135-0.562l-0.009-0.007c-0.111-0.088-0.248-0.115-0.375-0.089C43.1,67.77,43.152,67.795,43.199,67.832
			"/>
		<path clip-path="url(#SVGID_10_)" fill="#E2A97F" d="M45.433,70.091l-1.855,4.039l-0.666,3.105l0.332-0.496l0.556-2.599
			l1.855-4.039c0.16-0.348,0.054-0.76-0.253-0.99c-0.055-0.041-0.134-0.025-0.172,0.033l-0.001,0.001
			C45.496,69.381,45.583,69.764,45.433,70.091"/>
		<path clip-path="url(#SVGID_10_)" fill="#E2A97F" d="M40.986,68.351l0.008,0.008c0.166,0.167,0.2,0.42,0.084,0.622
			c-0.551,0.955-2.073,3.589-2.073,3.589l-0.788,3.606l0.436-0.969l0.574-2.627c0,0,1.522-2.634,2.073-3.59
			c0.116-0.201,0.082-0.454-0.084-0.621l-0.008-0.009c-0.121-0.121-0.287-0.164-0.442-0.137
			C40.846,68.247,40.922,68.286,40.986,68.351"/>
		<path clip-path="url(#SVGID_10_)" fill="#E2A97F" d="M37.484,70.279l-1.218,5.386l0.519-1.303l0.921-4.072
			c0.092-0.407-0.135-0.817-0.528-0.956c-0.046-0.017-0.095-0.001-0.127,0.033C37.384,69.535,37.568,69.908,37.484,70.279"/>
		<path clip-path="url(#SVGID_10_)" fill="#FFD8BB" d="M35.148,80.886c0,0-0.637-3.013,0.182-3.809
			c0.818-0.796,1.296-0.875,0.92,0.044c-0.375,0.919-0.803,0.764-0.662,1.692C35.73,79.742,35.504,80.936,35.148,80.886"/>
		<path clip-path="url(#SVGID_10_)" fill="#E2A97F" d="M45.551,74.026c0.164,0.054,0.295,0.204,0.286,0.411l-0.025,0.549
			c-0.039,0.845-0.279,1.669-0.699,2.403l-2.982,4.376l-2.94,2.928c-0.108-0.101-0.221-0.2-0.344-0.296
			c-0.727-0.565-4.658-2.631-4.658-2.631c0.379,0.137,0.778,0.364,1.169,0.668c0.592,0.46,2.341,1.82,3.068,2.384
			c0.123,0.096,0.235,0.194,0.343,0.295l-0.143,0.143l-4.653,6.364l0.159,0.099l4.716-6.452l0.299-0.298l0.164-0.163l3.042-3.029
			l2.982-4.377c0.42-0.733,0.66-1.558,0.699-2.402l0.025-0.549C46.073,74.151,45.797,73.969,45.551,74.026"/>
		<path clip-path="url(#SVGID_10_)" fill="#FFEADC" d="M37.059,69.543c-0.015-0.001-0.225,0.414-0.161,0.529
			c0.064,0.116,0.331,0.165,0.414,0.078s0.079-0.346,0.028-0.433C37.289,69.63,37.139,69.545,37.059,69.543"/>
		<path clip-path="url(#SVGID_10_)" fill="#FFEADC" d="M40.65,68.3c-0.014-0.004-0.316,0.35-0.28,0.477
			c0.036,0.127,0.283,0.238,0.384,0.173c0.102-0.065,0.157-0.317,0.128-0.414C40.854,68.438,40.727,68.321,40.65,68.3"/>
		<path clip-path="url(#SVGID_10_)" fill="#FFEADC" d="M42.999,67.881c-0.014-0.003-0.316,0.351-0.28,0.479
			c0.035,0.126,0.283,0.237,0.384,0.172c0.101-0.066,0.157-0.317,0.128-0.414C43.202,68.02,43.076,67.902,42.999,67.881"/>
		<path clip-path="url(#SVGID_10_)" fill="#FFEADC" d="M45.191,69.327c-0.014-0.004-0.316,0.351-0.28,0.478
			c0.035,0.126,0.283,0.238,0.384,0.173c0.101-0.066,0.157-0.317,0.128-0.414C45.395,69.466,45.269,69.348,45.191,69.327"/>
		<path clip-path="url(#SVGID_10_)" fill="#FFEADC" d="M45.355,74.394c-0.023-0.006-0.517,0.573-0.458,0.781
			c0.058,0.207,0.464,0.39,0.629,0.282s0.256-0.52,0.209-0.678C45.688,74.62,45.48,74.427,45.355,74.394"/>
		<path clip-path="url(#SVGID_10_)" fill="#F8C59A" d="M66.055,83.278l-0.241-5.293l-2.604-7.156
			c-0.021-0.061-0.089-0.092-0.149-0.071c-0.393,0.14-0.619,0.55-0.526,0.957l1.217,5.385l-1.494-3.748l-2.461-3.501
			c-0.178-0.255-0.545-0.286-0.765-0.065l-0.009,0.009c-0.166,0.166-0.2,0.42-0.084,0.621c0.552,0.955,2.073,3.589,2.073,3.589
			l0.787,3.607l-1.674-3.722l-2.632-4.496c-0.14-0.239-0.458-0.299-0.675-0.127l-0.009,0.007c-0.171,0.136-0.226,0.367-0.135,0.563
			c0.524,1.127,2.203,4.742,2.203,4.742l1.117,4.158l-2.486-4.85l-2.5-3.318c-0.037-0.059-0.116-0.073-0.172-0.031
			c-0.307,0.229-0.412,0.641-0.252,0.989l1.854,4.039l0.665,3.104l-1.626-2.438l-0.576-0.652c-0.259-0.292-0.74-0.097-0.722,0.292
			l0.024,0.549c0.039,0.846,0.279,1.669,0.699,2.403l2.982,4.377l3.505,3.489l4.716,6.452l4.932-3.055L66.055,83.278z"/>
		<path clip-path="url(#SVGID_10_)" fill="#E2A97F" d="M57.04,69.257l-0.008,0.007c-0.171,0.135-0.227,0.366-0.136,0.562
			c0.525,1.127,2.204,4.742,2.204,4.742l1.117,4.158l-0.473-0.921l-0.867-3.227c0,0-1.679-3.615-2.203-4.742
			c-0.091-0.195-0.036-0.427,0.135-0.563l0.009-0.007c0.11-0.088,0.248-0.114,0.375-0.088C57.14,69.194,57.087,69.219,57.04,69.257"
			/>
		<path clip-path="url(#SVGID_10_)" fill="#E2A97F" d="M54.807,71.516l1.854,4.039l0.667,3.104l-0.332-0.496l-0.556-2.598
			l-1.854-4.039c-0.16-0.349-0.055-0.761,0.252-0.99c0.056-0.042,0.135-0.026,0.172,0.032l0.001,0.002
			C54.743,70.805,54.656,71.188,54.807,71.516"/>
		<path clip-path="url(#SVGID_10_)" fill="#E2A97F" d="M59.253,69.774l-0.009,0.009c-0.166,0.166-0.199,0.42-0.083,0.621
			c0.551,0.955,2.073,3.589,2.073,3.589l0.787,3.607l-0.437-0.97l-0.573-2.628c0,0-1.521-2.633-2.073-3.588
			c-0.116-0.201-0.082-0.455,0.084-0.621l0.009-0.009c0.121-0.122,0.287-0.164,0.441-0.137
			C59.393,69.67,59.315,69.711,59.253,69.774"/>
		<path clip-path="url(#SVGID_10_)" fill="#E2A97F" d="M62.755,71.704l1.219,5.385l-0.52-1.302l-0.921-4.072
			c-0.091-0.407,0.135-0.817,0.527-0.956c0.047-0.017,0.097-0.002,0.127,0.033C62.855,70.959,62.671,71.332,62.755,71.704"/>
		<path clip-path="url(#SVGID_10_)" fill="#FFD8BB" d="M65.091,82.311c0,0,0.637-3.013-0.182-3.809
			c-0.819-0.796-1.298-0.875-0.921,0.044c0.376,0.919,0.804,0.764,0.662,1.691S64.734,82.36,65.091,82.311"/>
		<path clip-path="url(#SVGID_10_)" fill="#E2A97F" d="M54.688,75.451c-0.164,0.053-0.296,0.204-0.286,0.41l0.025,0.549
			c0.039,0.846,0.278,1.669,0.699,2.403l2.981,4.377l2.939,2.927c0.108-0.101,0.222-0.2,0.345-0.296
			c0.727-0.564,4.657-2.631,4.657-2.631c-0.379,0.138-0.777,0.365-1.168,0.668c-0.593,0.46-2.341,1.819-3.068,2.384
			c-0.123,0.096-0.235,0.195-0.344,0.295l0.144,0.144l4.652,6.364l-0.158,0.098l-4.716-6.452l-0.3-0.298l-0.164-0.163l-3.041-3.028
			l-2.982-4.377c-0.42-0.734-0.66-1.558-0.699-2.403l-0.024-0.549C54.168,75.576,54.442,75.393,54.688,75.451"/>
		<path clip-path="url(#SVGID_10_)" fill="#FFEADC" d="M63.181,70.967c0.015,0,0.226,0.414,0.161,0.529s-0.332,0.166-0.414,0.078
			c-0.083-0.086-0.079-0.345-0.028-0.433C62.951,71.055,63.101,70.97,63.181,70.967"/>
		<path clip-path="url(#SVGID_10_)" fill="#FFEADC" d="M59.589,69.724c0.015-0.004,0.316,0.351,0.28,0.478
			c-0.036,0.126-0.283,0.238-0.384,0.173c-0.102-0.066-0.157-0.317-0.128-0.415C59.386,69.862,59.513,69.744,59.589,69.724"/>
		<path clip-path="url(#SVGID_10_)" fill="#FFEADC" d="M57.24,69.306c0.015-0.004,0.316,0.35,0.28,0.477
			c-0.036,0.128-0.283,0.238-0.385,0.173c-0.101-0.065-0.156-0.317-0.128-0.414C57.037,69.444,57.164,69.327,57.24,69.306"/>
		<path clip-path="url(#SVGID_10_)" fill="#FFEADC" d="M55.048,70.752c0.014-0.004,0.316,0.35,0.28,0.477
			c-0.036,0.128-0.283,0.238-0.384,0.173c-0.102-0.065-0.157-0.317-0.129-0.414C54.845,70.891,54.971,70.773,55.048,70.752"/>
		<path clip-path="url(#SVGID_10_)" fill="#FFEADC" d="M54.884,75.817c0.023-0.006,0.518,0.573,0.459,0.781s-0.464,0.391-0.63,0.282
			c-0.165-0.107-0.256-0.519-0.209-0.678C54.551,76.045,54.759,75.852,54.884,75.817"/>
		<path clip-path="url(#SVGID_10_)" fill="#155073" d="M38.426,84.818c-0.727-0.563-2.476-1.924-3.068-2.384
			c-1.106-0.859-2.282-1.122-2.873-0.397c-0.591,0.725-0.381,1.482-0.381,1.482l-14.043,18.025l6.12,4.755l13.997-18.061
			c0,0,0.786,0.018,1.342-0.734C40.076,86.752,39.532,85.678,38.426,84.818"/>
		<path clip-path="url(#SVGID_10_)" fill="#155073" d="M38.426,84.818c-0.727-0.563-2.476-1.924-3.068-2.384
			c-1.106-0.859-2.282-1.122-2.873-0.397c-0.591,0.725-0.381,1.482-0.381,1.482l-14.043,18.025l6.12,4.755l13.997-18.061
			c0,0,0.786,0.018,1.342-0.734C40.076,86.752,39.532,85.678,38.426,84.818"/>
		<path clip-path="url(#SVGID_10_)" fill="#155073" d="M38.426,84.818c-0.727-0.563-2.476-1.924-3.068-2.384
			c-1.106-0.859-2.282-1.122-2.873-0.397c-0.591,0.725-0.381,1.482-0.381,1.482l-14.043,18.025l6.12,4.755l13.997-18.061
			c0,0,0.786,0.018,1.342-0.734C40.076,86.752,39.532,85.678,38.426,84.818"/>
		<path clip-path="url(#SVGID_10_)" fill="#093754" d="M39.52,87.504c0.556-0.752,0.012-1.826-1.094-2.686
			c-0.238-0.185-0.585-0.454-0.965-0.749c0.889,0.807,1.282,1.744,0.781,2.42c-0.556,0.753-1.342,0.736-1.342,0.736l-13.997,18.06
			l-4.832-3.754l-0.01,0.014l6.12,4.755l13.997-18.061C38.178,88.239,38.964,88.256,39.52,87.504"/>
		<path clip-path="url(#SVGID_10_)" fill="#155073" d="M64.714,83.855c-0.711,0.586-2.419,1.994-2.998,2.472
			c-1.081,0.891-1.594,1.98-1.017,2.716c0.578,0.735,1.363,0.696,1.363,0.696l14.514,17.648l5.979-4.931L67.998,84.846
			c0,0,0.188-0.762-0.424-1.47C66.962,82.669,65.794,82.964,64.714,83.855"/>
		<path clip-path="url(#SVGID_10_)" fill="#093754" d="M67.574,83.375c-0.612-0.707-1.78-0.411-2.86,0.48
			c-0.232,0.191-0.571,0.471-0.942,0.776c0.981-0.69,1.982-0.868,2.533-0.231c0.611,0.707,0.424,1.471,0.424,1.471l14.558,17.611
			l-4.721,3.892l0.011,0.014l5.979-4.931L67.998,84.846C67.998,84.846,68.186,84.083,67.574,83.375"/>
		<path clip-path="url(#SVGID_10_)" fill="#939598" d="M84.454,71.134c-0.17,0-0.339-0.021-0.505-0.064
			c-0.937-0.247-1.632-1.199-1.581-2.167c0.011-0.228,0.01-0.437-0.132-0.495c-0.117-0.048-0.256,0.048-0.399,0.16
			c-0.244,0.19-0.518,0.339-0.808,0.441c-0.227,0.531-0.594,1.081-1.188,1.422c-0.477,0.272-1.106,0.329-1.644,0.149
			c-0.442-0.149-0.776-0.441-0.939-0.824c-0.164-0.386-0.152-0.819-0.143-1.201c0.029-1.079,0.192-2.375,1.199-2.83l0.059,0.128
			c-0.935,0.424-1.087,1.669-1.115,2.705c-0.01,0.368-0.021,0.785,0.131,1.142c0.146,0.346,0.45,0.61,0.854,0.746
			c0.5,0.168,1.086,0.115,1.527-0.138c0.521-0.299,0.859-0.77,1.078-1.241c-0.445,0.126-0.92,0.148-1.375,0.055l-0.097-0.02
			l0.05-0.086c0.121-0.208,0.184-0.439,0.25-0.685c0.068-0.252,0.14-0.512,0.278-0.742c0.173-0.286,0.553-0.483,0.883-0.466
			c0.22,0.014,0.387,0.123,0.47,0.309c0.08,0.181,0.054,0.38,0.022,0.553c-0.041,0.232-0.111,0.53-0.229,0.845
			c0.231-0.094,0.451-0.219,0.648-0.374c0.135-0.104,0.339-0.264,0.542-0.179c0.246,0.102,0.229,0.422,0.219,0.634
			c-0.047,0.903,0.602,1.791,1.477,2.021c0.874,0.23,1.876-0.222,2.281-1.03l0.127,0.064C86.037,70.679,85.245,71.134,84.454,71.134
			 M79.596,68.999c0.443,0.074,0.901,0.036,1.326-0.104c0.142-0.347,0.223-0.682,0.268-0.936c0.027-0.151,0.051-0.326-0.013-0.47
			c-0.077-0.172-0.232-0.217-0.349-0.224c-0.277-0.018-0.607,0.157-0.752,0.397c-0.129,0.212-0.194,0.451-0.263,0.705
			C79.756,68.58,79.696,68.798,79.596,68.999"/>
	</g>
	<g clip-path="url(#SVGID_2_)">
		<text transform="matrix(1 0 0 1 58.1514 49.6152)"><tspan x="0" y="0" fill="#FFFFFF" font-family="'Lora-Regular'" font-size="1.5393">w</tspan><tspan x="1.117" y="0" fill="#FFFFFF" font-family="'Lora-Regular'" font-size="1.5393">orkshop</tspan></text>
	</g>
</g>
</svg>
