<?xml version="1.0" encoding="utf-8"?>
<!-- Generator: Adobe Illustrator 16.0.0, SVG Export Plug-In . SVG Version: 6.00 Build 0)  -->
<!DOCTYPE svg PUBLIC "-//W3C//DTD SVG 1.1//EN" "http://www.w3.org/Graphics/SVG/1.1/DTD/svg11.dtd">
<svg version="1.1" id="Layer_1" xmlns="http://www.w3.org/2000/svg" xmlns:xlink="http://www.w3.org/1999/xlink" x="0px" y="0px"
	 width="100px" height="100px" viewBox="0 0 100 100" enable-background="new 0 0 100 100" xml:space="preserve">
<g>
	<defs>
		<rect id="SVGID_1_" width="100" height="100"/>
	</defs>
	<clipPath id="SVGID_2_">
		<use xlink:href="#SVGID_1_"  overflow="visible"/>
	</clipPath>
	<g clip-path="url(#SVGID_2_)">
		<defs>
			<rect id="SVGID_3_" width="100" height="100"/>
		</defs>
		<clipPath id="SVGID_4_">
			<use xlink:href="#SVGID_3_"  overflow="visible"/>
		</clipPath>
		
			<radialGradient id="SVGID_5_" cx="4.882813e-004" cy="100" r="0.9997" gradientTransform="matrix(70.858 0 0 -70.858 50 7135.8003)" gradientUnits="userSpaceOnUse">
			<stop  offset="0" style="stop-color:#FFFFFF"/>
			<stop  offset="0.3978" style="stop-color:#FFFFFF"/>
			<stop  offset="0.6008" style="stop-color:#FBFBFB"/>
			<stop  offset="0.8056" style="stop-color:#EFEFEF"/>
			<stop  offset="1" style="stop-color:#DCDCDC"/>
		</radialGradient>
		<rect clip-path="url(#SVGID_4_)" fill="url(#SVGID_5_)" width="100" height="100"/>
	</g>
	<g clip-path="url(#SVGID_2_)">
		<defs>
			<rect id="SVGID_6_" width="100" height="100"/>
		</defs>
		<clipPath id="SVGID_7_">
			<use xlink:href="#SVGID_6_"  overflow="visible"/>
		</clipPath>
		<g opacity="0.3" clip-path="url(#SVGID_7_)">
			<g>
				<defs>
					<rect id="SVGID_8_" y="65.862" width="100" height="33.989"/>
				</defs>
				<clipPath id="SVGID_9_">
					<use xlink:href="#SVGID_8_"  overflow="visible"/>
				</clipPath>
				<g clip-path="url(#SVGID_9_)">
					<g>
						<defs>
							<rect id="SVGID_10_" y="65.862" width="100" height="33.989"/>
						</defs>
						<clipPath id="SVGID_11_">
							<use xlink:href="#SVGID_10_"  overflow="visible"/>
						</clipPath>
						<g clip-path="url(#SVGID_11_)">
							<defs>
								<rect id="SVGID_12_" x="36.612" y="78.987" width="9.871" height="1.444"/>
							</defs>
							<clipPath id="SVGID_13_">
								<use xlink:href="#SVGID_12_"  overflow="visible"/>
							</clipPath>
							
								<linearGradient id="SVGID_14_" gradientUnits="userSpaceOnUse" x1="0" y1="100" x2="1" y2="100" gradientTransform="matrix(0 33.9894 33.9894 0 -3357.4067 65.875)">
								<stop  offset="0" style="stop-color:#C8C8C8"/>
								<stop  offset="0.3024" style="stop-color:#DDDDDD"/>
								<stop  offset="0.7357" style="stop-color:#F6F6F6"/>
								<stop  offset="1" style="stop-color:#FFFFFF"/>
							</linearGradient>
							<rect x="36.612" y="78.987" clip-path="url(#SVGID_13_)" fill="url(#SVGID_14_)" width="9.871" height="1.444"/>
						</g>
						<g clip-path="url(#SVGID_11_)">
							<defs>
								<path id="SVGID_15_" d="M46.482,84.545V84.47h-9.87v0.075c0,0.164,0.01,0.326,0.027,0.485h-0.613v0.599h0.723
									c0.486,1.953,2.246,3.402,4.35,3.402h0.897c2.103,0,3.863-1.449,4.349-3.402h0.723V85.03h-0.613
									C46.472,84.871,46.482,84.709,46.482,84.545"/>
							</defs>
							<clipPath id="SVGID_16_">
								<use xlink:href="#SVGID_15_"  overflow="visible"/>
							</clipPath>
							
								<linearGradient id="SVGID_17_" gradientUnits="userSpaceOnUse" x1="0" y1="100.001" x2="1" y2="100.001" gradientTransform="matrix(0 33.9893 33.9893 0 -3357.396 65.875)">
								<stop  offset="0" style="stop-color:#C8C8C8"/>
								<stop  offset="0.3024" style="stop-color:#DDDDDD"/>
								<stop  offset="0.7357" style="stop-color:#F6F6F6"/>
								<stop  offset="1" style="stop-color:#FFFFFF"/>
							</linearGradient>
							<rect x="36.026" y="84.47" clip-path="url(#SVGID_16_)" fill="url(#SVGID_17_)" width="11.042" height="4.562"/>
						</g>
						<g clip-path="url(#SVGID_11_)">
							<defs>
								<rect id="SVGID_18_" x="36.611" y="76.768" width="9.871" height="1.919"/>
							</defs>
							<clipPath id="SVGID_19_">
								<use xlink:href="#SVGID_18_"  overflow="visible"/>
							</clipPath>
							
								<linearGradient id="SVGID_20_" gradientUnits="userSpaceOnUse" x1="0" y1="100" x2="1" y2="100" gradientTransform="matrix(0 33.9891 33.9891 0 -3357.3743 65.875)">
								<stop  offset="0" style="stop-color:#C8C8C8"/>
								<stop  offset="0.3024" style="stop-color:#DDDDDD"/>
								<stop  offset="0.7357" style="stop-color:#F6F6F6"/>
								<stop  offset="1" style="stop-color:#FFFFFF"/>
							</linearGradient>
							<rect x="36.611" y="76.768" clip-path="url(#SVGID_19_)" fill="url(#SVGID_20_)" width="9.871" height="1.919"/>
						</g>
						<g clip-path="url(#SVGID_11_)">
							<defs>
								<polygon id="SVGID_21_" points="36.612,84.171 46.482,84.171 46.482,84.021 48.688,84.021 51.813,79.534 50.355,79.534 
									48.064,82.825 46.482,82.825 46.482,80.731 36.612,80.731 								"/>
							</defs>
							<clipPath id="SVGID_22_">
								<use xlink:href="#SVGID_21_"  overflow="visible"/>
							</clipPath>
							
								<linearGradient id="SVGID_23_" gradientUnits="userSpaceOnUse" x1="0" y1="99.999" x2="1" y2="99.999" gradientTransform="matrix(0 33.9894 33.9894 0 -3354.718 65.875)">
								<stop  offset="0" style="stop-color:#C8C8C8"/>
								<stop  offset="0.3024" style="stop-color:#DDDDDD"/>
								<stop  offset="0.7357" style="stop-color:#F6F6F6"/>
								<stop  offset="1" style="stop-color:#FFFFFF"/>
							</linearGradient>
							<rect x="36.612" y="79.534" clip-path="url(#SVGID_22_)" fill="url(#SVGID_23_)" width="15.202" height="4.637"/>
						</g>
						<g clip-path="url(#SVGID_11_)">
							<defs>
								<path id="SVGID_24_" d="M2.389,80.975l3.7,3.7v-3.7l3.702,3.7v-3.7l3.701,3.7v-3.7h1.34v-7.681h0.333v18.915h2.875v2.139
									h-2.329c-0.302-0.581-0.908-0.979-1.608-0.979c-0.701,0-1.307,0.397-1.609,0.979h-1.495v-5.791h3.833v-7.249h-1.007v4.171
									l-0.569-0.568l-3.132-3.131v3.699L9.555,84.91l-1.514-1.514v5.16h1.292v7.458h3.161c0.302,0.581,0.908,0.979,1.609,0.979
									c0.7,0,1.306-0.397,1.608-0.979h2.329v1.499l0.63,0.5h-0.005v1.838h0.667v-1.313l1.655,1.313h0.678v-7.643h2.221V78.058
									H23.69l-0.096-0.172l-0.686-1.244h-6.993v-1h6.44l-1.295-2.348h0.38l2.446,4.431h10.735l0.459-0.921v11.13h-2.447
									c0.008-0.344,0.015-0.688,0.024-1.031c0.013-0.647,0.03-1.294,0.043-1.94c0.011-0.44,0.022-0.881,0.032-1.321h0.14v-0.667
									h-0.124c0.011-0.44,0.022-0.881,0.032-1.321l-0.054,1.321h-0.354V81.35h0.5v-0.667h-0.5v-2.625h-5.667v2.625h-0.333v-2.625
									h-1.08c0.027,1.198,0.055,2.396,0.082,3.595c0.026,1.104,0.053,2.207,0.08,3.31c0.013,0.646,0.029,1.293,0.044,1.94
									c0.025,1.103,0.049,2.206,0.076,3.309c0.023,0.927,0.044,1.851,0.067,2.777c0.024,1.104,0.049,2.206,0.076,3.31
									c0.013,0.614,0.028,1.228,0.042,1.842h-0.476v0.666h0.491c0.007,0.277,0.013,0.555,0.019,0.831h1.574
									c0.007-0.276,0.012-0.554,0.019-0.831h0.493V98.14h-0.478c0.015-0.614,0.03-1.228,0.043-1.842
									c0.027-1.104,0.053-2.206,0.077-3.31c0.022-0.927,0.043-1.851,0.066-2.777c0.027-1.103,0.051-2.206,0.077-3.309
									c0.01-0.517,0.023-1.032,0.034-1.549c-0.722-0.259-1.253-0.92-1.319-1.713h0.339c0.04,0.404,0.224,0.764,0.502,1.029
									c0.015,0.016,0.03,0.031,0.046,0.045c0.024,0.021,0.049,0.043,0.074,0.063c0.049,0.039,0.099,0.076,0.152,0.109
									c0.002,0.002,0.005,0.003,0.007,0.005c0.063,0.039,0.129,0.073,0.198,0.104c0.003,0.002,0.006,0.004,0.009,0.005
									c0.204,0.09,0.428,0.141,0.666,0.141h2.333c0.056,0,0.111-0.003,0.165-0.008c0.022-0.002,0.043-0.007,0.064-0.01
									c0.032-0.004,0.064-0.008,0.095-0.015c0.029-0.005,0.056-0.013,0.084-0.021c0.023-0.005,0.046-0.01,0.068-0.017
									c0.033-0.011,0.067-0.022,0.099-0.034c0.015-0.006,0.03-0.011,0.044-0.016c0.039-0.017,0.077-0.034,0.115-0.053
									c0.006-0.003,0.013-0.006,0.019-0.01c0.495-0.251,0.848-0.741,0.905-1.318h0.334c-0.085,1.024-0.945,1.833-1.992,1.833
									h-0.247c0.012,0.476,0.023,0.952,0.032,1.429c0.027,1.103,0.053,2.206,0.08,3.309c0.02,0.927,0.04,1.851,0.063,2.777
									c0.027,1.104,0.05,2.206,0.081,3.31c0.013,0.614,0.028,1.228,0.042,1.842h-0.48v0.666h0.495
									c0.006,0.277,0.012,0.555,0.019,0.831h1.57c0.007-0.276,0.013-0.554,0.019-0.831h0.493V98.14h-0.477
									c0.014-0.614,0.029-1.228,0.042-1.842c0.026-1.104,0.053-2.206,0.076-3.31c0.024-0.927,0.044-1.851,0.067-2.777
									c0.013-0.537,0.025-1.073,0.038-1.61h3.128V75.469l0.594-1.193h0.272v2.193h9.87v-2.193h1.77v7.756l1.739-2.497h-0.718
									v-5.259h0.3v4.96h3.271l2.562,2.562v-2.562l2.561,2.562v-2.562l2.562,2.562v-7.521h0.299v8.243l-0.511-0.511l-2.05-2.05
									v2.561l-0.512-0.511l-2.05-2.05v2.561l-0.511-0.511l-2.43-2.431v4.893h9.82V74.275h0.299v8.176h1.074v-3.216h0.141
									c-0.331,0-0.599-0.268-0.599-0.598v-4.362h1.515v4.362c0,0.33-0.268,0.598-0.599,0.598h0.141v3.216h1.859v-1.512
									c0.181,0.142,0.382,0.257,0.599,0.342v1.768h-4.131v1.72h-3.664v2.916h-5.134v-2.916h-1.621v-5.234h-0.286l-3.244,4.658
									l-0.089,0.128h-0.593v9.994h0.672v1.222h2.045v-1.222h3.116v-4.636h5.134v1.296h1.218c0.053,2.959,0.107,5.918,0.161,8.877
									h0.793c0.055-2.959,0.107-5.918,0.162-8.877h0.844v7.927h1.346v-7.927h1.533l2.99-2.99v-6.538h0.085v14.288h17.36
									c0.078,1.451,0.121,2.923,0.145,4.117h3.767c0.042-2.177,0.149-5.277,0.421-7.484l-5.041-2.155
									c0.338,0.909,0.547,2.853,0.675,4.929h-9.452v-2.032h1.387v-0.727c0.952-0.213,1.686-0.995,1.829-1.972h0.746v-0.594h-0.718
									v-2.428h3.912v1.833l7.527,3.219v-3.219h1.387v-3.855h1.822v-5.409l0.604-0.442v-6.221h0.298v4.884h1.534l1.5-4.884H100
									v-7.432H0v7.432h2.389V80.975z M8.971,86.32h5.417v1H8.971V86.32z M26.705,82.974h-0.333V81.35h0.333V82.974z
									 M50.071,93.518h-0.897v-2.393h0.897V93.518z M50.071,90.552h-0.897v-2.394h0.897V90.552z M50.071,87.511h-0.897v-2.393
									h0.897V87.511z M51.617,93.518H50.72v-2.393h0.897V93.518z M51.617,90.552H50.72v-2.394h0.897V90.552z M51.617,87.511H50.72
									v-2.393h0.897V87.511z M53.162,93.518h-0.897v-2.393h0.897V93.518z M53.162,90.552h-0.897v-2.394h0.897V90.552z
									 M53.162,87.511h-0.897v-2.393h0.897V87.511z M61.967,90.027h-1.943v-1.943h1.943V90.027z M61.967,87.062h-1.943v-1.942
									h1.943V87.062z M65.014,90.027H63.07v-1.943h1.943V90.027z M65.014,87.062H63.07v-1.942h1.943V87.062z M84.94,88.578h-0.893
									V86.2h0.893V88.578z M84.94,85.457h-0.893V83.08h0.893V85.457z M86.612,88.578H85.72V86.2h0.893V88.578z M86.612,85.457
									H85.72V83.08h0.893V85.457z M88.283,88.578h-0.892V86.2h0.892V88.578z M88.283,85.457h-0.892V83.08h0.892V85.457z
									 M89.955,88.578h-0.892V86.2h0.892V88.578z M89.955,85.457h-0.892V83.08h0.892V85.457z M91.626,88.578h-0.891V86.2h0.891
									V88.578z M91.626,85.457h-0.891V83.08h0.891V85.457z M93.623,79.422h-0.892v-2.377h0.892V79.422z M91.766,74.389h1.933
									v1.933h-1.933V74.389z M91.779,79.422h-0.892v-2.377h0.892V79.422z M89.006,74.389h1.933v1.933h-1.933V74.389z
									 M89.937,79.422h-0.892v-2.377h0.892V79.422z M86.246,74.389h1.932v1.933h-1.932V74.389z M88.094,79.422h-0.893v-2.377
									h0.893V79.422z M83.486,74.389h1.932v1.933h-1.932V74.389z M84.406,79.422h-0.892v-2.377h0.892V79.422z M80.727,74.389
									h1.933v1.933h-1.933V74.389z M82.563,79.422h-0.893v-2.377h0.893V79.422z M77.967,73.294h1.933v3.026h-1.933V73.294z
									 M80.721,79.422h-0.893v-2.377h0.893V79.422z M78.877,79.422h-0.892v-2.377h0.892V79.422z M75.209,73.294h0.595v3.62h0.843
									v-3.62h0.296v6.221l4.436,3.269l4.436-3.269l4.436,3.269l3.121-2.28v4.117h-1.075v-2.964l-1.87,1.367l-0.177,0.128
									l-0.175-0.129l-4.26-3.139l-2.433,1.793v3.533h-3.912v-1.833h0.718v-0.594h-0.718v-1.038l-2.702-1.992l-0.12-0.088v-2.156
									h-1.438V73.294z M71.792,73.294h0.595v5.589h-0.595V73.294z M68.944,81.446h0.47c1.174,0,2.146-0.851,2.34-1.969h0.633
									v3.306h-0.595v0.594h0.595v2.626h-3.442V81.446z M68.944,86.597h3.441v0.719h-3.441V86.597z M68.944,87.909h3.442v1.907
									h-0.595v0.594h0.623c0.143,0.977,0.877,1.759,1.829,1.972v0.727h1.386v2.032h-6.686V87.909z M54.757,78.282h-1.346v-2.991
									h1.346V78.282z M57.081,78.282h-1.346v-2.991h1.346V78.282z M59.406,78.282h-1.348v-2.991h1.348V78.282z M61.823,83.722
									h-8.3v-0.896h8.3V83.722z M36.83,73.294h28.672v0.084H36.788L36.83,73.294z M27.125,75.885h6.969v0.999h-6.969V75.885z
									 M24.539,73.294h1.667v3.59h-1.667V73.294z M17.13,91.217h-1V88.55h1V91.217z M17.13,87.658h-1v-2.667h1V87.658z
									 M17.13,84.099h-1v-2.666h1V84.099z M19.06,91.217h-1V88.55h1V91.217z M19.06,87.658h-1v-2.667h1V87.658z M19.06,84.099h-1
									v-2.666h1V84.099z M20.603,97.133h-1.5v-3.334h1.5V97.133z M20.991,91.217h-1V88.55h1V91.217z M20.991,87.658h-1v-2.667h1
									V87.658z M20.991,84.099h-1v-2.666h1V84.099z M22.921,91.217h-1V88.55h1V91.217z M22.921,87.658h-1v-2.667h1V87.658z
									 M22.921,84.099h-1v-2.666h1V84.099z M15.915,77.453h7.007v1h-7.007V77.453z M15.915,79.308h7.007v1h-7.007V79.308z
									 M12.291,77.642h2.166v2.165h-2.166V77.642z M9.371,77.642h2.167v2.165H9.371V77.642z M6.452,77.642h2.167v2.165H6.452
									V77.642z M3.534,77.642h2.167v2.165H3.534V77.642z"/>
							</defs>
							<clipPath id="SVGID_25_">
								<use xlink:href="#SVGID_24_"  overflow="visible"/>
							</clipPath>
							
								<linearGradient id="SVGID_26_" gradientUnits="userSpaceOnUse" x1="-4.882813e-004" y1="100" x2="0.999" y2="100" gradientTransform="matrix(0 33.9894 33.9894 0 -3348.9375 65.875)">
								<stop  offset="0" style="stop-color:#C8C8C8"/>
								<stop  offset="0.3024" style="stop-color:#DDDDDD"/>
								<stop  offset="0.7357" style="stop-color:#F6F6F6"/>
								<stop  offset="1" style="stop-color:#FFFFFF"/>
							</linearGradient>
							<rect y="65.862" clip-path="url(#SVGID_25_)" fill="url(#SVGID_26_)" width="100" height="33.989"/>
						</g>
					</g>
				</g>
			</g>
		</g>
		<path clip-path="url(#SVGID_7_)" fill="#EBEBEB" d="M34.967,65.771H0.222v0.869h1.11v8.541h2.437v0.893L5,76.922v2.385h0.724
			v-1.886l2.733,1.886l4.67-3.221l-0.075,0.051v9.184h1.864v0.452c0,0.185,0.015,0.365,0.037,0.543h-0.61v0.579h0.725
			c0.032,0.123,0.07,0.243,0.114,0.362h-0.839v0.289h0.954c0.679,1.514,2.196,2.569,3.962,2.569v0.001h0.097
			c1.766,0,3.283-1.057,3.962-2.57h0.954v-0.289h-0.839c0.043-0.119,0.081-0.239,0.114-0.362h0.725v-0.579h-0.611
			c0.023-0.178,0.038-0.358,0.038-0.543v-1.436v-1.183v-1.326h0.573v-0.579h-0.573v-0.525h0.573v-0.289h-0.573v-7.474h1.158v3.782
			H24.26v0.579h0.597v1.303H24.26v0.289h0.597v0.488H24.26v0.579h0.597v4.271H24.26v0.289h0.597v0.489H24.26v0.578h0.597v4.361
			H24.26v0.29h0.597v0.488H24.26v0.579h0.597v0.283c0,0.96,0.778,1.737,1.737,1.737h-0.145v2.585
			c-0.168,0.06-0.289,0.219-0.289,0.407c0,0.24,0.195,0.434,0.434,0.434c0.24,0,0.434-0.193,0.434-0.434
			c0-0.188-0.121-0.348-0.289-0.407v-2.585h0.193c0.96,0,1.738-0.777,1.738-1.737v-0.283h0.597v-0.579H28.67v-0.488h0.597v-0.29
			H28.67v-2.389h2.581V72.961h0.507l1.93-2.533V66.64h1.279V65.771z M3.769,74.602H1.911V66.64h0.495v6.973h1.363V74.602z
			 M2.985,66.64h0.784v6.395H2.985V66.64z M13.631,84.741v-8.308l1.285,0.886v3.115h-0.573v0.289h0.573v0.525h-0.573v0.579h0.573
			v2.913H13.631z M30.672,87.003H28.67v-1.394h0.597v-0.578H28.67v-0.489h0.597v-0.289H28.67v-4.271h0.597v-0.579H28.67v-0.488
			h0.597v-0.289H28.67v-1.303h0.597v-0.579H28.67v-3.782h2.002V87.003z"/>
		<path clip-path="url(#SVGID_7_)" fill="#EBEBEB" d="M67.596,65.771H32.852v0.869h1.664v6.635l1.907,1.737v2.485h1.496
			c0.197,0.755,0.356,1.751,0.489,2.889c0.087,0.755,0.162,1.575,0.226,2.426c0.046,0.576,0.084,1.167,0.119,1.767
			c0.046,0.805,0.086,1.621,0.118,2.426c0.026,0.698,0.049,1.385,0.07,2.051c0.023,0.854,0.04,1.67,0.054,2.423
			c0.018,1.016,0.026,1.908,0.03,2.607h-0.768v0.579h0.77c0.001,0.228,0.001,0.423,0.001,0.578h3.089h3.089
			c0-0.155,0-0.351,0.001-0.578h0.771v-0.579h-0.769c0.004-0.699,0.012-1.592,0.029-2.607c0.015-0.753,0.032-1.569,0.055-2.423
			c0.02-0.666,0.044-1.353,0.07-2.051c0.031-0.805,0.072-1.621,0.118-2.426c0.035-0.6,0.073-1.19,0.119-1.767
			c0.037-0.487,0.078-0.963,0.122-1.425v0.721h3.103v0.577h-0.567v0.579h0.567v3.221h-0.567v0.579h0.588
			c0.135,0.987,0.981,1.749,2.005,1.749h1.811h1.81c1.024,0,1.869-0.761,2.005-1.749h0.589v-0.579h-0.567v-1.483h2.167l0.043,1.485
			c0.029,0.987,0.058,1.978,0.087,2.965c0.015,0.559,0.033,1.12,0.046,1.679c0.029,0.99,0.059,1.978,0.087,2.968
			c0.012,0.435,0.026,0.866,0.038,1.301h1.242c0.012-0.435,0.026-0.866,0.037-1.301c0.029-0.99,0.059-1.978,0.088-2.968
			c0.014-0.559,0.031-1.12,0.046-1.679c0.029-0.987,0.058-1.978,0.087-2.965l0.043-1.485h1.395V76.93h3.232v-4.692l0.725-0.724
			V66.64h1.736V65.771z M45.796,80.66c0.01-0.092,0.02-0.186,0.03-0.274c0.133-1.138,0.293-2.134,0.489-2.889h2.51v0.808h-0.567
			v0.579h0.567v1.776H45.796z M64.556,76.351h-2.653v-1.942h1.062l1.592-1.592V76.351z"/>
		<path clip-path="url(#SVGID_7_)" fill="#EBEBEB" d="M100,65.792H65.256v0.869h1.314v9.037l3.837,3.799v-9.519h0.47v9.519h1.158
			v1.267h2.679v-1.267h1.279v1.267h1.049v3.148h-3.378V80.8h-0.579v3.691h12.927v-0.227c0.003,0.367,0,0.708-0.009,1.022
			c-0.013,0.474-0.036,0.887-0.064,1.231h-0.777v0.579h0.723c-0.05,0.449-0.096,0.688-0.096,0.688h3.089h3.088
			c0,0-0.046-0.238-0.096-0.688h0.724v-0.579h-0.778c-0.027-0.345-0.052-0.758-0.064-1.231h0.001
			c-0.017-0.621-0.015-1.346,0.022-2.171c0.03-0.663,0.085-1.389,0.171-2.171h0.002c0.007-0.062,0.012-0.119,0.019-0.182
			c0.021-0.186,0.044-0.368,0.068-0.547c0.002-0.014,0.004-0.027,0.005-0.04c0.074-0.548,0.157-1.063,0.245-1.548h-0.001
			c0.136-0.742,0.284-1.409,0.433-1.99c0.058-0.225,0.114-0.437,0.17-0.636c0.002-0.006,0.003-0.012,0.005-0.018
			c0.018-0.062,0.034-0.119,0.051-0.178c0.086,0.557,0.172,1.158,0.257,1.783h-0.352v0.579h0.428c0.06,0.457,0.117,0.92,0.173,1.382
			H92.13c-0.057,0.371-0.111,0.755-0.157,1.158h1.607c0.057,0.512,0.108,1.011,0.154,1.483h-0.383v0.579h0.438
			c0.068,0.759,0.119,1.428,0.142,1.936c0.033,0.743,0.045,1.614,0.047,2.462h-0.627v0.579h0.627
			c-0.002,0.748-0.012,1.451-0.021,2.003h-0.605v0.578h0.594c-0.009,0.354-0.014,0.567-0.014,0.567h0.838h0.84
			c0,0-0.008-0.213-0.015-0.567h0.592v-0.578h-0.604c-0.01-0.552-0.02-1.255-0.022-2.003h0.626V87.17H95.56
			c0.002-0.848,0.017-1.719,0.05-2.462c0.022-0.508,0.072-1.177,0.142-1.936h0.436v-0.579h-0.381
			c0.025-0.261,0.053-0.529,0.081-0.804c0.494-0.079,0.904-0.335,1.126-0.68h1.769v-8.776h0.29v-5.272H100V65.792z M81.578,83.912
			V80.8h-0.579v3.112h-3.378v-3.148h1.05v-1.267h1.278v1.267h2.679v-1.267h1.496v-5.683c0,0,0.002,0.005,0.004,0.011
			c0.001,0.001,0.001,0.003,0.002,0.004c0.003,0.007,0.007,0.017,0.013,0.028c0.001,0.002,0.001,0.006,0.002,0.008
			c0.007,0.013,0.014,0.03,0.022,0.05c0.001,0.002,0.001,0.004,0.002,0.006c0.028,0.069,0.07,0.171,0.121,0.305
			c0.001,0.002,0.001,0.004,0.002,0.006c0.068,0.178,0.153,0.413,0.249,0.701c0.003,0.008,0.006,0.017,0.009,0.025
			c0.021,0.064,0.044,0.132,0.065,0.202c0.003,0.008,0.006,0.016,0.008,0.024c0.05,0.154,0.102,0.321,0.154,0.5
			c0.006,0.02,0.012,0.04,0.018,0.061c0.019,0.065,0.038,0.134,0.057,0.203c0.011,0.031,0.02,0.064,0.029,0.098
			c0.016,0.059,0.032,0.118,0.049,0.179c0.011,0.041,0.021,0.08,0.032,0.121c0.015,0.058,0.031,0.117,0.047,0.177
			c0.157,0.609,0.317,1.313,0.462,2.106H85.47c0.087,0.473,0.168,0.977,0.24,1.51l0.015,0.108c0.021,0.17,0.043,0.341,0.063,0.517
			c0.008,0.063,0.013,0.12,0.02,0.182h0.001c0.085,0.782,0.141,1.508,0.172,2.171h-0.002c0.014,0.278,0.021,0.541,0.027,0.796
			H81.578z M97.623,79.552h-0.61c-0.178-0.276-0.477-0.495-0.844-0.612c0.032-0.258,0.064-0.515,0.098-0.77h0.428v-0.579h-0.351
			c0.203-1.507,0.418-2.886,0.604-3.776h0.023v-1.881h0.651V79.552z"/>
		<polygon clip-path="url(#SVGID_7_)" fill="#DCDCDC" points="42.647,66.215 42.647,68.725 40.199,68.725 40.199,66.215 
			39.62,66.215 39.62,69.304 42.647,69.304 42.647,72.392 44.674,74.419 62.964,74.419 65.859,71.523 65.859,66.215 		"/>
		<polygon clip-path="url(#SVGID_7_)" fill="#DCDCDC" points="77.989,66.215 77.989,68.664 76.451,68.664 76.451,66.215 
			68.308,66.215 68.308,69.967 76.451,69.967 76.451,69.243 78.568,69.243 78.568,66.215 		"/>
		<path clip-path="url(#SVGID_7_)" fill="#DCDCDC" d="M22.48,66.215v6.756h9.278l1.93-2.532v-4.224H22.48z M24.398,71.668H23.24
			v-3.765h1.158V71.668z M26.25,71.668h-1.158v-3.765h1.158V71.668z M28.103,71.668h-1.158v-3.765h1.158V71.668z M29.954,71.668
			h-1.158v-3.765h1.158V71.668z M31.806,71.668h-1.158v-3.765h1.158V71.668z"/>
		<rect x="68.565" y="51.417" clip-path="url(#SVGID_7_)" fill="#C8C8C8" width="1.271" height="7.278"/>
		<rect x="35.117" y="58.247" clip-path="url(#SVGID_7_)" fill="#C8C8C8" width="35.891" height="0.896"/>
		<rect x="62.396" y="33.621" clip-path="url(#SVGID_7_)" fill="#C8C8C8" width="1.346" height="7.926"/>
		<path clip-path="url(#SVGID_7_)" fill="#C8C8C8" d="M61.553,41.547h-1.116c0.06-3.328,0.12-6.655,0.181-9.982h0.754
			C61.433,34.893,61.492,38.219,61.553,41.547"/>
		<rect x="48.925" y="36.986" clip-path="url(#SVGID_7_)" fill="#C8C8C8" width="2.044" height="1.222"/>
		<rect x="54.085" y="42.843" clip-path="url(#SVGID_7_)" fill="#C8C8C8" width="5.134" height="1.994"/>
		<rect x="36.612" y="52.091" clip-path="url(#SVGID_7_)" fill="#C8C8C8" width="9.871" height="1.445"/>
		<rect x="36.612" y="56.052" clip-path="url(#SVGID_7_)" fill="#C8C8C8" width="9.871" height="2.644"/>
		<path clip-path="url(#SVGID_7_)" fill="#C8C8C8" d="M46.482,47.978c0-2.478-2.009-4.486-4.487-4.486h-0.897
			c-2.478,0-4.487,2.008-4.487,4.486v0.075h9.871V47.978z"/>
		<rect x="36.611" y="53.835" clip-path="url(#SVGID_7_)" fill="#C8C8C8" width="9.871" height="1.919"/>
		<rect x="36.611" y="48.352" clip-path="url(#SVGID_7_)" fill="#C8C8C8" width="9.871" height="3.439"/>
		<rect x="36.026" y="46.893" clip-path="url(#SVGID_7_)" fill="#C8C8C8" width="11.042" height="0.599"/>
		<path clip-path="url(#SVGID_7_)" fill="#C8C8C8" d="M66.415,50.071h-1.859v3.216h-0.141c0.331,0,0.599,0.268,0.599,0.598v4.811
			h0.943v-4.811c0-0.33,0.269-0.598,0.599-0.598h-0.141V50.071z"/>
		<path clip-path="url(#SVGID_7_)" fill="#C8C8C8" d="M63.499,58.695v-4.811c0-0.33,0.268-0.598,0.599-0.598h-0.141v-3.216h-1.074
			v8.624H63.499z"/>
		<path clip-path="url(#SVGID_7_)" fill="#C8C8C8" d="M65.275,41.547h-6.057v6.206h3.365h0.299v0.3v1.42h4.131v3.814h-0.14
			c0.33,0,0.598,0.268,0.598,0.598v4.811h0.794V44.538L65.275,41.547z M61.967,47.404h-1.943V45.46h1.943V47.404z M61.967,44.438
			h-1.943v-1.944h1.943V44.438z M65.014,47.404H63.07V45.46h1.943V47.404z M65.014,44.438H63.07v-1.944h1.943V44.438z"/>
		<path clip-path="url(#SVGID_7_)" fill="#C8C8C8" d="M52.764,48.053v4.891l2.43-2.431l0.511-0.51v0.722v1.839l2.05-2.051
			l0.512-0.51v0.722v1.839l2.05-2.051l0.511-0.51v0.722v2.562v5.408h1.758V48.053H52.764z M61.823,49.697h-8.3V48.8h8.3V49.697z"/>
		<path clip-path="url(#SVGID_7_)" fill="#C8C8C8" d="M57.966,53.287v-2.562l-2.561,2.562v-2.562l-2.562,2.562h-3.271v5.408h10.954
			v-5.408v-2.562L57.966,53.287z M54.757,57.231h-1.346V54.24h1.346V57.231z M57.081,57.231h-1.346V54.24h1.346V57.231z
			 M59.406,57.231h-1.348V54.24h1.348V57.231z"/>
		<polygon clip-path="url(#SVGID_7_)" fill="#C8C8C8" points="49.273,53.287 49.273,52.987 49.572,52.987 49.99,52.987 
			48.252,50.491 48.252,58.695 49.273,58.695 		"/>
		<polygon clip-path="url(#SVGID_7_)" fill="#C8C8C8" points="51.813,52.987 48.688,48.501 46.482,48.501 46.482,49.697 
			48.063,49.697 50.355,52.987 		"/>
		<polygon clip-path="url(#SVGID_7_)" fill="#C8C8C8" points="52.386,53.287 52.464,53.398 52.464,53.287 		"/>
		<path clip-path="url(#SVGID_7_)" fill="#C8C8C8" d="M52.464,52.987v-4.934v-0.3h0.3h1.321v-9.545h-5.833v9.994h0.436h0.157
			l0.089,0.128l3.244,4.657H52.464z M52.265,39.005h0.897v2.393h-0.897V39.005z M52.265,41.971h0.897v2.393h-0.897V41.971z
			 M52.265,45.012h0.897v2.393h-0.897V45.012z M50.071,47.404h-0.897v-2.393h0.897V47.404z M50.071,44.364h-0.897v-2.393h0.897
			V44.364z M50.071,41.397h-0.897v-2.393h0.897V41.397z M51.617,47.404H50.72v-2.393h0.897V47.404z M51.617,44.364H50.72v-2.393
			h0.897V44.364z M50.72,39.005h0.897v2.393H50.72V39.005z"/>
		<rect x="63.52" y="59.545" clip-path="url(#SVGID_7_)" fill="#C8C8C8" width="35.657" height="0.892"/>
		<path clip-path="url(#SVGID_7_)" fill="#C8C8C8" d="M71.792,59.99h-6.29v-6.537c0-1.313,1.064-2.377,2.377-2.377h1.535
			c1.313,0,2.378,1.064,2.378,2.377V59.99z"/>
		<rect x="79.469" y="45.133" clip-path="url(#SVGID_7_)" fill="#C8C8C8" width="3.912" height="2.179"/>
		<polygon clip-path="url(#SVGID_7_)" fill="#C8C8C8" points="95.02,54.345 96.554,54.345 98.288,59.99 95.02,59.99 		"/>
		<polygon clip-path="url(#SVGID_7_)" fill="#C8C8C8" points="94.117,52.666 93.37,52.666 93.37,47.902 91.922,47.902 
			91.922,47.156 94.117,47.156 		"/>
		<path clip-path="url(#SVGID_7_)" fill="#C8C8C8" d="M77.092,40.082h-2.328c-1.313,0-2.377,1.064-2.377,2.377v17.285h2.822v-4.729
			h1.437v-2.006v-0.15l0.121-0.089l2.702-1.991v-8.319C79.469,41.146,78.403,40.082,77.092,40.082"/>
		<rect x="75.804" y="55.607" clip-path="url(#SVGID_7_)" fill="#C8C8C8" width="0.843" height="4.136"/>
		<rect x="85.361" y="30.722" clip-path="url(#SVGID_7_)" fill="#C8C8C8" width="4.953" height="0.594"/>
		<rect x="74.244" y="39.413" clip-path="url(#SVGID_7_)" fill="#C8C8C8" width="3.367" height="1.337"/>
		<polygon clip-path="url(#SVGID_7_)" fill="#C8C8C8" points="68.944,51.373 68.351,51.373 68.351,36.787 86.007,36.787 
			86.007,37.381 68.944,37.381 		"/>
		<rect x="75.63" y="36.787" clip-path="url(#SVGID_7_)" fill="#C8C8C8" width="0.595" height="2.849"/>
		<rect x="68.351" y="44.614" clip-path="url(#SVGID_7_)" fill="#C8C8C8" width="4.333" height="0.594"/>
		<rect x="68.351" y="45.926" clip-path="url(#SVGID_7_)" fill="#C8C8C8" width="4.333" height="0.594"/>
		<rect x="71.792" y="42.112" clip-path="url(#SVGID_7_)" fill="#C8C8C8" width="8.395" height="0.594"/>
		<rect x="71.792" y="49.144" clip-path="url(#SVGID_7_)" fill="#C8C8C8" width="8.395" height="0.594"/>
		<path clip-path="url(#SVGID_7_)" fill="#C8C8C8" d="M90.908,43.301v-3.219l-7.527,3.219v7.545l2.433,1.793l4.26-3.139l0.175-0.129
			l0.177,0.128l1.87,1.367v-7.565H90.908z M84.94,49.442h-0.893v-2.377h0.893V49.442z M84.94,46.322h-0.893v-2.377h0.893V46.322z
			 M86.612,49.442H85.72v-2.377h0.893V49.442z M86.612,46.322H85.72v-2.377h0.893V46.322z M88.283,49.442h-0.892v-2.377h0.892
			V49.442z M88.283,46.322h-0.892v-2.377h0.892V46.322z M89.955,49.442h-0.892v-2.377h0.892V49.442z M89.955,46.322h-0.892v-2.377
			h0.892V46.322z M91.626,49.442h-0.891v-2.377h0.891V49.442z M91.626,46.322h-0.891v-2.377h0.891V46.322z"/>
		<rect x="64.994" y="53.045" clip-path="url(#SVGID_7_)" fill="#C8C8C8" width="7.393" height="0.594"/>
		<path clip-path="url(#SVGID_7_)" fill="#C8C8C8" d="M90.249,49.738l-4.436,3.27l-4.436-3.27l-4.436,3.27v6.982h1.024v-3.788h1.932
			v3.788h14.823v-6.982L90.249,49.738z M83.516,53.101h0.892v2.377h-0.892V53.101z M81.672,53.101h0.893v2.377h-0.893V53.101z
			 M78.877,55.478h-0.892v-2.377h0.892V55.478z M80.721,55.478h-0.893v-2.377h0.893V55.478z M82.658,58.133h-1.933v-1.931h1.933
			V58.133z M85.418,58.133h-1.932v-1.931h1.932V58.133z M92.731,53.101h0.892v2.377h-0.892V53.101z M90.889,53.101h0.892v2.377
			h-0.892V53.101z M89.045,53.101h0.892v2.377h-0.892V53.101z M87.201,53.101h0.893v2.377h-0.893V53.101z M88.178,58.133h-1.932
			v-1.931h1.932V58.133z M90.938,58.133h-1.933v-1.931h1.933V58.133z M93.697,58.133h-1.933v-1.931h1.933V58.133z"/>
		<path clip-path="url(#SVGID_7_)" fill="#C8C8C8" d="M85.002,42.311l5.041-2.156c-0.463-3.747-0.448-10.077-0.448-10.077h-3.713
			C85.882,30.078,85.905,39.883,85.002,42.311"/>
		<rect y="59.228" clip-path="url(#SVGID_7_)" fill="#C8C8C8" width="100" height="7.432"/>
		<rect x="18.665" y="30.508" clip-path="url(#SVGID_7_)" fill="#C8C8C8" width="0.667" height="4"/>
		<polygon clip-path="url(#SVGID_7_)" fill="#C8C8C8" points="10.999,43.965 9.333,43.965 9.333,36.507 18.041,36.507 
			18.041,38.174 10.999,38.174 		"/>
		<path clip-path="url(#SVGID_7_)" fill="#C8C8C8" d="M15.915,37.341c0,1.001-0.811,1.812-1.812,1.812s-1.812-0.811-1.812-1.812
			c0-1,0.811-1.812,1.812-1.812S15.915,36.341,15.915,37.341"/>
		<polygon clip-path="url(#SVGID_7_)" fill="#C8C8C8" points="35.746,57.264 35.08,57.264 35.08,44.589 32.292,44.589 
			32.292,43.922 35.746,43.922 		"/>
		<rect x="25.283" y="33.716" clip-path="url(#SVGID_7_)" fill="#C8C8C8" width="2.596" height="0.667"/>
		<rect x="30.276" y="33.716" clip-path="url(#SVGID_7_)" fill="#C8C8C8" width="2.596" height="0.667"/>
		<path clip-path="url(#SVGID_7_)" fill="#C8C8C8" d="M18.04,35.008v5.305h3.625v-8.18L18.04,35.008z M20.603,38.723h-1.5V35.39h1.5
			V38.723z"/>
		<path clip-path="url(#SVGID_7_)" fill="#C8C8C8" d="M37.08,59.729l-2.459-4.931H23.886l-2.722,4.931h3.375v-4.09h1.667v4.09H37.08
			z M27.125,55.639h6.969v0.999h-6.969V55.639z"/>
		<rect y="59.229" clip-path="url(#SVGID_7_)" fill="#C8C8C8" width="39.996" height="1"/>
		<rect x="26.205" y="48.881" clip-path="url(#SVGID_7_)" fill="#C8C8C8" width="6.667" height="0.667"/>
		<rect x="26.205" y="51.173" clip-path="url(#SVGID_7_)" fill="#C8C8C8" width="6.667" height="0.667"/>
		<path clip-path="url(#SVGID_7_)" fill="#C8C8C8" d="M14.832,59.729v-8.181h-1.34v-3.7l-3.701,3.7v-3.7l-3.702,3.7v-3.7l-3.7,3.7
			v8.431h12.443V59.729z M5.7,54.881H3.533v-2.166H5.7V54.881z M8.619,54.881H6.452v-2.166h2.167V54.881z M11.538,54.881H9.371
			v-2.166h2.167V54.881z M12.291,52.715h2.166v2.166h-2.166V52.715z"/>
		<path clip-path="url(#SVGID_7_)" fill="#C8C8C8" d="M13.825,51.215h1.007v-7.25H8.041v5.16l1.514-1.513l0.569-0.569v0.805v2.895
			l3.132-3.131l0.569-0.569v0.805V51.215z M8.971,45.202h5.417v1H8.971V45.202z"/>
		<polygon clip-path="url(#SVGID_7_)" fill="#C8C8C8" points="22.921,56.546 22.921,56.881 22.736,56.881 21.165,59.729 
			23.886,59.729 23.886,54.798 		"/>
		<path clip-path="url(#SVGID_7_)" fill="#C8C8C8" d="M20.873,59.567l1.482-2.687h-6.44v-1h6.993l0.686-1.244l0.096-0.172h0.196
			V40.313h-8.721v19.416h5.619L20.873,59.567z M21.921,41.305h1v2.667h-1V41.305z M21.921,44.864h1v2.667h-1V44.864z M21.921,48.423
			h1v2.667h-1V48.423z M19.991,41.305h1v2.667h-1V41.305z M19.991,44.864h1v2.667h-1V44.864z M19.991,48.423h1v2.667h-1V48.423z
			 M18.061,41.305h1v2.667h-1V41.305z M18.061,44.864h1v2.667h-1V44.864z M18.061,48.423h1v2.667h-1V48.423z M16.13,41.305h1v2.667
			h-1V41.305z M16.13,44.864h1v2.667h-1V44.864z M16.13,48.423h1v2.667h-1V48.423z M15.915,52.215h7.007v1h-7.007V52.215z
			 M15.915,54.068h7.007v1h-7.007V54.068z"/>
		<path clip-path="url(#SVGID_7_)" fill="#C8C8C8" d="M27.707,47.56c-0.001-0.013-0.001-0.025-0.001-0.038
			c-0.589,0.257-1.001,0.843-1.001,1.526v5.417h1.165c-0.028-1.199-0.056-2.396-0.083-3.595
			C27.76,49.767,27.733,48.663,27.707,47.56"/>
		<path clip-path="url(#SVGID_7_)" fill="#C8C8C8" d="M26.372,49.048c0-0.866,0.554-1.603,1.326-1.881
			c-0.012-0.515-0.024-1.031-0.034-1.547c-0.026-1.103-0.05-2.206-0.077-3.31c-0.023-0.926-0.044-1.849-0.067-2.776
			c-0.023-1.104-0.049-2.206-0.076-3.31c-0.024-1.114-0.05-2.226-0.077-3.339h-1.574c-0.025,1.113-0.053,2.225-0.076,3.339
			c-0.027,1.104-0.053,2.206-0.076,3.31c-0.023,0.927-0.044,1.85-0.067,2.776c-0.027,1.104-0.051,2.207-0.077,3.31
			c-0.014,0.647-0.03,1.293-0.043,1.94c-0.027,1.103-0.054,2.206-0.08,3.309c-0.027,1.199-0.055,2.396-0.083,3.596h1.081V49.048z"/>
		<path clip-path="url(#SVGID_7_)" fill="#C8C8C8" d="M32.78,50.869c-0.026-1.103-0.053-2.207-0.08-3.31
			c-0.013-0.646-0.03-1.293-0.043-1.94c-0.027-1.102-0.05-2.206-0.077-3.309c-0.023-0.926-0.043-1.85-0.067-2.776
			c-0.023-1.104-0.049-2.207-0.076-3.31c-0.024-1.114-0.05-2.227-0.076-3.339H30.79c-0.027,1.112-0.053,2.225-0.076,3.339
			c-0.031,1.103-0.054,2.206-0.081,3.31c-0.022,0.926-0.042,1.85-0.062,2.776c-0.028,1.103-0.054,2.207-0.081,3.309
			c-0.009,0.477-0.02,0.953-0.032,1.429h0.247c1.103,0,2,0.897,2,2L32.78,50.869z"/>
		<path clip-path="url(#SVGID_7_)" fill="#C8C8C8" d="M30.705,47.381h-0.254c-0.002,0.06-0.003,0.119-0.004,0.179
			c-0.027,1.103-0.054,2.206-0.076,3.309c-0.032,1.199-0.059,2.396-0.086,3.595h2.087v-5.416
			C32.372,48.128,31.625,47.381,30.705,47.381"/>
		<rect x="26.705" y="51.84" clip-path="url(#SVGID_7_)" fill="#C8C8C8" width="5.667" height="2.625"/>
		<rect x="26.705" y="49.548" clip-path="url(#SVGID_7_)" fill="#C8C8C8" width="5.667" height="1.625"/>
		<path clip-path="url(#SVGID_7_)" fill="#C8C8C8" d="M32.354,48.882c-0.084-0.841-0.786-1.5-1.649-1.5h-2.333
			c-0.864,0-1.565,0.659-1.65,1.5H32.354z"/>
		<path clip-path="url(#SVGID_7_)" fill="#F0F0F0" d="M27.182,30.771c-0.556-0.611,0.167-1.389,0.871-1.13
			c-0.556-0.741-0.204-2.111,1.11-1.778c-0.222-1.463,2.39-2.259,2.982-0.685c0.722-0.944,2.037,0.13,1.648,0.778
			c1.056,0,0.87,2.167-0.778,1.982c0.204,0.352-0.352,0.685-0.685,0.296c0.611,0.889-0.722,2.481-1.852,1.241
			c-0.166,0.703-1.648,0.333-1.37-0.76c-0.407,0.63-0.815,0.185-0.815,0.093c0-0.093,0.13,0.463-0.407,0.352
			C27.386,32.494,26.293,30.9,27.182,30.771"/>
		<path clip-path="url(#SVGID_7_)" fill="#E6E7E8" d="M41.223,32.377c-1.278-1.405,0.383-3.194,2.002-2.598
			c-1.278-1.704-0.469-4.856,2.556-4.089c-0.512-3.365,5.494-5.196,6.857-1.576c1.66-2.172,4.684,0.298,3.79,1.789
			c2.428,0,2.002,4.983-1.789,4.557c0.469,0.81-0.81,1.576-1.576,0.682c1.406,2.044-1.661,5.707-4.258,2.853
			c-0.384,1.619-3.791,0.767-3.152-1.746c-0.937,1.448-1.875,0.426-1.875,0.213s0.299,1.065-0.936,0.81
			C41.692,36.338,39.179,32.675,41.223,32.377"/>
		<path clip-path="url(#SVGID_7_)" fill="#007878" d="M96.948,58.637c-0.507-2.425-1.23-8.469-1.339-10.893
			c-0.109-2.424,0-6.19,0-6.19h-1.678c0,0,0.108,3.766,0,6.19c-0.108,2.424-0.832,8.468-1.339,10.893H96.948z"/>
		<g opacity="0.2" clip-path="url(#SVGID_7_)">
			<g>
				<defs>
					<rect id="SVGID_27_" x="94.771" y="41.554" width="2.178" height="17.083"/>
				</defs>
				<clipPath id="SVGID_28_">
					<use xlink:href="#SVGID_27_"  overflow="visible"/>
				</clipPath>
				<path clip-path="url(#SVGID_28_)" fill="#007878" d="M96.948,58.637c-0.507-2.425-1.23-8.469-1.339-10.893
					c-0.109-2.424,0-6.19,0-6.19h-0.839v17.083H96.948z"/>
			</g>
		</g>
		<rect x="93.353" y="42.121" clip-path="url(#SVGID_7_)" fill="#009B91" width="2.836" height="0.579"/>
		<rect x="93.353" y="44.703" clip-path="url(#SVGID_7_)" fill="#009B91" width="2.836" height="0.579"/>
		<rect x="93.353" y="49.679" clip-path="url(#SVGID_7_)" fill="#009B91" width="2.836" height="0.579"/>
		<rect x="92.845" y="54.281" clip-path="url(#SVGID_7_)" fill="#009B91" width="3.85" height="0.58"/>
		<path clip-path="url(#SVGID_7_)" fill="#284664" d="M91.973,51.742c0.047,0.403,0.101,0.787,0.157,1.158h5.493v8.197h1.158v-9.355
			H91.973z"/>
		<path clip-path="url(#SVGID_7_)" fill="#284664" d="M97.189,52.321c0,0.709-0.729,1.285-1.629,1.285
			c-0.899,0-1.629-0.576-1.629-1.285c0-0.71,0.729-1.285,1.629-1.285C96.461,51.036,97.189,51.611,97.189,52.321"/>
		<polygon clip-path="url(#SVGID_7_)" fill="#007878" points="66.57,66.225 66.57,56.755 70.407,52.955 70.407,66.225 		"/>
		<rect x="96.971" y="60.519" clip-path="url(#SVGID_7_)" fill="#007878" width="2.101" height="5.706"/>
		<polygon clip-path="url(#SVGID_7_)" fill="#009B91" points="70.877,52.955 70.877,66.226 96.972,66.226 96.972,58.637 
			84.124,58.637 84.124,52.955 		"/>
		<rect x="68.307" y="62.473" clip-path="url(#SVGID_7_)" fill="#DC5500" width="8.145" height="3.752"/>
		<rect x="65.256" y="65.791" clip-path="url(#SVGID_7_)" fill="#284664" width="34.744" height="0.868"/>
		<rect x="72.035" y="51.687" clip-path="url(#SVGID_7_)" fill="#00B9AF" width="2.679" height="1.269"/>
		<rect x="75.993" y="51.687" clip-path="url(#SVGID_7_)" fill="#00B9AF" width="2.678" height="1.269"/>
		<rect x="79.949" y="51.687" clip-path="url(#SVGID_7_)" fill="#00B9AF" width="2.679" height="1.269"/>
		<path clip-path="url(#SVGID_7_)" fill="#DC5500" d="M93.63,58.637c0,0-1.158-2.569-1.665-6.949c-0.507-4.379,0-7.021,0-7.021
			h-6.177c0,0,0.507,2.642,0,7.021c-0.506,4.38-1.664,6.949-1.664,6.949H93.63z"/>
		<polygon clip-path="url(#SVGID_7_)" fill="#284664" points="73.664,51.651 73.085,51.651 73.085,47.96 86.012,47.96 86.012,48.54 
			73.664,48.54 		"/>
		<rect x="77.042" y="48.249" clip-path="url(#SVGID_7_)" fill="#284664" width="0.579" height="3.438"/>
		<rect x="80.999" y="48.25" clip-path="url(#SVGID_7_)" fill="#284664" width="0.579" height="3.401"/>
		<rect x="85.161" y="45.354" clip-path="url(#SVGID_7_)" fill="#284664" width="7.432" height="0.579"/>
		<path clip-path="url(#SVGID_7_)" fill="#F07800" d="M86.003,47.165c0.017,0.621,0.015,1.346-0.023,2.171h5.794
			c-0.037-0.825-0.039-1.55-0.022-2.171H86.003z"/>
		<path clip-path="url(#SVGID_7_)" fill="#F07800" d="M92.283,53.823c-0.119-0.654-0.229-1.365-0.318-2.136
			c-0.007-0.062-0.012-0.119-0.019-0.181h-6.139c-0.007,0.062-0.012,0.119-0.02,0.181c-0.089,0.771-0.198,1.481-0.318,2.136H92.283z
			"/>
		<path clip-path="url(#SVGID_7_)" fill="#F07800" d="M84.124,58.637h9.506c0,0-0.452-1.003-0.915-2.823h-7.676
			C84.575,57.634,84.124,58.637,84.124,58.637"/>
		<rect x="71.602" y="53.799" clip-path="url(#SVGID_7_)" fill="#FF9600" width="0.868" height="2.316"/>
		<rect x="73.395" y="53.799" clip-path="url(#SVGID_7_)" fill="#FF9600" width="0.869" height="2.316"/>
		<rect x="75.188" y="53.799" clip-path="url(#SVGID_7_)" fill="#FF9600" width="0.868" height="2.316"/>
		<rect x="76.982" y="53.799" clip-path="url(#SVGID_7_)" fill="#FF9600" width="0.868" height="2.316"/>
		<rect x="78.776" y="53.799" clip-path="url(#SVGID_7_)" fill="#FF9600" width="0.868" height="2.316"/>
		<rect x="80.569" y="53.799" clip-path="url(#SVGID_7_)" fill="#FF9600" width="0.869" height="2.316"/>
		<rect x="82.362" y="53.799" clip-path="url(#SVGID_7_)" fill="#FF9600" width="0.869" height="2.316"/>
		<rect x="71.602" y="56.913" clip-path="url(#SVGID_7_)" fill="#FF9600" width="0.868" height="2.315"/>
		<rect x="73.395" y="56.913" clip-path="url(#SVGID_7_)" fill="#FF9600" width="0.869" height="2.315"/>
		<rect x="75.188" y="56.913" clip-path="url(#SVGID_7_)" fill="#FF9600" width="0.868" height="2.315"/>
		<rect x="76.982" y="56.913" clip-path="url(#SVGID_7_)" fill="#FF9600" width="0.868" height="2.315"/>
		<rect x="78.776" y="56.913" clip-path="url(#SVGID_7_)" fill="#FF9600" width="0.868" height="2.315"/>
		<rect x="80.569" y="56.913" clip-path="url(#SVGID_7_)" fill="#FF9600" width="0.869" height="2.315"/>
		<rect x="82.362" y="56.913" clip-path="url(#SVGID_7_)" fill="#FF9600" width="0.869" height="2.315"/>
		<rect x="71.602" y="60.157" clip-path="url(#SVGID_7_)" fill="#FF9600" width="0.868" height="2.315"/>
		<rect x="73.395" y="60.157" clip-path="url(#SVGID_7_)" fill="#FF9600" width="0.869" height="2.315"/>
		<rect x="75.188" y="60.157" clip-path="url(#SVGID_7_)" fill="#FF9600" width="0.868" height="2.315"/>
		<rect x="76.982" y="60.157" clip-path="url(#SVGID_7_)" fill="#FF9600" width="0.868" height="2.315"/>
		<rect x="78.776" y="60.157" clip-path="url(#SVGID_7_)" fill="#FF9600" width="0.868" height="2.315"/>
		<rect x="80.569" y="60.157" clip-path="url(#SVGID_7_)" fill="#FF9600" width="0.869" height="2.315"/>
		<rect x="82.362" y="60.157" clip-path="url(#SVGID_7_)" fill="#FF9600" width="0.869" height="2.315"/>
		<rect x="84.944" y="59.651" clip-path="url(#SVGID_7_)" fill="#007878" width="11.002" height="0.867"/>
		<rect x="84.944" y="61.294" clip-path="url(#SVGID_7_)" fill="#007878" width="11.002" height="0.868"/>
		<rect x="84.944" y="62.938" clip-path="url(#SVGID_7_)" fill="#007878" width="11.002" height="0.868"/>
		<rect x="68.031" y="56.863" clip-path="url(#SVGID_7_)" fill="#FF9600" width="1.157" height="3.764"/>
		<rect x="68.977" y="63.378" clip-path="url(#SVGID_7_)" fill="#284664" width="6.805" height="0.868"/>
		<polygon clip-path="url(#SVGID_7_)" fill="#284664" points="78.568,66.225 77.989,66.225 77.989,63.775 76.451,63.775 
			76.451,63.197 78.568,63.197 		"/>
		<g opacity="0.2" clip-path="url(#SVGID_7_)">
			<g>
				<defs>
					<rect id="SVGID_29_" x="88.877" y="44.667" width="4.753" height="13.97"/>
				</defs>
				<clipPath id="SVGID_30_">
					<use xlink:href="#SVGID_29_"  overflow="visible"/>
				</clipPath>
				<path clip-path="url(#SVGID_30_)" fill="#DC5500" d="M93.63,58.637c0,0-1.158-2.569-1.665-6.949c-0.507-4.379,0-7.021,0-7.021
					h-3.088v13.97H93.63z"/>
			</g>
		</g>
		<rect x="88.877" y="45.354" clip-path="url(#SVGID_7_)" fill="#32506E" width="3.716" height="0.579"/>
		<rect x="56.497" y="47.429" clip-path="url(#SVGID_7_)" fill="#DC5500" width="5.405" height="10.592"/>
		<path clip-path="url(#SVGID_7_)" fill="#007878" d="M56.497,58.021h-7.673V45.645c0-1.12,0.907-2.027,2.027-2.027h3.619
			c1.119,0,2.026,0.907,2.026,2.027V58.021z"/>
		<g opacity="0.2" clip-path="url(#SVGID_7_)">
			<g>
				<defs>
					<rect id="SVGID_31_" x="52.661" y="43.617" width="3.836" height="14.404"/>
				</defs>
				<clipPath id="SVGID_32_">
					<use xlink:href="#SVGID_31_"  overflow="visible"/>
				</clipPath>
				<path clip-path="url(#SVGID_32_)" fill="#007878" d="M56.497,58.021V45.644c0-1.119-0.907-2.026-2.026-2.026h-1.81v14.404
					H56.497z"/>
			</g>
		</g>
		<rect x="36.423" y="54.933" clip-path="url(#SVGID_7_)" fill="#009B91" width="13.801" height="11.292"/>
		<rect x="37.448" y="55.995" clip-path="url(#SVGID_7_)" fill="#FF9600" width="0.869" height="2.315"/>
		<rect x="39.261" y="55.995" clip-path="url(#SVGID_7_)" fill="#FF9600" width="0.869" height="2.315"/>
		<rect x="41.075" y="55.995" clip-path="url(#SVGID_7_)" fill="#FF9600" width="0.869" height="2.315"/>
		<rect x="42.888" y="55.995" clip-path="url(#SVGID_7_)" fill="#FF9600" width="0.869" height="2.315"/>
		<rect x="44.702" y="55.995" clip-path="url(#SVGID_7_)" fill="#FF9600" width="0.869" height="2.315"/>
		<rect x="46.516" y="55.995" clip-path="url(#SVGID_7_)" fill="#FF9600" width="0.869" height="2.315"/>
		<rect x="48.329" y="55.995" clip-path="url(#SVGID_7_)" fill="#FF9600" width="0.869" height="2.315"/>
		<polygon clip-path="url(#SVGID_7_)" fill="#284664" points="65.859,66.225 42.647,66.225 42.647,60.048 44.674,58.021 
			62.964,58.021 65.859,60.917 		"/>
		<path clip-path="url(#SVGID_7_)" fill="#F07800" d="M46.315,54.934h-8.396c0.196-0.756,0.355-1.751,0.489-2.889
			c0.087-0.756,0.162-1.575,0.225-2.426c0.047-0.577,0.084-1.167,0.12-1.767c0.046-0.805,0.086-1.621,0.118-2.426
			c0.026-0.698,0.049-1.384,0.069-2.05c0.024-0.854,0.041-1.671,0.055-2.423c0.029-1.726,0.032-3.101,0.032-3.764h6.179
			c0,0.663,0.003,2.038,0.032,3.764c0.015,0.752,0.032,1.569,0.055,2.423c0.02,0.666,0.043,1.352,0.069,2.05
			c0.032,0.805,0.073,1.621,0.119,2.426c0.035,0.6,0.072,1.19,0.119,1.767c0.064,0.851,0.139,1.67,0.226,2.426
			C45.959,53.183,46.118,54.178,46.315,54.934"/>
		<g opacity="0.2" clip-path="url(#SVGID_7_)">
			<g>
				<defs>
					<rect id="SVGID_33_" x="42.117" y="37.188" width="4.198" height="17.745"/>
				</defs>
				<clipPath id="SVGID_34_">
					<use xlink:href="#SVGID_33_"  overflow="visible"/>
				</clipPath>
				<path clip-path="url(#SVGID_34_)" fill="#F07800" d="M46.315,54.934c-0.197-0.756-0.356-1.751-0.489-2.889
					c-0.087-0.756-0.162-1.575-0.226-2.426c-0.047-0.577-0.084-1.167-0.119-1.767c-0.046-0.805-0.087-1.621-0.119-2.426
					c-0.026-0.698-0.049-1.384-0.069-2.05c-0.023-0.854-0.04-1.671-0.055-2.423c-0.029-1.726-0.032-3.101-0.032-3.764h-3.089v17.745
					H46.315z"/>
			</g>
		</g>
		<rect x="38.257" y="37.766" clip-path="url(#SVGID_7_)" fill="#DC5500" width="7.721" height="0.579"/>
		<rect x="48.257" y="45.366" clip-path="url(#SVGID_7_)" fill="#284664" width="8.808" height="0.579"/>
		<rect x="63.518" y="62.389" clip-path="url(#SVGID_7_)" fill="#00647D" width="1.425" height="3.836"/>
		<rect x="48.257" y="49.167" clip-path="url(#SVGID_7_)" fill="#284664" width="8.808" height="0.579"/>
		<path clip-path="url(#SVGID_7_)" fill="#FF9600" d="M45.293,43.376H38.94c0.024-0.854,0.041-1.671,0.055-2.424h6.243
			C45.252,41.705,45.27,42.522,45.293,43.376"/>
		<path clip-path="url(#SVGID_7_)" fill="#FF9600" d="M45.481,47.852h-6.729c0.047-0.805,0.087-1.621,0.119-2.426h6.491
			C45.394,46.23,45.435,47.046,45.481,47.852"/>
		<path clip-path="url(#SVGID_7_)" fill="#FF9600" d="M45.826,52.045h-7.418c0.087-0.756,0.162-1.576,0.226-2.427H45.6
			C45.664,50.469,45.739,51.289,45.826,52.045"/>
		<polygon clip-path="url(#SVGID_7_)" fill="#284664" points="65.135,60.192 64.556,60.192 64.556,56.079 61.902,56.079 
			61.902,55.5 65.135,55.5 		"/>
		<rect x="48.257" y="53.546" clip-path="url(#SVGID_7_)" fill="#284664" width="8.808" height="0.579"/>
		<polygon clip-path="url(#SVGID_7_)" fill="#284664" points="58.439,58.021 56.991,58.021 56.991,54.993 52.468,54.993 
			52.468,51.771 45.722,51.771 45.722,50.322 53.915,50.322 53.915,53.546 58.439,53.546 		"/>
		<rect x="44.868" y="58.939" clip-path="url(#SVGID_7_)" fill="#00647D" width="6.054" height="0.867"/>
		<polygon clip-path="url(#SVGID_7_)" fill="#284664" points="40.198,66.225 39.619,66.225 39.619,63.137 42.647,63.137 
			42.647,63.716 40.198,63.716 		"/>
		<polygon clip-path="url(#SVGID_7_)" fill="#007878" points="36.423,57.418 34.516,59.155 34.516,66.225 36.423,66.225 		"/>
		<rect x="32.852" y="65.791" clip-path="url(#SVGID_7_)" fill="#284664" width="34.744" height="0.868"/>
		<rect x="37.448" y="59.421" clip-path="url(#SVGID_7_)" fill="#FF9600" width="0.869" height="2.316"/>
		<rect x="39.261" y="59.421" clip-path="url(#SVGID_7_)" fill="#FF9600" width="0.869" height="2.316"/>
		<rect x="41.075" y="59.421" clip-path="url(#SVGID_7_)" fill="#FF9600" width="0.869" height="2.316"/>
		<rect x="44.78" y="62.883" clip-path="url(#SVGID_7_)" fill="#DC5500" width="1.882" height="1.883"/>
		<rect x="47.439" y="62.883" clip-path="url(#SVGID_7_)" fill="#DC5500" width="1.882" height="1.883"/>
		<rect x="50.098" y="62.883" clip-path="url(#SVGID_7_)" fill="#DC5500" width="1.881" height="1.883"/>
		<rect x="52.755" y="62.883" clip-path="url(#SVGID_7_)" fill="#DC5500" width="1.882" height="1.883"/>
		<rect x="55.414" y="62.883" clip-path="url(#SVGID_7_)" fill="#DC5500" width="1.882" height="1.883"/>
		<rect x="58.072" y="62.883" clip-path="url(#SVGID_7_)" fill="#DC5500" width="1.882" height="1.883"/>
		<rect x="60.73" y="62.883" clip-path="url(#SVGID_7_)" fill="#DC5500" width="1.882" height="1.883"/>
		<rect x="57.716" y="48.281" clip-path="url(#SVGID_7_)" fill="#FF9600" width="1.157" height="3.764"/>
		<rect x="59.929" y="48.281" clip-path="url(#SVGID_7_)" fill="#FF9600" width="1.158" height="3.764"/>
		<rect x="59.929" y="53.388" clip-path="url(#SVGID_7_)" fill="#FF9600" width="1.158" height="3.765"/>
		<rect x="56.558" y="58.939" clip-path="url(#SVGID_7_)" fill="#00647D" width="6.055" height="0.867"/>
		<rect x="51.719" y="58.939" clip-path="url(#SVGID_7_)" fill="#00647D" width="3.909" height="0.867"/>
		<rect x="44.868" y="60.929" clip-path="url(#SVGID_7_)" fill="#00647D" width="6.054" height="0.869"/>
		<rect x="56.558" y="60.929" clip-path="url(#SVGID_7_)" fill="#00647D" width="6.055" height="0.869"/>
		<rect x="51.719" y="60.929" clip-path="url(#SVGID_7_)" fill="#00647D" width="3.909" height="0.869"/>
		<path clip-path="url(#SVGID_7_)" fill="#007878" d="M60.508,47.429h-1.844l0.043-1.485c0.029-0.988,0.058-1.978,0.087-2.965
			c0.015-0.559,0.032-1.121,0.046-1.679c0.029-0.991,0.059-1.978,0.087-2.968c0.012-0.435,0.026-0.866,0.038-1.3h1.242
			c0.012,0.434,0.026,0.865,0.037,1.3c0.029,0.99,0.059,1.977,0.088,2.968c0.014,0.558,0.031,1.12,0.046,1.679
			c0.029,0.987,0.058,1.977,0.087,2.965L60.508,47.429z"/>
		<path clip-path="url(#SVGID_7_)" fill="#009B91" d="M60.332,41.3H58.84c0.029-0.99,0.059-1.978,0.087-2.968h1.317
			C60.273,39.322,60.303,40.31,60.332,41.3"/>
		<path clip-path="url(#SVGID_7_)" fill="#009B91" d="M60.465,45.944h-1.758c0.028-0.987,0.058-1.978,0.087-2.965h1.584
			C60.407,43.966,60.436,44.957,60.465,45.944"/>
		<polygon clip-path="url(#SVGID_7_)" fill="#007896" points="22.48,66.225 22.48,59.47 31.757,59.47 33.688,62.002 33.688,66.225 
					"/>
		<path clip-path="url(#SVGID_7_)" fill="#007896" d="M23.699,59.47h-8.783V46.657c0-2.398,1.945-4.342,4.343-4.342h0.097
			c2.399,0,4.343,1.944,4.343,4.342V59.47z"/>
		<path clip-path="url(#SVGID_7_)" fill="#0082A0" d="M23.699,59.47V46.657c0-2.398-1.944-4.343-4.343-4.343H19.26V59.47H23.699z"/>
		<polygon clip-path="url(#SVGID_7_)" fill="#DC5500" points="17.797,53.123 13.127,56.345 8.457,53.123 3.769,56.356 3.769,66.225 
			22.481,66.225 22.481,56.356 		"/>
		<rect y="65.791" clip-path="url(#SVGID_7_)" fill="#284664" width="34.967" height="0.868"/>
		<polygon clip-path="url(#SVGID_7_)" fill="#284664" points="1.911,66.225 1.332,66.225 1.332,57.249 3.769,57.249 3.769,57.828 
			1.911,57.828 		"/>
		<polygon clip-path="url(#SVGID_7_)" fill="#284664" points="2.985,66.225 2.406,66.225 2.406,58.818 3.769,58.818 3.769,59.396 
			2.985,59.396 		"/>
		<polygon clip-path="url(#SVGID_7_)" fill="#284664" points="5.724,55.009 5.724,53.123 5,53.123 5,55.508 		"/>
		<path clip-path="url(#SVGID_7_)" fill="#284664" d="M28.669,59.47h-3.813V40.819c0-0.96,0.778-1.738,1.738-1.738h0.338
			c0.959,0,1.737,0.778,1.737,1.738V59.47z"/>
		<path clip-path="url(#SVGID_7_)" fill="#32506E" d="M28.669,59.47V40.819c0-0.96-0.778-1.738-1.737-1.738h-0.338V59.47H28.669z"/>
		<rect x="14.343" y="45.535" clip-path="url(#SVGID_7_)" fill="#DC5500" width="9.929" height="0.579"/>
		<rect x="14.343" y="44.883" clip-path="url(#SVGID_7_)" fill="#DC5500" width="9.929" height="0.29"/>
		<rect x="14.343" y="50.602" clip-path="url(#SVGID_7_)" fill="#DC5500" width="9.929" height="0.58"/>
		<rect x="14.343" y="51.706" clip-path="url(#SVGID_7_)" fill="#DC5500" width="9.929" height="0.289"/>
		<rect x="24.26" y="41.102" clip-path="url(#SVGID_7_)" fill="#007896" width="5.007" height="0.579"/>
		<rect x="24.26" y="42.169" clip-path="url(#SVGID_7_)" fill="#007896" width="5.007" height="0.29"/>
		<rect x="24.26" y="46.82" clip-path="url(#SVGID_7_)" fill="#007896" width="5.007" height="0.579"/>
		<rect x="24.26" y="47.887" clip-path="url(#SVGID_7_)" fill="#007896" width="5.007" height="0.29"/>
		<rect x="24.26" y="52.447" clip-path="url(#SVGID_7_)" fill="#007896" width="5.007" height="0.58"/>
		<rect x="24.26" y="53.516" clip-path="url(#SVGID_7_)" fill="#007896" width="5.007" height="0.289"/>
		<rect x="24.26" y="55.108" clip-path="url(#SVGID_7_)" fill="#007896" width="5.007" height="0.578"/>
		<polygon clip-path="url(#SVGID_7_)" fill="#284664" points="31.251,59.47 30.672,59.47 30.672,45.427 28.669,45.427 
			28.669,44.848 31.251,44.848 		"/>
		<rect x="7.436" y="61.46" clip-path="url(#SVGID_7_)" fill="#284664" width="1.973" height="4.765"/>
		<rect x="10.905" y="63.034" clip-path="url(#SVGID_7_)" fill="#FF9600" width="1.882" height="1.882"/>
		<rect x="13.586" y="63.034" clip-path="url(#SVGID_7_)" fill="#FF9600" width="1.881" height="1.882"/>
		<rect x="16.265" y="63.034" clip-path="url(#SVGID_7_)" fill="#FF9600" width="1.882" height="1.882"/>
		<rect x="18.946" y="63.034" clip-path="url(#SVGID_7_)" fill="#FF9600" width="1.882" height="1.882"/>
		<rect x="10.905" y="60.494" clip-path="url(#SVGID_7_)" fill="#FF9600" width="1.882" height="1.883"/>
		<rect x="13.586" y="60.494" clip-path="url(#SVGID_7_)" fill="#FF9600" width="1.881" height="1.883"/>
		<rect x="16.265" y="60.494" clip-path="url(#SVGID_7_)" fill="#FF9600" width="1.882" height="1.883"/>
		<rect x="18.946" y="60.494" clip-path="url(#SVGID_7_)" fill="#FF9600" width="1.882" height="1.883"/>
		<rect x="23.24" y="60.771" clip-path="url(#SVGID_7_)" fill="#DC5500" width="1.158" height="3.765"/>
		<rect x="25.092" y="60.771" clip-path="url(#SVGID_7_)" fill="#DC5500" width="1.158" height="3.765"/>
		<rect x="26.945" y="60.771" clip-path="url(#SVGID_7_)" fill="#DC5500" width="1.158" height="3.765"/>
		<rect x="28.796" y="60.771" clip-path="url(#SVGID_7_)" fill="#DC5500" width="1.158" height="3.765"/>
		<rect x="30.648" y="60.771" clip-path="url(#SVGID_7_)" fill="#DC5500" width="1.158" height="3.765"/>
		<rect x="19.887" y="56.574" clip-path="url(#SVGID_7_)" fill="#FF9600" width="1.303" height="2.896"/>
		<rect x="18.039" y="56.574" clip-path="url(#SVGID_7_)" fill="#FF9600" width="1.303" height="2.896"/>
		<rect x="16.191" y="56.574" clip-path="url(#SVGID_7_)" fill="#FF9600" width="1.303" height="2.896"/>
		<rect x="14.343" y="56.574" clip-path="url(#SVGID_7_)" fill="#FF9600" width="1.303" height="2.896"/>
		<rect x="10.543" y="56.574" clip-path="url(#SVGID_7_)" fill="#FF9600" width="1.303" height="2.896"/>
		<rect x="8.695" y="56.574" clip-path="url(#SVGID_7_)" fill="#FF9600" width="1.303" height="2.896"/>
		<rect x="6.847" y="56.574" clip-path="url(#SVGID_7_)" fill="#FF9600" width="1.303" height="2.896"/>
		<rect x="5" y="56.574" clip-path="url(#SVGID_7_)" fill="#FF9600" width="1.303" height="2.896"/>
		<rect x="5.072" y="60.771" clip-path="url(#SVGID_7_)" fill="#FF9600" width="1.158" height="3.765"/>
		<rect x="26.449" y="36.162" clip-path="url(#SVGID_7_)" fill="#284664" width="0.29" height="2.919"/>
		<path clip-path="url(#SVGID_7_)" fill="#284664" d="M27.028,36.089c0,0.24-0.194,0.435-0.434,0.435
			c-0.24,0-0.435-0.195-0.435-0.435c0-0.24,0.195-0.434,0.435-0.434C26.834,35.655,27.028,35.849,27.028,36.089"/>
		<rect x="14.916" y="48.092" clip-path="url(#SVGID_7_)" fill="#284664" width="8.783" height="1.183"/>
		<polygon clip-path="url(#SVGID_7_)" fill="#284664" points="13.126,56.345 13.631,55.996 13.631,47.688 14.917,47.688 
			14.917,47.11 13.053,47.11 13.053,56.293 		"/>
		<path clip-path="url(#SVGID_7_)" fill="#E6E7E8" d="M87.332,27.44c-0.659-0.726,0.198-1.65,1.034-1.342
			c-0.66-0.88-0.242-2.508,1.319-2.112c-0.264-1.737,2.838-2.683,3.542-0.814c0.857-1.121,2.419,0.154,1.957,0.924
			c1.254,0,1.034,2.574-0.924,2.354c0.242,0.418-0.418,0.814-0.813,0.352c0.726,1.055-0.857,2.947-2.199,1.473
			c-0.198,0.836-1.958,0.396-1.628-0.901c-0.483,0.748-0.968,0.22-0.968,0.11s0.154,0.55-0.484,0.417
			C87.574,29.485,86.276,27.594,87.332,27.44"/>
	</g>
</g>
</svg>
