<?xml version="1.0" encoding="utf-8"?>
<!-- Generator: Adobe Illustrator 16.0.0, SVG Export Plug-In . SVG Version: 6.00 Build 0)  -->
<!DOCTYPE svg PUBLIC "-//W3C//DTD SVG 1.1//EN" "http://www.w3.org/Graphics/SVG/1.1/DTD/svg11.dtd">
<svg version="1.1" id="Layer_1" xmlns="http://www.w3.org/2000/svg" xmlns:xlink="http://www.w3.org/1999/xlink" x="0px" y="0px"
	 width="100px" height="100px" viewBox="0 0 100 100" enable-background="new 0 0 100 100" xml:space="preserve">
<g>
	<defs>
		<rect id="SVGID_1_" width="100" height="100"/>
	</defs>
	<clipPath id="SVGID_2_">
		<use xlink:href="#SVGID_1_"  overflow="visible"/>
	</clipPath>
	<rect clip-path="url(#SVGID_2_)" fill="#C074BF" width="100" height="100"/>
	<rect y="64.714" clip-path="url(#SVGID_2_)" fill="#A059A1" width="100" height="35.286"/>
	<g clip-path="url(#SVGID_2_)">
		<defs>
			<rect id="SVGID_3_" width="100" height="100"/>
		</defs>
		<clipPath id="SVGID_4_">
			<use xlink:href="#SVGID_3_"  overflow="visible"/>
		</clipPath>
		<g opacity="0.2" clip-path="url(#SVGID_4_)">
			<g>
				<defs>
					<rect id="SVGID_5_" x="15.4" y="70.4" width="70.4" height="21.199"/>
				</defs>
				<clipPath id="SVGID_6_">
					<use xlink:href="#SVGID_5_"  overflow="visible"/>
				</clipPath>
				<path clip-path="url(#SVGID_6_)" fill="#262829" d="M85.8,81c0,5.854-15.76,10.6-35.2,10.6c-19.44,0-35.2-4.746-35.2-10.6
					s15.76-10.6,35.2-10.6C70.04,70.4,85.8,75.146,85.8,81"/>
			</g>
		</g>
		<path clip-path="url(#SVGID_4_)" fill="#FFFFFF" d="M35.796,86.287c0.042-0.374-0.067-0.787-0.513-0.791
			c-0.318-0.002-0.771,0.094-0.983,0.342c-0.161,0.188-0.221,0.437-0.249,0.687h-3.346h-3.171h-1.298c-0.18,0-0.367,0.015-0.546,0
			c-0.401-0.034-0.332-0.321-0.537-0.608c-0.151-0.213-0.402-0.364-0.663-0.35c-0.34,0.021-0.629,0.358-0.594,0.698
			c0.035,0.34,0.385,0.612,0.723,0.563c-0.136,0.109-0.346,0.073-0.486,0.176c-0.089,0.066-0.132,0.178-0.15,0.288
			c-0.062,0.395,0.199,0.815,0.581,0.936c0.381,0.119,0.836-0.078,1.01-0.438c0.075-0.155,0.1-0.33,0.102-0.502
			c0.001-0.056-0.014-0.145-0.043-0.245h8.394c0.005,0.19,0.032,0.378,0.113,0.549c0.077,0.162,0.201,0.303,0.353,0.398
			c0.24,0.152,0.557,0.188,0.816,0.07c0.258-0.118,0.442-0.397,0.423-0.682c-0.018-0.284-0.253-0.546-0.536-0.571
			c0.155,0,0.326-0.004,0.443-0.107C35.752,86.601,35.779,86.438,35.796,86.287"/>
		<path clip-path="url(#SVGID_4_)" fill="#FFFFFF" d="M34.568,79.484c-0.071-0.369-0.298-0.731-0.725-0.602
			c-0.304,0.092-0.708,0.318-0.837,0.618c-0.098,0.228-0.082,0.481-0.034,0.729c-1.065,0.331-2.13,0.662-3.195,0.993
			c-1.009,0.314-2.019,0.628-3.028,0.942c-0.413,0.129-0.826,0.257-1.239,0.386c-0.171,0.053-0.346,0.123-0.522,0.162
			c-0.393,0.086-0.412-0.208-0.693-0.422c-0.207-0.158-0.493-0.229-0.736-0.137c-0.32,0.121-0.494,0.529-0.361,0.843
			c0.134,0.314,0.55,0.472,0.858,0.324c-0.097,0.145-0.309,0.172-0.411,0.313c-0.066,0.089-0.074,0.209-0.058,0.318
			c0.057,0.396,0.432,0.721,0.832,0.721c0.4,0.001,0.775-0.322,0.835-0.718c0.025-0.17-0.002-0.345-0.052-0.51
			c-0.016-0.053-0.057-0.134-0.113-0.221c0.956-0.298,6.582-2.048,8.014-2.493c0.062,0.181,0.144,0.352,0.272,0.49
			c0.121,0.132,0.281,0.229,0.455,0.276c0.274,0.074,0.588,0.015,0.799-0.176c0.212-0.189,0.304-0.511,0.203-0.776
			c-0.102-0.266-0.405-0.446-0.682-0.387c0.148-0.045,0.31-0.101,0.391-0.233C34.619,79.798,34.597,79.633,34.568,79.484"/>
		<path clip-path="url(#SVGID_4_)" fill="#FFFFFF" d="M81.206,85.47c0.118-0.357,0.098-0.784-0.339-0.88
			c-0.311-0.067-0.772-0.067-1.032,0.131c-0.196,0.151-0.307,0.381-0.386,0.62c-1.091-0.231-2.182-0.463-3.273-0.693
			c-1.033-0.219-2.068-0.438-3.103-0.657c-0.423-0.09-0.846-0.179-1.269-0.269c-0.177-0.037-0.362-0.062-0.535-0.114
			c-0.386-0.117-0.258-0.382-0.398-0.706c-0.104-0.239-0.318-0.439-0.576-0.479c-0.338-0.051-0.689,0.22-0.727,0.56
			c-0.036,0.339,0.25,0.68,0.591,0.701c-0.155,0.079-0.354-0.001-0.512,0.071c-0.101,0.046-0.167,0.146-0.206,0.25
			c-0.144,0.374,0.025,0.84,0.374,1.036c0.349,0.195,0.834,0.098,1.079-0.219c0.105-0.137,0.166-0.302,0.204-0.47
			c0.012-0.055,0.016-0.145,0.008-0.249c0.98,0.208,6.745,1.428,8.212,1.739c-0.034,0.188-0.047,0.377-0.003,0.561
			c0.042,0.175,0.134,0.337,0.263,0.462c0.203,0.2,0.506,0.301,0.783,0.239c0.277-0.063,0.515-0.298,0.556-0.579
			c0.041-0.282-0.135-0.587-0.406-0.671c0.152,0.033,0.32,0.064,0.455-0.013C81.098,85.768,81.158,85.613,81.206,85.47"/>
		<path clip-path="url(#SVGID_4_)" fill="#FFFFFF" d="M20.638,71.407c0.065-0.371-0.017-0.79-0.462-0.822
			c-0.317-0.022-0.775,0.044-1.002,0.278c-0.173,0.178-0.249,0.421-0.293,0.669c-1.113-0.071-2.226-0.143-3.34-0.215
			c-1.054-0.067-2.109-0.135-3.164-0.203c-0.431-0.027-0.863-0.055-1.295-0.083c-0.179-0.011-0.367-0.009-0.545-0.035
			c-0.398-0.06-0.311-0.341-0.497-0.642c-0.137-0.222-0.378-0.389-0.639-0.391c-0.341-0.002-0.65,0.317-0.638,0.658
			c0.013,0.342,0.345,0.637,0.686,0.609c-0.142,0.101-0.35,0.05-0.496,0.145c-0.093,0.06-0.144,0.169-0.168,0.277
			c-0.088,0.39,0.146,0.827,0.519,0.971c0.374,0.144,0.84-0.024,1.037-0.372c0.084-0.15,0.121-0.324,0.134-0.494
			c0.004-0.056-0.006-0.146-0.028-0.247c1,0.064,6.879,0.441,8.377,0.537c-0.007,0.19,0.008,0.38,0.078,0.555
			c0.066,0.168,0.181,0.315,0.326,0.421c0.23,0.168,0.544,0.224,0.809,0.122c0.266-0.102,0.467-0.368,0.467-0.653
			c0-0.284-0.218-0.561-0.499-0.605c0.155,0.012,0.326,0.019,0.449-0.077C20.574,71.717,20.612,71.556,20.638,71.407"/>
		<path clip-path="url(#SVGID_4_)" fill="#3E265C" d="M20.294,7.442l-2.051,5.703l-0.074-0.324l-0.023-0.104l-0.131-0.579
			l-0.386,0.696l-0.506,0.114l-0.647-0.462l0.131,0.579l0.023,0.104l0.051,0.224l-4.218-4.18l-5.81,3.758l2.882-0.068l0.842,1.897
			l2.105-1.341l1.57,1.451l1.564-1.068l1.263,0.429l0.1,0.441c0.096,0.424,0.519,0.691,0.943,0.595
			c0.426-0.096,0.692-0.518,0.596-0.944l-0.121-0.536l0.086,0.082l0.956-0.931l1.872,0.292l0.792-1.986l2.477,0.306l-0.055-2.076
			l2.63-1.177L20.294,7.442z"/>
		<path clip-path="url(#SVGID_4_)" fill="#3E265C" d="M87.881,15.87l-3.644,3.077l0.078-0.25l0.025-0.08l0.139-0.446l-0.536,0.322
			l-0.391-0.122l-0.259-0.569l-0.139,0.445l-0.025,0.081L83.076,18.5l-1.227-4.509l-5.438,0.272l1.99,1.088l-0.174,1.625
			l1.962-0.085l0.497,1.607l1.486-0.111l0.691,0.79l-0.105,0.339c-0.102,0.327,0.081,0.675,0.408,0.777s0.676-0.081,0.777-0.408
			l0.129-0.413l0.026,0.089l1.018-0.257l1.16,0.936L87.6,19.2l1.567,1.184l0.779-1.436l2.256,0.234L87.881,15.87z"/>
		<path clip-path="url(#SVGID_4_)" fill="#3E265C" d="M16.811,49.184l-0.878,2.957l-0.047-0.162l-0.015-0.052l-0.083-0.291
			L15.611,52l-0.254,0.073l-0.342-0.216l0.083,0.29l0.015,0.052l0.032,0.112l-2.264-2.003l-2.844,2.078l1.462-0.118l0.483,0.94
			l1.031-0.742l0.839,0.692l0.765-0.588l0.654,0.182l0.063,0.221c0.061,0.213,0.284,0.337,0.497,0.275s0.337-0.283,0.276-0.497
			l-0.077-0.269l0.046,0.039l0.459-0.501l0.959,0.095l0.346-1.032l1.268,0.084l-0.088-1.054l1.303-0.674L16.811,49.184z"/>
		<path clip-path="url(#SVGID_4_)" fill="#3E265C" d="M27.105,30.262l-2.264,2.859l0.021-0.198l0.006-0.064l0.037-0.356
			l-0.354,0.323l-0.31-0.032l-0.281-0.387l-0.036,0.355l-0.007,0.064l-0.014,0.137l-1.604-3.193l-4.035,1.03l1.657,0.514
			l0.117,1.243l1.458-0.361l0.616,1.129l1.097-0.31l0.639,0.487l-0.028,0.27c-0.027,0.261,0.163,0.494,0.424,0.521
			c0.261,0.027,0.494-0.163,0.521-0.424l0.033-0.329l0.034,0.063l0.724-0.348l1.011,0.526L27.4,32.8l1.354,0.65l0.367-1.195
			l1.726-0.167L27.105,30.262z"/>
		<path clip-path="url(#SVGID_4_)" fill="#3E265C" d="M90.589,39.742l-1.266,3.42l-0.042-0.195l-0.014-0.063l-0.076-0.349
			l-0.235,0.416l-0.305,0.066l-0.388-0.281l0.075,0.349l0.014,0.063l0.029,0.135l-2.515-2.539l-3.517,2.23l1.734-0.025l0.496,1.146
			l1.274-0.795l0.937,0.881l0.947-0.634l0.758,0.265l0.057,0.266c0.057,0.256,0.309,0.419,0.564,0.363
			c0.257-0.055,0.42-0.308,0.364-0.564l-0.07-0.323l0.051,0.049l0.581-0.555l1.124,0.186l0.488-1.19l1.488,0.197l-0.021-1.249
			l1.589-0.694L90.589,39.742z"/>
		<path clip-path="url(#SVGID_4_)" fill="#6B2745" d="M77.719,66.38c-0.07,0.163-0.222,0.287-0.41,0.313
			c-0.286,0.039-0.549-0.161-0.588-0.447l-4.559-34.05c-0.039-0.286,0.161-0.549,0.446-0.588c0.286-0.039,0.549,0.162,0.589,0.447
			l4.559,34.051C77.769,66.201,77.754,66.296,77.719,66.38"/>
		<path clip-path="url(#SVGID_4_)" fill="#F6BE70" d="M75.56,60.91l2.155-0.115c0.529-0.028,0.955,0.432,0.886,0.957l-0.734,2.044
			l5.268,6.284c0.6,0.715,0.649,1.773,0.054,2.492c-0.284,0.342-0.688,0.593-1.174,0.677l-4.566,0.791l-1.422-1.742l-0.633,1.939
			l-0.461,0.084c-1.117,0.203-2.12-0.57-2.29-1.612c-0.05-0.311-0.002-0.63,0.105-0.926l2.751-7.556l-0.714-2.263
			C74.652,61.447,75.026,60.939,75.56,60.91"/>
		<path clip-path="url(#SVGID_4_)" fill="#D08B2A" d="M76.477,64.144c-0.029-0.566-0.091-1.128-0.184-1.687
			c-0.031-0.19-0.331-0.167-0.3,0.024c0.093,0.559,0.154,1.121,0.185,1.688C76.188,64.361,76.487,64.336,76.477,64.144"/>
		<path clip-path="url(#SVGID_4_)" fill="#D08B2A" d="M77.272,63.992c0.25-0.544,0.356-1.126,0.315-1.724
			c-0.013-0.193-0.312-0.168-0.299,0.024c0.038,0.548-0.06,1.074-0.288,1.573C76.919,64.042,77.191,64.168,77.272,63.992"/>
		<polygon clip-path="url(#SVGID_4_)" fill="#6B2745" points="75.274,64.252 78.145,63.8 78.519,64.317 75.239,64.867 		"/>
		<path clip-path="url(#SVGID_4_)" fill="#D08B2A" d="M83.591,71.117c-1.618-1.807-3.294-3.562-5.026-5.261
			c-0.138-0.135-0.328,0.097-0.191,0.231c1.805,1.77,3.547,3.601,5.226,5.488C83.613,71.424,83.611,71.27,83.591,71.117"/>
		<path clip-path="url(#SVGID_4_)" fill="#D08B2A" d="M78.044,66.351c-0.07-0.18-0.353-0.076-0.282,0.104
			c0.929,2.397,2.179,4.651,3.311,6.958l0.307-0.054C80.241,71.036,78.98,68.767,78.044,66.351"/>
		<path clip-path="url(#SVGID_4_)" fill="#D08B2A" d="M77.356,70.231c-0.033-0.189-0.333-0.165-0.3,0.024
			c0.22,1.246,0.442,2.492,0.69,3.731l0.295-0.051C77.794,72.706,77.574,71.469,77.356,70.231"/>
		<path clip-path="url(#SVGID_4_)" fill="#D08B2A" d="M79.539,73.678c-0.674-2.044-1.366-4.081-2.081-6.111
			c-0.064-0.183-0.346-0.079-0.282,0.104c0.709,2.013,1.396,4.033,2.065,6.06L79.539,73.678z"/>
		<path clip-path="url(#SVGID_4_)" fill="#D08B2A" d="M76.109,66.99c-0.119,2.43-0.365,4.848-0.735,7.251l0.019-0.004l0.504-1.544
			c0.245-1.876,0.416-3.759,0.509-5.65C76.414,66.853,76.119,66.798,76.109,66.99"/>
		<path clip-path="url(#SVGID_4_)" fill="#D08B2A" d="M75.257,66.613c-0.438,2.521-0.979,5.022-1.615,7.5
			c0.089,0.049,0.182,0.091,0.277,0.126c0.645-2.502,1.19-5.026,1.634-7.573C75.586,66.476,75.29,66.423,75.257,66.613"/>
		<path clip-path="url(#SVGID_4_)" fill="#1E1E1E" d="M34.637,28.565c0,0,6.339,3.991,15.795,3.21
			c9.456-0.781,15.963-7.084,15.963-7.084l-13.621-2.025L34.637,28.565z"/>
		<polygon clip-path="url(#SVGID_4_)" fill="#ED421C" points="56.601,44.73 43.838,44.73 44.313,25.866 56.126,25.866 		"/>
		<path clip-path="url(#SVGID_4_)" fill="#FFA08B" d="M45.522,30.343c0.128,0.839,0.574,1.861-0.266,1.989
			c-0.839,0.128-2.647-0.686-2.775-1.526c-0.127-0.839,0.449-1.624,1.289-1.752C44.609,28.926,45.394,29.503,45.522,30.343"/>
		<path clip-path="url(#SVGID_4_)" fill="#FFA08B" d="M57.631,30.085c-0.168,0.727-1.67,1.583-2.396,1.416
			c-0.729-0.167-0.405-1.295-0.238-2.022c0.168-0.727,0.893-1.182,1.62-1.014C57.344,28.632,57.798,29.358,57.631,30.085"/>
		<polygon clip-path="url(#SVGID_4_)" fill="#FFA08B" points="51.494,38.506 48.844,38.53 48.844,31.533 51.177,31.542 		"/>
		<path clip-path="url(#SVGID_4_)" fill="#FFBDAC" d="M55.982,26.722c0.25,1.643-0.558,4.256-1.204,5.995
			c-0.436,1.172-1.314,2.126-2.45,2.65c-0.965,0.444-2.047,0.871-2.424,0.749c-0.38-0.123-1.053-0.355-1.68-0.575
			c-0.976-0.341-1.814-0.99-2.386-1.852c-0.978-1.477-2.415-3.81-2.6-5.023c-0.537-3.519,1.881-6.807,5.4-7.344
			C52.157,20.785,55.445,23.203,55.982,26.722"/>
		<path clip-path="url(#SVGID_4_)" fill="#ED421C" d="M54.308,23.195c0.231,2.148-1.506,3.822-4.192,5.062
			c-0.051,0.008,0.712-4.429,0.712-4.429s-3.691,2.314-7.396,5.941c-0.065-0.011-0.167-0.507-0.288-1.291
			c-0.793-5.123,3.893-9.399,8.918-8.126l0.454,0.114C53.632,20.75,54.184,22.049,54.308,23.195"/>
		<path clip-path="url(#SVGID_4_)" fill="#ED421C" d="M53.17,21.882c0,0,0.457,2.693,2.902,6.82
			C56.267,28.726,57.717,24.103,53.17,21.882"/>
		<path clip-path="url(#SVGID_4_)" fill="#FFFFFF" d="M49.041,30.252c-0.212,0.891-1.106,1.441-1.996,1.229
			c-0.891-0.212-1.441-1.106-1.229-1.997c0.212-0.89,1.106-1.44,1.996-1.229C48.703,28.468,49.253,29.361,49.041,30.252"/>
		<path clip-path="url(#SVGID_4_)" fill="#1E1E1E" d="M48.413,30.812c-0.134,0.563-0.7,0.912-1.264,0.777
			c-0.563-0.134-0.911-0.699-0.777-1.263c0.134-0.563,0.7-0.911,1.264-0.777C48.199,29.683,48.546,30.249,48.413,30.812"/>
		<path clip-path="url(#SVGID_4_)" d="M49.158,27.42l-0.128,0.447l-1.94-0.27c-0.321-0.045-0.644,0.059-0.878,0.282L45.264,28.9
			l-0.115-0.137l0.92-1.195c0.227-0.285,0.586-0.433,0.949-0.392L49.158,27.42z"/>
		<path clip-path="url(#SVGID_4_)" d="M50.76,27.42l0.192,0.426l1.894-0.551c0.313-0.091,0.65-0.034,0.916,0.154l1.093,0.88
			l0.096-0.154l-1.091-1.056c-0.269-0.252-0.647-0.347-1.003-0.253L50.76,27.42z"/>
		<path clip-path="url(#SVGID_4_)" fill="#FFFFFF" d="M54.347,30.35c-0.212,0.891-1.105,1.44-1.996,1.229
			c-0.891-0.212-1.44-1.106-1.229-1.997s1.105-1.44,1.996-1.229C54.009,28.565,54.559,29.459,54.347,30.35"/>
		<path clip-path="url(#SVGID_4_)" fill="#1E1E1E" d="M53.718,30.909c-0.134,0.563-0.699,0.912-1.263,0.777
			c-0.563-0.134-0.912-0.699-0.777-1.263c0.134-0.564,0.699-0.911,1.263-0.778C53.504,29.78,53.853,30.346,53.718,30.909"/>
		<path clip-path="url(#SVGID_4_)" fill="#970010" d="M47.997,32.531l4.444,0.013c0,0-0.035,2.551-2.222,2.526
			C47.935,35.044,47.997,32.531,47.997,32.531"/>
		<path clip-path="url(#SVGID_4_)" fill="#F68093" d="M48.926,33.042c-0.31,0.047-0.584,0.181-0.805,0.371
			c0.201,0.727,0.725,1.641,2.1,1.657c0.187,0.002,0.357-0.016,0.515-0.048c0.049-0.2,0.062-0.413,0.028-0.629
			C50.629,33.513,49.806,32.908,48.926,33.042"/>
		<polygon clip-path="url(#SVGID_4_)" fill="#262829" points="58.441,22.364 54.201,21.498 53.878,19.985 54.511,18.977 
			53.533,18.369 50.184,7.134 41.322,4.1 40.99,5.245 45.376,8.489 44.906,10.009 45.857,9.888 44.756,20.458 43.654,21.359 
			44.671,21.696 44.597,22.777 40.285,24.886 34.636,28.566 66.395,24.692 		"/>
		<polygon clip-path="url(#SVGID_4_)" fill="#FF7829" points="44.131,21.648 54.199,19.738 54.622,21.558 44.069,22.839 		"/>
		<path clip-path="url(#SVGID_4_)" fill="#FFBA00" d="M51.296,21.695l-0.216-1.168c-0.068-0.373-0.428-0.619-0.801-0.551
			l-1.255,0.231c-0.374,0.07-0.621,0.429-0.552,0.802l0.215,1.167c0.058,0.312,0.319,0.536,0.621,0.561
			c0.059,0.005,0.12,0.002,0.181-0.01l1.255-0.231C51.117,22.427,51.364,22.068,51.296,21.695 M50.666,22.076l-1.254,0.231
			c-0.141,0.026-0.277-0.067-0.304-0.209l-0.214-1.167c-0.027-0.141,0.067-0.277,0.208-0.303l1.255-0.232
			c0.023-0.004,0.047-0.006,0.069-0.004c0.114,0.01,0.213,0.095,0.234,0.213l0.072,0.391l-1,0.073l0.107,0.438l0.966-0.116
			l0.07,0.381C50.901,21.913,50.809,22.05,50.666,22.076"/>
		<polygon clip-path="url(#SVGID_4_)" fill="#FF7829" points="45.01,56.39 46.541,75.148 48.455,75.148 48.647,56.007 		"/>
		<polygon clip-path="url(#SVGID_4_)" fill="#1E1E1E" points="48.479,72.74 48.497,70.992 46.167,70.567 46.312,72.345 		"/>
		<polygon clip-path="url(#SVGID_4_)" fill="#1E1E1E" points="48.519,68.745 48.537,66.997 45.835,66.505 45.98,68.282 		"/>
		<polygon clip-path="url(#SVGID_4_)" fill="#1E1E1E" points="48.559,64.75 48.577,63.002 45.503,62.442 45.649,64.22 		"/>
		<polygon clip-path="url(#SVGID_4_)" fill="#1E1E1E" points="48.599,60.754 48.617,59.007 45.172,58.38 45.317,60.157 		"/>
		<polygon clip-path="url(#SVGID_4_)" fill="#FFA08B" points="47.146,37.241 53.49,37.241 53.775,40.734 50.496,42.16 
			47.003,40.306 		"/>
		<polygon clip-path="url(#SVGID_4_)" fill="#FFA08B" points="56.285,38.066 62.963,40.644 64.019,33.649 65.475,33.769 
			64.709,44.117 55.066,40.843 		"/>
		<polygon clip-path="url(#SVGID_4_)" fill="#FF7829" points="56.591,56.39 55.06,75.148 53.145,75.148 52.953,56.007 		"/>
		<polygon clip-path="url(#SVGID_4_)" fill="#1E1E1E" points="53.121,72.74 53.104,70.992 55.435,70.567 55.288,72.345 		"/>
		<polygon clip-path="url(#SVGID_4_)" fill="#1E1E1E" points="53.081,68.745 53.063,66.997 55.765,66.505 55.62,68.282 		"/>
		<polygon clip-path="url(#SVGID_4_)" fill="#1E1E1E" points="53.041,64.75 53.023,63.002 56.097,62.442 55.951,64.22 		"/>
		<polygon clip-path="url(#SVGID_4_)" fill="#1E1E1E" points="53.001,60.754 52.983,59.007 56.428,58.38 56.283,60.157 		"/>
		<polygon clip-path="url(#SVGID_4_)" fill="#1E1E1E" points="55.729,73.617 52.57,74.191 53.049,78.595 57.069,80.317 
			57.644,79.456 55.251,77.828 		"/>
		<path clip-path="url(#SVGID_4_)" fill="#1E1E1E" d="M61.468,59.779c-0.034-0.664-0.41-1.218-0.792-1.737
			c-2.241-3.051-5.682-9.417-5.682-9.417l-0.159-1.114l0.737-0.514l-0.886-0.885l-0.412-6.662l-3.778-0.138l-3.778-0.075
			l-0.855,6.536l-0.616,0.712c-0.147,0.17-0.153,0.421-0.013,0.598l0.393,0.494l0.018,0.01c-0.955,3.54-2.534,6.414-4.468,9.536
			c-0.193,0.312-0.384,0.638-0.44,1s0.054,0.773,0.358,0.978c0.205,0.137,0.462,0.162,0.683,0.271
			c0.622,0.305,0.753,1.114,1.108,1.708c0.526,0.877,1.702,1.3,2.666,0.96c0.288-0.103,0.564-0.265,0.87-0.271
			c0.453-0.011,0.83,0.322,1.193,0.594c0.956,0.716,2.232,1.13,3.36,0.74c0.883-0.305,1.606-1.066,2.537-1.135
			c1.43-0.108,2.758,1.468,4.092,0.942c0.774-0.306,1.169-1.223,1.937-1.545c0.646-0.271,1.476-0.078,1.832-0.992
			C61.445,60.185,61.478,59.98,61.468,59.779"/>
		<rect x="45.01" y="47.371" clip-path="url(#SVGID_4_)" fill="#FF7829" width="10.025" height="1.13"/>
		<path clip-path="url(#SVGID_4_)" fill="#FFBA00" d="M51.697,48.965l0.166-1.175c0.053-0.375-0.209-0.723-0.584-0.777l-1.264-0.179
			c-0.376-0.053-0.724,0.21-0.778,0.585l-0.166,1.175c-0.045,0.314,0.132,0.609,0.41,0.728c0.055,0.024,0.113,0.04,0.174,0.049
			l1.265,0.179C51.295,49.604,51.645,49.341,51.697,48.965 M50.979,49.127l-1.264-0.179c-0.142-0.02-0.241-0.152-0.221-0.294
			l0.166-1.175c0.02-0.143,0.152-0.242,0.295-0.222l1.263,0.179c0.023,0.003,0.046,0.009,0.066,0.018
			c0.105,0.046,0.172,0.157,0.155,0.276l-0.056,0.394l-0.972-0.248l-0.037,0.449l0.952,0.197l-0.054,0.383
			C51.254,49.048,51.122,49.147,50.979,49.127"/>
		<polygon clip-path="url(#SVGID_4_)" fill="#FFBDAC" points="43.16,39.213 47.116,48.703 56.582,45.846 56.745,44.704 
			48.748,45.684 46.042,39.357 		"/>
		<path clip-path="url(#SVGID_4_)" fill="#1E1E1E" d="M51.987,40.062l0.604-3.24c0,0,2.109-0.754,2.938-0.754
			c0.549,0,1.724,0.99,2.456,1.66c0.391,0.356,0.537,0.906,0.377,1.409l-1.251,3.939L51.987,40.062z"/>
		<path clip-path="url(#SVGID_4_)" fill="#1E1E1E" d="M48.314,40.062l-0.603-3.24c0,0-2.109-0.754-2.939-0.754
			c-0.429,0-1.242,0.606-1.926,1.191c-0.717,0.612-0.997,1.594-0.712,2.492l1.056,3.325L48.314,40.062z"/>
		<polygon clip-path="url(#SVGID_4_)" fill="#1E1E1E" points="45.871,73.617 49.029,74.191 48.551,78.595 44.531,80.317 
			43.956,79.456 46.35,77.828 		"/>
		<path clip-path="url(#SVGID_4_)" fill="#FF7829" d="M50.533,40.75c0,0.193-0.157,0.35-0.35,0.35c-0.193,0-0.351-0.157-0.351-0.35
			s0.157-0.35,0.351-0.35C50.376,40.4,50.533,40.557,50.533,40.75"/>
		<path clip-path="url(#SVGID_4_)" fill="#FF7829" d="M50.533,42.35c0,0.193-0.157,0.35-0.35,0.35c-0.193,0-0.351-0.157-0.351-0.35
			S49.99,42,50.184,42C50.376,42,50.533,42.157,50.533,42.35"/>
		<path clip-path="url(#SVGID_4_)" fill="#FF7829" d="M50.533,44.15c0,0.193-0.157,0.35-0.35,0.35c-0.193,0-0.351-0.157-0.351-0.35
			s0.157-0.35,0.351-0.35C50.376,43.8,50.533,43.957,50.533,44.15"/>
		<path clip-path="url(#SVGID_4_)" fill="#5CDD7E" d="M46.635,69.628c0,2.446-1.983,4.43-4.43,4.43c-2.446,0-4.429-1.983-4.429-4.43
			s1.983-4.43,4.429-4.43C44.652,65.198,46.635,67.182,46.635,69.628"/>
		<path clip-path="url(#SVGID_4_)" fill="#5CDD7E" d="M52.183,67.903c0,1.016-0.824,1.84-1.84,1.84c-1.017,0-1.841-0.824-1.841-1.84
			c0-1.017,0.824-1.841,1.841-1.841C51.358,66.063,52.183,66.887,52.183,67.903"/>
		<path clip-path="url(#SVGID_4_)" fill="#5CDD7E" d="M41.945,61.95c0,1.017-0.824,1.841-1.84,1.841
			c-1.016,0-1.841-0.824-1.841-1.841c0-1.016,0.825-1.84,1.841-1.84C41.121,60.11,41.945,60.935,41.945,61.95"/>
		<path clip-path="url(#SVGID_4_)" fill="#61448B" d="M66.729,58.005c0,0,0.89-2.572,0.89-2.882c0-2.817-7.809-5.103-17.441-5.103
			c-9.633,0-17.442,2.285-17.442,5.103c0,0.359,0.129,0.71,0.371,1.049c0,0,0.831,2.709,0.166,3.885
			c-1.35,2.384-2.125,5.086-2.125,7.958c0,9.531,8.441,17.258,18.853,17.258c10.413,0,18.854-7.727,18.854-17.258
			c0-2.696-0.679-5.246-1.884-7.52C66.563,59.729,66.473,58.834,66.729,58.005"/>
		<path clip-path="url(#SVGID_4_)" fill="#3E265C" d="M64.617,55.277c0,2.193-6.483,3.972-14.48,3.972
			c-7.998,0-14.48-1.778-14.48-3.972s6.483-3.972,14.48-3.972C58.134,51.306,64.617,53.084,64.617,55.277"/>
		<path clip-path="url(#SVGID_4_)" fill="#B8CE58" d="M36.314,56.464c1.84,1.613,7.333,2.785,13.823,2.785
			c6.49,0,11.983-1.172,13.822-2.785c-1.839-1.613-7.332-2.785-13.822-2.785C43.647,53.679,38.154,54.851,36.314,56.464"/>
		<path clip-path="url(#SVGID_4_)" fill="#3E265C" d="M68.854,68.015c0-2.696-0.679-5.246-1.884-7.521
			c-0.015-0.026-0.105-0.221-0.119-0.249l-4.831,1.907l-9.429,2.245c0,0,4.145,14.186-15.859,15.875c3.407,3.09,8.094,5,13.268,5
			C60.412,85.272,68.854,77.546,68.854,68.015"/>
		<path clip-path="url(#SVGID_4_)" fill="#98B733" d="M39.267,46.433c0,0.587-0.476,1.063-1.063,1.063s-1.063-0.476-1.063-1.063
			s0.476-1.063,1.063-1.063S39.267,45.846,39.267,46.433"/>
		<path clip-path="url(#SVGID_4_)" fill="#AEC100" d="M56.385,57.019c0,0.559-2.211,1.011-4.938,1.011
			c-2.729,0-4.94-0.452-4.94-1.011c0-0.558,2.211-1.01,4.94-1.01C54.174,56.009,56.385,56.461,56.385,57.019"/>
		<path clip-path="url(#SVGID_4_)" fill="#AEC100" d="M51.692,56.203c0,0.558-2.211,1.011-4.939,1.011s-4.939-0.453-4.939-1.011
			s2.211-1.01,4.939-1.01S51.692,55.646,51.692,56.203"/>
		<path clip-path="url(#SVGID_4_)" fill="#C1D610" d="M49.627,56.177c0.001-0.002,0.002-0.003,0.004-0.005
			c0.063-1.67-1.272-3.044-2.928-3.044c-1.656,0-2.992,1.374-2.928,3.044c0.001,0.002,0.002,0.003,0.003,0.005l0.316,0.078
			c1.679,0.416,3.434,0.424,5.117,0.021L49.627,56.177z"/>
		<path clip-path="url(#SVGID_4_)" fill="#3E265C" d="M66.853,60.246c-0.304-0.708-0.354-1.5-0.124-2.241
			c0,0,0.329-0.95,0.587-1.766c-2.619,2.781-9.305,4.76-17.145,4.76c-7.707,0-14.296-1.911-17.006-4.618
			c0.177,0.655,0.66,2.692,0.109,3.672c2.778,2.647,9.297,4.505,16.897,4.505C57.584,64.558,63.964,62.79,66.853,60.246"/>
		<path clip-path="url(#SVGID_4_)" fill="#B8CE58" d="M57.623,52.984c0,0.173-0.142,0.313-0.314,0.313
			c-0.174,0-0.314-0.141-0.314-0.313c0-0.174,0.141-0.314,0.314-0.314C57.481,52.67,57.623,52.811,57.623,52.984"/>
		<path clip-path="url(#SVGID_4_)" fill="#B8CE58" d="M60.966,53.094c0,0.173-0.141,0.313-0.313,0.313
			c-0.174,0-0.314-0.14-0.314-0.313c0-0.174,0.141-0.314,0.314-0.314C60.825,52.779,60.966,52.92,60.966,53.094"/>
		<path clip-path="url(#SVGID_4_)" fill="#B8CE58" d="M58.197,55.977h-0.785v-2.31c0-0.135,0.109-0.244,0.243-0.244h0.299
			c0.135,0,0.243,0.109,0.243,0.244V55.977z"/>
		<path clip-path="url(#SVGID_4_)" fill="#B8CE58" d="M58.964,56.487h-0.786v-2.31c0-0.135,0.109-0.244,0.244-0.244h0.298
			c0.135,0,0.244,0.109,0.244,0.244V56.487z"/>
		<path clip-path="url(#SVGID_4_)" fill="#B8CE58" d="M59.729,55.74h-0.785v-2.31c0-0.134,0.108-0.243,0.243-0.243h0.299
			c0.134,0,0.243,0.109,0.243,0.243V55.74z"/>
		<path clip-path="url(#SVGID_4_)" fill="#B8CE58" d="M60.456,56.369h-0.785v-2.31c0-0.135,0.108-0.243,0.243-0.243h0.299
			c0.134,0,0.243,0.108,0.243,0.243V56.369z"/>
		<polygon clip-path="url(#SVGID_4_)" fill="#3E265C" points="36.731,80.272 39.121,87.9 41.019,87.9 40.544,81.572 		"/>
		<polygon clip-path="url(#SVGID_4_)" fill="#3E265C" points="62.218,80.272 59.829,87.9 57.931,87.9 58.405,81.572 		"/>
		<path clip-path="url(#SVGID_4_)" fill="#98B733" d="M44.963,50.68c0,0.971-0.787,1.758-1.758,1.758
			c-0.971,0-1.759-0.787-1.759-1.758c0-0.973,0.788-1.759,1.759-1.759C44.176,48.92,44.963,49.707,44.963,50.68"/>
		<g opacity="0.8" clip-path="url(#SVGID_4_)">
			<g>
				<defs>
					<rect id="SVGID_7_" x="42.911" y="49.086" width="1.474" height="0.987"/>
				</defs>
				<clipPath id="SVGID_8_">
					<use xlink:href="#SVGID_7_"  overflow="visible"/>
				</clipPath>
				<path clip-path="url(#SVGID_8_)" fill="#FFFFFC" d="M43.2,49.687c0.268-0.001,0.494,0.1,0.677,0.294
					c0.264,0.282,0.688-0.143,0.424-0.424c-0.287-0.305-0.684-0.472-1.101-0.47C42.814,49.088,42.813,49.688,43.2,49.687"/>
			</g>
		</g>
		<g opacity="0.8" clip-path="url(#SVGID_4_)">
			<g>
				<defs>
					<rect id="SVGID_9_" x="43.971" y="50.337" width="0.58" height="0.601"/>
				</defs>
				<clipPath id="SVGID_10_">
					<use xlink:href="#SVGID_9_"  overflow="visible"/>
				</clipPath>
				<path clip-path="url(#SVGID_10_)" fill="#FFFFFC" d="M44.261,50.937c0.386,0,0.387-0.6,0-0.6
					C43.875,50.337,43.874,50.937,44.261,50.937"/>
			</g>
		</g>
		<path clip-path="url(#SVGID_4_)" fill="#98B733" d="M58.482,48.744c0.711-0.129,1.393,0.343,1.521,1.054
			c0.13,0.71-0.342,1.392-1.053,1.522c-0.712,0.129-1.393-0.343-1.522-1.055C57.299,49.555,57.771,48.873,58.482,48.744"/>
		<g opacity="0.8" clip-path="url(#SVGID_4_)">
			<g>
				<defs>
					<rect id="SVGID_11_" x="57.531" y="49.287" width="0.628" height="1.136"/>
				</defs>
				<clipPath id="SVGID_12_">
					<use xlink:href="#SVGID_11_"  overflow="visible"/>
				</clipPath>
				<path clip-path="url(#SVGID_12_)" fill="#FFFFFC" d="M57.989,50.167c-0.036-0.196,0.008-0.375,0.126-0.535
					c0.171-0.231-0.196-0.485-0.367-0.254c-0.186,0.25-0.255,0.563-0.197,0.869C57.603,50.529,58.042,50.45,57.989,50.167"/>
			</g>
		</g>
		<g opacity="0.8" clip-path="url(#SVGID_4_)">
			<g>
				<defs>
					<rect id="SVGID_13_" x="58.321" y="49.047" width="0.447" height="0.433"/>
				</defs>
				<clipPath id="SVGID_14_">
					<use xlink:href="#SVGID_13_"  overflow="visible"/>
				</clipPath>
				<path clip-path="url(#SVGID_14_)" fill="#FFFFFC" d="M58.765,49.224c-0.052-0.283-0.491-0.204-0.439,0.08
					C58.377,49.586,58.816,49.507,58.765,49.224"/>
			</g>
		</g>
		<path clip-path="url(#SVGID_4_)" fill="#98B733" d="M64.297,47.448c0.545-0.099,1.066,0.262,1.165,0.807
			c0.1,0.545-0.263,1.067-0.807,1.166c-0.545,0.099-1.067-0.263-1.166-0.807C63.391,48.069,63.752,47.547,64.297,47.448"/>
		<g opacity="0.8" clip-path="url(#SVGID_4_)">
			<g>
				<defs>
					<rect id="SVGID_15_" x="63.568" y="47.864" width="0.481" height="0.87"/>
				</defs>
				<clipPath id="SVGID_16_">
					<use xlink:href="#SVGID_15_"  overflow="visible"/>
				</clipPath>
				<path clip-path="url(#SVGID_16_)" fill="#FFFFFC" d="M63.919,48.538c-0.027-0.15,0.006-0.287,0.097-0.409
					c0.131-0.178-0.15-0.372-0.281-0.195c-0.142,0.191-0.195,0.431-0.151,0.665C63.623,48.815,63.96,48.755,63.919,48.538"/>
			</g>
		</g>
		<g opacity="0.8" clip-path="url(#SVGID_4_)">
			<g>
				<defs>
					<rect id="SVGID_17_" x="64.173" y="47.681" width="0.344" height="0.332"/>
				</defs>
				<clipPath id="SVGID_18_">
					<use xlink:href="#SVGID_17_"  overflow="visible"/>
				</clipPath>
				<path clip-path="url(#SVGID_18_)" fill="#FFFFFC" d="M64.513,47.816c-0.039-0.217-0.376-0.156-0.336,0.061
					C64.216,48.094,64.553,48.033,64.513,47.816"/>
			</g>
		</g>
		<path clip-path="url(#SVGID_4_)" fill="#98B733" d="M38.521,52.179c0.545-0.1,1.067,0.263,1.166,0.807
			c0.099,0.545-0.263,1.067-0.808,1.166s-1.066-0.263-1.165-0.808C37.615,52.799,37.976,52.277,38.521,52.179"/>
		<g opacity="0.8" clip-path="url(#SVGID_4_)">
			<g>
				<defs>
					<rect id="SVGID_19_" x="37.792" y="52.595" width="0.481" height="0.87"/>
				</defs>
				<clipPath id="SVGID_20_">
					<use xlink:href="#SVGID_19_"  overflow="visible"/>
				</clipPath>
				<path clip-path="url(#SVGID_20_)" fill="#FFFFFC" d="M38.144,53.269c-0.028-0.15,0.005-0.287,0.096-0.409
					c0.131-0.178-0.151-0.372-0.282-0.194c-0.141,0.19-0.194,0.431-0.151,0.665C37.848,53.546,38.184,53.485,38.144,53.269"/>
			</g>
		</g>
		<g opacity="0.8" clip-path="url(#SVGID_4_)">
			<g>
				<defs>
					<rect id="SVGID_21_" x="38.397" y="52.411" width="0.343" height="0.331"/>
				</defs>
				<clipPath id="SVGID_22_">
					<use xlink:href="#SVGID_21_"  overflow="visible"/>
				</clipPath>
				<path clip-path="url(#SVGID_22_)" fill="#FFFFFC" d="M38.737,52.546c-0.039-0.217-0.376-0.155-0.336,0.062
					C38.44,52.824,38.777,52.763,38.737,52.546"/>
			</g>
		</g>
		<path clip-path="url(#SVGID_4_)" fill="#98B733" d="M38.38,39.354c0.544-0.099,1.066,0.262,1.166,0.807
			c0.098,0.545-0.263,1.067-0.808,1.166c-0.545,0.099-1.066-0.263-1.166-0.807C37.475,39.975,37.835,39.453,38.38,39.354"/>
		<g opacity="0.8" clip-path="url(#SVGID_4_)">
			<g>
				<defs>
					<rect id="SVGID_23_" x="37.651" y="39.77" width="0.481" height="0.87"/>
				</defs>
				<clipPath id="SVGID_24_">
					<use xlink:href="#SVGID_23_"  overflow="visible"/>
				</clipPath>
				<path clip-path="url(#SVGID_24_)" fill="#FFFFFC" d="M38.003,40.443c-0.028-0.15,0.006-0.287,0.096-0.41
					c0.131-0.177-0.15-0.371-0.281-0.194c-0.142,0.191-0.195,0.431-0.151,0.665C37.707,40.72,38.044,40.661,38.003,40.443"/>
			</g>
		</g>
		<g opacity="0.8" clip-path="url(#SVGID_4_)">
			<g>
				<defs>
					<rect id="SVGID_25_" x="38.257" y="39.586" width="0.343" height="0.332"/>
				</defs>
				<clipPath id="SVGID_26_">
					<use xlink:href="#SVGID_25_"  overflow="visible"/>
				</clipPath>
				<path clip-path="url(#SVGID_26_)" fill="#FFFFFC" d="M38.597,39.721c-0.04-0.217-0.376-0.156-0.337,0.061
					C38.3,39.998,38.636,39.938,38.597,39.721"/>
			</g>
		</g>
		<g opacity="0.8" clip-path="url(#SVGID_4_)">
			<g>
				<defs>
					<rect id="SVGID_27_" x="37.458" y="45.682" width="0.525" height="0.518"/>
				</defs>
				<clipPath id="SVGID_28_">
					<use xlink:href="#SVGID_27_"  overflow="visible"/>
				</clipPath>
				<path clip-path="url(#SVGID_28_)" fill="#FFFFFC" d="M37.934,45.791c-0.193-0.274-0.62,0.025-0.427,0.3
					C37.701,46.366,38.126,46.066,37.934,45.791"/>
			</g>
		</g>
		<g opacity="0.8" clip-path="url(#SVGID_4_)">
			<g>
				<defs>
					<rect id="SVGID_29_" x="45.974" y="53.36" width="2.675" height="1.355"/>
				</defs>
				<clipPath id="SVGID_30_">
					<use xlink:href="#SVGID_29_"  overflow="visible"/>
				</clipPath>
				<path clip-path="url(#SVGID_30_)" fill="#FFFFFC" d="M46.264,53.96c0.649-0.002,1.382,0.072,1.808,0.63
					c0.231,0.303,0.752,0.004,0.518-0.303c-0.568-0.745-1.429-0.93-2.326-0.927C45.878,53.361,45.876,53.961,46.264,53.96"/>
			</g>
		</g>
		<g opacity="0.8" clip-path="url(#SVGID_4_)">
			<g>
				<defs>
					<rect id="SVGID_31_" x="48.443" y="55.061" width="0.58" height="0.6"/>
				</defs>
				<clipPath id="SVGID_32_">
					<use xlink:href="#SVGID_31_"  overflow="visible"/>
				</clipPath>
				<path clip-path="url(#SVGID_32_)" fill="#FFFFFC" d="M48.733,55.66c0.386,0,0.387-0.6,0-0.6
					C48.347,55.061,48.346,55.66,48.733,55.66"/>
			</g>
		</g>
		<path clip-path="url(#SVGID_4_)" fill="#98B733" d="M54.058,57.019c0,0.295-1.169,0.534-2.611,0.534s-2.613-0.239-2.613-0.534
			s1.17-0.534,2.613-0.534S54.058,56.724,54.058,57.019"/>
		<path clip-path="url(#SVGID_4_)" fill="#FFFFFF" d="M64.146,86.051l-0.039-0.046c0.017-0.116,0.146-0.811,0.874-1.218l-0.097-0.05
			c-0.623,0.373-0.805,0.951-0.854,1.18l-0.426-0.495c-0.016-0.088-0.101-0.715,0.601-1.038l-0.102-0.053
			c-0.54,0.28-0.606,0.737-0.602,0.972l-0.645-0.751c-0.002-0.061-0.001-0.304,0.15-0.473c0.074-0.084,0.175-0.138,0.3-0.162
			l-0.118-0.062c-0.1,0.034-0.183,0.088-0.249,0.163c-0.125,0.139-0.161,0.314-0.171,0.431l-0.644-0.747
			c-0.005-0.022-0.021-0.1,0.024-0.166c0.038-0.054,0.11-0.091,0.213-0.109l-0.119-0.063c-0.076,0.027-0.132,0.067-0.168,0.121
			c-0.025,0.036-0.037,0.073-0.043,0.107l-0.525-0.611l-0.19-0.099l-0.005,0.011l0.658,0.766c-0.08-0.003-0.149,0.015-0.209,0.056
			c-0.068,0.049-0.109,0.119-0.136,0.184l-0.315-1.001l-0.06,0.114l0.289,0.913c-0.174-0.11-0.366-0.079-0.47-0.049l0.104-0.718
			l-0.128,0.245l-0.064,0.446c-0.037-0.025-0.078-0.04-0.123-0.042c-0.008,0-0.016,0.001-0.024,0.001l-0.053,0.104
			c0.025-0.008,0.05-0.014,0.074-0.014c0.042,0.002,0.078,0.021,0.11,0.06l-0.127,0.87c-0.188-0.106-0.35-0.123-0.481-0.1
			l-0.054,0.104c0.131-0.041,0.307-0.04,0.521,0.094l-0.121,0.831c-0.329-0.124-0.633-0.108-0.848-0.065l-0.055,0.106
			c0.206-0.051,0.535-0.088,0.889,0.052l-0.155,1.065c-0.442-0.349-0.88-0.349-1.163-0.291l-0.055,0.104
			c0.265-0.069,0.732-0.104,1.203,0.291l-0.013,0.088c-0.004,0.024,0.014,0.048,0.038,0.052c0.02,0.003,0.038-0.008,0.047-0.024
			c0.002-0.004,0.004-0.009,0.005-0.015l0.014-0.094c0.13-0.086,1.053-0.654,1.855-0.161l0.032,0.102
			c0.008,0.023,0.033,0.038,0.058,0.029c0.012-0.004,0.021-0.012,0.026-0.022c0.005-0.01,0.007-0.022,0.002-0.034l-0.03-0.098
			c0.074-0.111,0.562-0.78,1.482-0.776l0.039,0.044c0.016,0.021,0.045,0.021,0.063,0.005c0.005-0.004,0.008-0.008,0.011-0.013
			C64.161,86.085,64.159,86.065,64.146,86.051 M62.788,84.609l0.643,0.748c-0.351-0.089-0.642-0.067-0.866,0.065
			c-0.188,0.111-0.284,0.271-0.333,0.387l-0.313-0.989c0.011-0.036,0.057-0.156,0.193-0.23
			C62.274,84.502,62.501,84.509,62.788,84.609 M61.815,83.789c0.062-0.044,0.146-0.051,0.247-0.024l0.614,0.716
			c-0.248-0.065-0.453-0.056-0.609,0.031c-0.095,0.052-0.153,0.121-0.19,0.181l-0.197-0.629
			C61.684,84.028,61.706,83.865,61.815,83.789 M61.057,83.976c0.077-0.029,0.348-0.11,0.537,0.116l0.197,0.627
			c-0.382-0.209-0.7-0.043-0.853,0.069L61.057,83.976z M60.919,84.923c0.063-0.064,0.438-0.404,0.914-0.072l0.312,0.986
			c-0.67-0.48-1.147-0.263-1.34-0.127L60.919,84.923z M60.63,86.909l0.155-1.067c0.072-0.069,0.59-0.512,1.406,0.143l0.238,0.756
			C61.689,86.354,60.887,86.756,60.63,86.909 M62.523,86.733l-0.246-0.778c0.013-0.053,0.087-0.309,0.334-0.454
			c0.229-0.136,0.541-0.142,0.927-0.02l0.424,0.495C63.152,86.005,62.676,86.532,62.523,86.733"/>
		<path clip-path="url(#SVGID_4_)" fill="#FFFFFF" d="M65.568,83.377c0.003-0.005,0.005-0.011,0.005-0.017
			c0.003-0.024-0.016-0.047-0.04-0.05l-0.059-0.006c-0.532-0.752-0.265-1.535-0.217-1.659l0.098-0.03
			c0.013-0.004,0.021-0.013,0.027-0.022c0.005-0.011,0.007-0.022,0.003-0.035c-0.008-0.023-0.033-0.037-0.058-0.029l-0.102,0.032
			c-0.864-0.375-0.93-1.456-0.934-1.612l0.069-0.065c0.004-0.003,0.007-0.008,0.009-0.012c0.008-0.017,0.007-0.038-0.007-0.052
			c-0.018-0.019-0.046-0.02-0.064-0.002l-0.064,0.061c-0.595-0.158-0.834-0.561-0.929-0.817l-0.055,0.104
			c0.116,0.266,0.367,0.623,0.906,0.785l-0.783,0.739c-0.317-0.21-0.477-0.5-0.553-0.698l-0.056,0.106
			c0.088,0.2,0.25,0.458,0.541,0.656l-0.611,0.576c-0.232-0.1-0.335-0.243-0.376-0.373l-0.054,0.104
			c0.057,0.122,0.163,0.245,0.358,0.337l-0.641,0.604c-0.049-0.004-0.086-0.022-0.111-0.057c-0.015-0.019-0.023-0.042-0.031-0.067
			l-0.054,0.104c0.004,0.006,0.007,0.013,0.013,0.019c0.027,0.036,0.063,0.062,0.104,0.077l-0.328,0.31l-0.128,0.245l0.528-0.498
			c0.034,0.103,0.12,0.277,0.31,0.356l-0.914,0.288l-0.059,0.114l1.001-0.316c-0.038,0.059-0.072,0.133-0.072,0.217
			c0,0.071,0.025,0.14,0.074,0.202l-1.005-0.099l-0.006,0.011l0.19,0.099l0.802,0.079c-0.025,0.023-0.049,0.056-0.063,0.097
			c-0.023,0.061-0.023,0.13-0.003,0.207l0.12,0.063c-0.044-0.095-0.056-0.177-0.032-0.237c0.028-0.075,0.1-0.107,0.121-0.115
			l0.981,0.097c-0.09,0.075-0.213,0.205-0.255,0.388c-0.022,0.097-0.019,0.196,0.01,0.297l0.117,0.061
			c-0.051-0.115-0.064-0.229-0.039-0.337c0.053-0.222,0.251-0.362,0.302-0.395l0.985,0.097c-0.195,0.13-0.532,0.447-0.45,1.05
			l0.101,0.053c-0.138-0.76,0.424-1.051,0.505-1.087l0.65,0.063c-0.159,0.171-0.528,0.651-0.476,1.377l0.097,0.05
			c-0.085-0.83,0.408-1.335,0.494-1.415l0.061,0.006C65.543,83.403,65.561,83.393,65.568,83.377 M63.16,82.575
			c-0.018-0.155,0.054-0.261,0.077-0.291l0.989-0.313c-0.065,0.106-0.142,0.278-0.125,0.494c0.02,0.261,0.17,0.512,0.445,0.748
			l-0.983-0.097C63.316,82.939,63.181,82.758,63.16,82.575 M62.48,82.522l0.629-0.198c-0.028,0.063-0.052,0.152-0.04,0.259
			c0.02,0.178,0.129,0.352,0.325,0.518l-0.938-0.093c-0.08-0.067-0.122-0.14-0.122-0.216C62.334,82.659,62.454,82.547,62.48,82.522
			 M62.648,81.5c-0.006,0.189,0.042,0.546,0.433,0.738l-0.627,0.198c-0.294-0.025-0.383-0.293-0.403-0.373L62.648,81.5z
			 M63.325,80.861c0,0.235,0.097,0.751,0.873,1.024l-0.986,0.311c-0.545-0.199-0.481-0.7-0.465-0.789L63.325,80.861z M65.103,81.6
			l-0.756,0.239c-1.004-0.292-0.94-0.97-0.925-1.068l0.784-0.74C64.229,80.328,64.36,81.216,65.103,81.6 M65.358,83.294l-0.65-0.064
			c-0.321-0.244-0.496-0.503-0.516-0.769c-0.022-0.287,0.144-0.494,0.18-0.535l0.778-0.246
			C65.073,81.921,64.916,82.613,65.358,83.294"/>
		<path clip-path="url(#SVGID_4_)" fill="#8D4E23" d="M66.844,25.654c-0.249-0.121-0.548-0.016-0.668,0.232l-14.95,30.85
			c-0.003,0.006-0.004,0.012-0.007,0.018h1.109l14.747-30.431C67.195,26.073,67.092,25.775,66.844,25.654"/>
		<path clip-path="url(#SVGID_4_)" fill="#FFBDAC" d="M56.835,44.156c0.117-0.38,0.181-0.827,0.243-1.203
			c0.021-0.12,0.129-0.205,0.25-0.196c0.135,0.009,0.294,0.023,0.435,0.033c0.165,0.012,0.276,0.174,0.229,0.332
			c-0.017,0.055-0.032,0.107-0.039,0.149c0.494,0.066,1.208,0.222,1.696,0.329c0.041,0.009,0.086,0.021,0.109,0.057
			c0.018,0.027,0.018,0.061,0.018,0.093l-0.002,0.458c0,0.236-0.192,0.427-0.429,0.427c-0.023,0-0.048,0-0.067,0.013
			c-0.047,0.028-0.039,0.098-0.024,0.152c0.113-0.02,0.228,0.06,0.278,0.163c0.053,0.102,0.058,0.222,0.055,0.338
			c-0.004,0.223-0.029,0.445-0.071,0.665c-0.085,0.448-0.514,0.747-0.966,0.69l-0.95-0.122c-0.425-0.054-0.836-0.251-1.086-0.598
			c-0.015-0.02-0.028-0.041-0.039-0.063c-0.032-0.065-0.047-0.136-0.059-0.208c-0.042-0.266-0.085-0.67,0.041-0.921
			C56.567,44.525,56.756,44.413,56.835,44.156"/>
		<path clip-path="url(#SVGID_4_)" fill="#FFA08B" d="M65.385,30.678c-0.104-0.333-0.255-0.652-0.446-0.945
			c-0.182-0.278-0.405-0.536-0.697-0.694c-0.291-0.158-0.657-0.203-0.954-0.055c-0.125,0.062-0.24,0.166-0.27,0.302
			c-0.038,0.173,0.342,0.599,0.342,0.599l0.233,0.492l-0.531,0.082c-0.256,0.04-0.444,0.261-0.443,0.521l0.006,1.01
			c0.001,0.201,0.098,0.389,0.261,0.507l0.609,0.444l0.496,0.903l1.478-0.028C65.468,33.816,65.645,31.511,65.385,30.678"/>
		<rect x="49.604" y="83.37" clip-path="url(#SVGID_4_)" fill="#3E265C" width="2.532" height="3.006"/>
	</g>
</g>
</svg>
