<?xml version="1.0" encoding="utf-8"?>
<!-- Generator: Adobe Illustrator 16.0.0, SVG Export Plug-In . SVG Version: 6.00 Build 0)  -->
<!DOCTYPE svg PUBLIC "-//W3C//DTD SVG 1.1//EN" "http://www.w3.org/Graphics/SVG/1.1/DTD/svg11.dtd">
<svg version="1.1" id="Layer_1" xmlns="http://www.w3.org/2000/svg" xmlns:xlink="http://www.w3.org/1999/xlink" x="0px" y="0px"
	 width="100px" height="100px" viewBox="0 0 100 100" enable-background="new 0 0 100 100" xml:space="preserve">
<g>
	<defs>
		<rect id="SVGID_1_" width="100" height="100"/>
	</defs>
	<clipPath id="SVGID_2_">
		<use xlink:href="#SVGID_1_"  overflow="visible"/>
	</clipPath>
	<rect clip-path="url(#SVGID_2_)" fill="#E4F2F9" width="100" height="100"/>
	<g clip-path="url(#SVGID_2_)">
		<defs>
			<rect id="SVGID_3_" width="100" height="100"/>
		</defs>
		<clipPath id="SVGID_4_">
			<use xlink:href="#SVGID_3_"  overflow="visible"/>
		</clipPath>
		<path clip-path="url(#SVGID_4_)" fill="#1B1464" d="M68.626,61.802c-2.42-2.42-5.237-4.319-8.374-5.646
			c-3.245-1.374-6.695-2.07-10.252-2.07c-3.557,0-7.006,0.696-10.252,2.07c-3.137,1.326-5.954,3.226-8.374,5.646
			s-4.319,5.237-5.646,8.373c-1.373,3.246-2.069,6.695-2.069,10.253c0,3.557,0.696,7.006,2.069,10.252
			c1.327,3.137,3.226,5.954,5.646,8.374s5.237,4.319,8.374,5.646c3.246,1.374,6.695,2.069,10.252,2.069
			c3.557,0,7.007-0.695,10.252-2.069c3.137-1.326,5.954-3.226,8.374-5.646s4.319-5.237,5.646-8.374
			c1.372-3.246,2.068-6.695,2.068-10.252c0-3.558-0.696-7.007-2.068-10.253C72.945,67.039,71.046,64.222,68.626,61.802"/>
		<path clip-path="url(#SVGID_4_)" fill="#FF931E" d="M50.001,51.586c-15.93,0-28.841,12.913-28.841,28.842
			c0,15.928,12.912,28.841,28.841,28.841c15.928,0,28.84-12.913,28.84-28.841C78.841,64.499,65.929,51.586,50.001,51.586
			 M74.272,90.68c-1.327,3.137-3.227,5.954-5.646,8.374c-2.421,2.42-5.238,4.319-8.375,5.646c-3.245,1.373-6.695,2.069-10.251,2.069
			c-3.559,0-7.007-0.696-10.253-2.069c-3.136-1.326-5.954-3.226-8.373-5.646c-2.42-2.42-4.32-5.237-5.646-8.374
			c-1.373-3.246-2.069-6.695-2.069-10.252c0-3.558,0.696-7.007,2.069-10.253c1.326-3.136,3.226-5.953,5.646-8.373
			c2.419-2.42,5.237-4.319,8.373-5.646c3.246-1.373,6.695-2.069,10.253-2.069c3.556,0,7.006,0.696,10.251,2.069
			c3.137,1.327,5.954,3.227,8.375,5.646c2.419,2.42,4.318,5.237,5.646,8.373c1.372,3.246,2.068,6.695,2.068,10.253
			C76.341,83.984,75.645,87.434,74.272,90.68"/>
		<path clip-path="url(#SVGID_4_)" fill="#333333" d="M4.024,64.229c-0.778-0.141-1.57-0.229-2.353-0.229
			c-3.034,0-6.001,1.089-8.355,3.035c-2.38,1.968-3.994,4.746-4.544,7.791C-12.517,81.948-7.771,88.79-0.65,90.078
			c0.78,0.141,1.572,0.212,2.355,0.212c3.033,0,6-1.072,8.353-3.019c2.38-1.969,3.994-4.731,4.545-7.776
			c0.624-3.449-0.133-6.94-2.131-9.821C10.474,66.793,7.473,64.854,4.024,64.229"/>
		<path clip-path="url(#SVGID_4_)" fill="#7AC943" d="M4.468,61.787c-0.94-0.17-1.875-0.252-2.798-0.252
			c-7.413,0.001-13.993,5.295-15.36,12.848c-1.536,8.491,4.103,16.619,12.594,18.156c0.941,0.17,1.878,0.252,2.801,0.252
			c7.412,0,13.991-5.295,15.357-12.846C18.599,71.454,12.959,63.323,4.468,61.787 M14.603,79.495
			c-0.551,3.045-2.165,5.808-4.545,7.776c-2.353,1.946-5.319,3.019-8.352,3.019c-0.783,0-1.576-0.071-2.355-0.212
			c-7.122-1.288-11.868-8.13-10.579-15.251c0.551-3.045,2.164-5.823,4.545-7.791C-4.331,65.09-1.363,64,1.67,64
			c0.784,0,1.575,0.089,2.353,0.229c3.45,0.624,6.45,2.563,8.448,5.444S15.227,76.046,14.603,79.495"/>
		<path clip-path="url(#SVGID_4_)" fill="#1B1464" d="M30.405,45.656c0.317-3.491-0.745-6.887-2.989-9.581
			c-2.502-3-6.179-4.7-10.09-4.7c-3.06,0-6.042,1.061-8.395,3.024c-2.693,2.245-4.351,5.384-4.669,8.876
			c-0.316,3.491,0.746,6.896,2.991,9.59c2.5,3,6.177,4.723,10.089,4.723c3.062,0,6.042-1.078,8.396-3.041
			C28.431,52.302,30.088,49.148,30.405,45.656"/>
		<path clip-path="url(#SVGID_4_)" fill="#3FA9F5" d="M29.336,34.465c-3.091-3.707-7.534-5.631-12.01-5.63
			c-3.527,0-7.075,1.188-9.996,3.623c-6.629,5.526-7.524,15.398-1.997,22.027c3.089,3.707,7.533,5.64,12.009,5.64h0.006
			c3.526,0,7.071-1.209,9.991-3.643C33.967,50.956,34.861,41.094,29.336,34.465 M7.253,52.865c-2.245-2.693-3.307-6.099-2.99-9.59
			c0.317-3.492,1.975-6.631,4.668-8.876c2.354-1.963,5.335-3.024,8.396-3.024c3.91,0,7.588,1.7,10.089,4.7
			c2.245,2.694,3.306,6.09,2.989,9.581c-0.317,3.492-1.974,6.646-4.667,8.891c-2.354,1.963-5.334,3.041-8.396,3.041
			C13.431,57.588,9.753,55.865,7.253,52.865"/>
		<path clip-path="url(#SVGID_4_)" fill="#333333" d="M111.622,74.827c-0.551-3.045-2.165-5.806-4.545-7.773
			c-2.354-1.946-5.32-3.019-8.354-3.019c-0.783,0-1.575,0.072-2.354,0.213c-3.449,0.624-6.449,2.554-8.447,5.434
			c-1.998,2.882-2.755,6.368-2.131,9.818c0.551,3.045,2.165,5.805,4.545,7.773c2.353,1.946,5.319,3.018,8.353,3.018
			c0.782,0,1.575-0.071,2.355-0.213C108.165,88.79,112.91,81.948,111.622,74.827"/>
		<path clip-path="url(#SVGID_4_)" fill="#D9E021" d="M114.082,74.383c-1.366-7.553-7.946-12.848-15.359-12.848
			c-0.923,0-1.857,0.082-2.798,0.252c-8.491,1.536-14.13,9.667-12.594,18.158c1.366,7.551,7.943,12.846,15.357,12.846
			c0.923,0,1.86-0.082,2.8-0.252C109.979,91.002,115.618,82.874,114.082,74.383 M90.336,87.273c-2.38-1.969-3.994-4.729-4.545-7.773
			c-0.624-3.45,0.133-6.937,2.131-9.817s4.998-4.811,8.447-5.435c0.778-0.141,1.57-0.213,2.354-0.213
			c3.034,0,6.001,1.072,8.354,3.019c2.38,1.968,3.994,4.729,4.545,7.773c1.288,7.121-3.457,13.963-10.578,15.251
			c-0.78,0.142-1.573,0.213-2.355,0.213C95.655,90.291,92.688,89.22,90.336,87.273"/>
		<path clip-path="url(#SVGID_4_)" fill="#1B1464" d="M96.131,43.274c-0.317-3.491-1.975-6.65-4.668-8.895
			c-2.354-1.963-5.336-3.044-8.395-3.044c-3.911,0-7.59,1.721-10.091,4.721c-2.243,2.693-3.307,6.099-2.989,9.59
			c0.316,3.492,1.975,6.651,4.667,8.896c2.354,1.962,5.334,3.043,8.391,3.043c3.917,0,7.594-1.721,10.095-4.721
			C95.386,50.171,96.447,46.765,96.131,43.274"/>
		<path clip-path="url(#SVGID_4_)" fill="#FF1D25" d="M95.061,54.485c5.526-6.629,4.631-16.491-1.997-22.016
			c-2.921-2.435-6.469-3.634-9.995-3.634c-4.477,0-8.92,1.913-12.012,5.62c-5.524,6.629-4.631,16.501,1.998,22.027
			c2.92,2.434,6.465,3.643,9.991,3.643h0.005C87.527,60.125,91.971,58.192,95.061,54.485 M83.046,57.585
			c-3.057,0-6.036-1.081-8.391-3.043c-2.692-2.245-4.351-5.404-4.667-8.896c-0.317-3.491,0.744-6.897,2.989-9.59
			c2.501-3,6.18-4.721,10.091-4.721c3.059,0,6.039,1.081,8.395,3.044c2.693,2.245,4.351,5.404,4.668,8.895
			c0.316,3.491-0.745,6.897-2.99,9.59C90.64,55.864,86.963,57.585,83.046,57.585"/>
	</g>
	<g clip-path="url(#SVGID_2_)">
		<defs>
			<path id="SVGID_5_" d="M8.932,34.63c-5.568,4.641-6.32,12.916-1.679,18.484c2.596,3.113,6.329,4.72,10.088,4.72
				c2.963,0.001,5.943-0.998,8.396-3.043c5.569-4.642,6.318-12.917,1.678-18.484c-2.596-3.114-6.328-4.721-10.088-4.721
				C14.365,31.586,11.385,32.584,8.932,34.63"/>
		</defs>
		<clipPath id="SVGID_6_">
			<use xlink:href="#SVGID_5_"  overflow="visible"/>
		</clipPath>
		<g opacity="0.15" clip-path="url(#SVGID_6_)">
			<g>
				<defs>
					<rect id="SVGID_7_" x="-4.25" y="42.175" width="29.43" height="29.431"/>
				</defs>
				<clipPath id="SVGID_8_">
					<use xlink:href="#SVGID_7_"  overflow="visible"/>
				</clipPath>
				<path clip-path="url(#SVGID_8_)" fill="#F3BA81" d="M8.976,71.529c-8.084-0.822-13.972-8.043-13.15-16.128
					c0.822-8.084,8.043-13.972,16.127-13.15c8.085,0.822,13.972,8.042,13.15,16.127C24.281,66.464,17.061,72.351,8.976,71.529"/>
			</g>
		</g>
		<g opacity="0.22" clip-path="url(#SVGID_6_)">
			<g>
				<defs>
					<rect id="SVGID_9_" x="-2.233" y="44.193" width="25.395" height="25.395"/>
				</defs>
				<clipPath id="SVGID_10_">
					<use xlink:href="#SVGID_9_"  overflow="visible"/>
				</clipPath>
				<path clip-path="url(#SVGID_10_)" fill="#F3BA81" d="M9.18,69.521C2.204,68.813-2.877,62.582-2.167,55.606
					c0.709-6.977,6.94-12.057,13.916-11.348c6.976,0.71,12.056,6.94,11.347,13.917C22.387,65.15,16.156,70.231,9.18,69.521"/>
			</g>
		</g>
		<path clip-path="url(#SVGID_6_)" fill="#F3BA81" d="M9.375,67.6C3.46,66.999-0.847,61.716-0.246,55.802
			c0.602-5.915,5.884-10.223,11.799-9.621c5.915,0.602,10.222,5.884,9.621,11.799C20.572,63.894,15.291,68.201,9.375,67.6"/>
		<path clip-path="url(#SVGID_6_)" fill="#F0CAA6" d="M8.284,61.538c-4.052-0.412-7.002-4.03-6.59-8.082
			c0.412-4.051,4.03-7.001,8.082-6.589c4.051,0.411,7.001,4.03,6.59,8.081C15.953,59,12.334,61.95,8.284,61.538"/>
		<path clip-path="url(#SVGID_6_)" fill="#FFFFFF" d="M7.65,60.58c-0.787-0.08-1.359-0.782-1.28-1.569
			c0.08-0.785,0.783-1.359,1.57-1.279c0.786,0.08,1.359,0.783,1.279,1.569S8.437,60.66,7.65,60.58"/>
		<path clip-path="url(#SVGID_6_)" fill="#FFFFFF" d="M8.955,58.11c-0.296-0.03-0.511-0.294-0.481-0.59s0.294-0.512,0.59-0.481
			c0.295,0.03,0.511,0.295,0.481,0.591C9.515,57.925,9.25,58.141,8.955,58.11"/>
		<path clip-path="url(#SVGID_6_)" fill="#E09B63" d="M12.913,46.41c5.2,1.208,8.815,6.119,8.261,11.57
			c-0.601,5.914-5.884,10.223-11.799,9.62c-1.837-0.187-3.518-0.825-4.946-1.794C21.917,64.039,19.254,48.848,12.913,46.41"/>
		<path clip-path="url(#SVGID_6_)" fill="#F3BA81" d="M3.11,51.314c-0.052,0.57,0.368,1.073,0.938,1.125
			c0.569,0.052,1.073-0.369,1.124-0.938c0.052-0.569-0.368-1.073-0.938-1.124C3.665,50.325,3.161,50.745,3.11,51.314"/>
		<path clip-path="url(#SVGID_6_)" fill="#E09B63" d="M5.175,51.369c-0.019-0.514-0.417-0.945-0.941-0.992
			c-0.57-0.052-1.073,0.368-1.124,0.938c-0.017,0.178,0.013,0.348,0.078,0.5C3.675,50.196,5.062,50.726,5.175,51.369"/>
		<path clip-path="url(#SVGID_6_)" fill="#F3BA81" d="M4.891,49.154c-0.077,0.854,0.552,1.608,1.405,1.685
			c0.854,0.077,1.608-0.552,1.685-1.406c0.077-0.853-0.552-1.608-1.405-1.685C5.723,47.671,4.968,48.3,4.891,49.154"/>
		<path clip-path="url(#SVGID_6_)" fill="#E09B63" d="M7.986,49.234c-0.028-0.769-0.624-1.415-1.41-1.486
			c-0.854-0.077-1.608,0.552-1.685,1.405c-0.024,0.266,0.02,0.521,0.118,0.749C5.738,47.478,7.815,48.271,7.986,49.234"/>
		<path clip-path="url(#SVGID_6_)" fill="#F3BA81" d="M14.413,55.307c-0.039,0.425,0.274,0.8,0.699,0.838
			c0.425,0.039,0.8-0.275,0.839-0.699c0.038-0.424-0.275-0.8-0.7-0.838C14.827,54.569,14.451,54.882,14.413,55.307"/>
		<path clip-path="url(#SVGID_6_)" fill="#E09B63" d="M15.952,55.347c-0.014-0.383-0.31-0.704-0.701-0.739
			c-0.425-0.038-0.8,0.274-0.839,0.699c-0.012,0.132,0.011,0.259,0.059,0.373C14.834,54.473,15.867,54.868,15.952,55.347"/>
		<path clip-path="url(#SVGID_6_)" fill="#F3BA81" d="M12.644,57.039c-0.055,0.611,0.396,1.152,1.008,1.208
			c0.612,0.056,1.153-0.396,1.208-1.008c0.056-0.612-0.395-1.153-1.008-1.209C13.24,55.977,12.699,56.427,12.644,57.039"/>
		<path clip-path="url(#SVGID_6_)" fill="#E09B63" d="M14.864,57.097c-0.021-0.552-0.448-1.016-1.012-1.066
			c-0.612-0.055-1.153,0.396-1.208,1.009c-0.017,0.189,0.014,0.373,0.085,0.537C13.252,55.836,14.741,56.405,14.864,57.097"/>
	</g>
	<g clip-path="url(#SVGID_2_)">
		<defs>
			<rect id="SVGID_11_" width="100" height="100"/>
		</defs>
		<clipPath id="SVGID_12_">
			<use xlink:href="#SVGID_11_"  overflow="visible"/>
		</clipPath>
		<path clip-path="url(#SVGID_12_)" fill="#FCEE21" d="M11.596,45.014c-0.005,0.319,0.173,0.612,0.458,0.754
			s0.627,0.108,0.879-0.088c0.698-0.546,1.646-1.089,2.711-1.16c-0.165-2.314-0.026-4.265,0.209-5.79
			C14.272,39.229,11.67,40.708,11.596,45.014"/>
		<path clip-path="url(#SVGID_12_)" fill="#F9BB23" d="M22.931,41.517c-0.864,1.276-2.086,2.8-3.777,4.383
			c0.726,0.776,1.05,1.813,1.192,2.683c0.05,0.316,0.278,0.572,0.584,0.662c0.306,0.088,0.635-0.006,0.848-0.244
			C24.637,45.807,23.747,42.962,22.931,41.517"/>
		<path clip-path="url(#SVGID_12_)" fill="#FF0000" d="M24.777,38.069c1.666-4.128,0.489-7.787-0.218-9.384
			c-0.108-0.241-0.307-0.43-0.554-0.525c-0.247-0.093-0.521-0.085-0.762,0.024c-1.571,0.711-4.827,2.628-6.404,6.774
			c0,0-0.613,1.345-0.986,3.772c-0.234,1.525-0.368,3.461-0.202,5.775c0.01,0.141,0.028,0.264,0.039,0.411l1.555,0.609l0.054,0.022
			l1.556,0.609c0.108-0.101,0.203-0.176,0.305-0.272c1.69-1.582,2.91-3.098,3.774-4.375C24.314,39.469,24.777,38.069,24.777,38.069"
			/>
		<path clip-path="url(#SVGID_12_)" fill="#C90000" d="M24.777,38.069c1.666-4.128,0.489-7.787-0.218-9.384
			c-0.001-0.003-0.002-0.003-0.003-0.003c-0.088-0.016-0.311,7.3-3.806,12.818c-1.244,1.965-2.642,3.289-3.505,4.025
			c0.018,0.007,0.036,0.014,0.054,0.022l1.556,0.609c0.108-0.101,0.203-0.176,0.305-0.272c1.69-1.582,2.91-3.098,3.774-4.375
			C24.314,39.469,24.777,38.069,24.777,38.069"/>
		<path clip-path="url(#SVGID_12_)" fill="#FBB03B" d="M15.753,44.975l3.071,1.204c0.277,0.108,0.404,0.445,0.284,0.752
			c-0.121,0.307-0.442,0.468-0.72,0.36l-3.071-1.204c-0.277-0.109-0.404-0.445-0.284-0.753
			C15.154,45.027,15.476,44.866,15.753,44.975"/>
		<path clip-path="url(#SVGID_12_)" fill="#FFFFFF" d="M22.515,32.084c-1.013-0.397-2.16,0.104-2.557,1.117
			c-0.397,1.013,0.104,2.16,1.117,2.557c1.013,0.397,2.16-0.104,2.557-1.117C24.029,33.628,23.528,32.481,22.515,32.084"/>
		<path clip-path="url(#SVGID_12_)" fill="#3FA9F5" d="M22.69,31.637c-1.26-0.494-2.686,0.129-3.179,1.389
			c-0.495,1.26,0.129,2.687,1.389,3.18c1.259,0.494,2.686-0.129,3.18-1.389C24.574,33.557,23.95,32.131,22.69,31.637 M21.075,35.759
			c-1.013-0.397-1.514-1.544-1.117-2.557c0.397-1.013,1.544-1.514,2.557-1.117s1.514,1.544,1.117,2.557
			C23.235,35.655,22.088,36.156,21.075,35.759"/>
		<path clip-path="url(#SVGID_12_)" fill="#F9D023" d="M18.128,49.677c-0.471,1.201-4.621,5.392-4.621,5.392
			s-0.197-5.895,0.273-7.096c0.471-1.2,1.826-1.792,3.026-1.321C18.006,47.122,18.598,48.476,18.128,49.677"/>
		<path clip-path="url(#SVGID_12_)" fill="#FBB03B" d="M17.719,48.741c-0.325,0.829-3.191,3.723-3.191,3.723s-0.136-4.071,0.189-4.9
			c0.325-0.829,1.26-1.238,2.089-0.912C17.636,46.976,18.044,47.912,17.719,48.741"/>
		<path clip-path="url(#SVGID_12_)" fill="#FF0000" d="M17.444,48.163c-0.23,0.589-1.917,1.75-1.917,1.75s-0.447-1.997-0.216-2.586
			c0.231-0.589,0.895-0.88,1.485-0.649C17.384,46.909,17.675,47.574,17.444,48.163"/>
		<path clip-path="url(#SVGID_12_)" fill="#FF1D25" d="M103.989,94.362c-0.876,0-1.678-0.441-2.145-1.182
			c-1.029-1.636-1.099-3.384-0.857-4.948c-0.512-0.017-0.997-0.067-1.457-0.153h-2.564l0.82-0.546
			c-0.545-0.253-1.039-0.572-1.479-0.959l-0.432,0.43l-0.657-1.457l-0.862,0.859l-0.191-3.492l-3.882,3.449l3.137-6.255
			c-0.403-0.036-0.786-0.098-1.156-0.186l-2.321-0.552L89.579,80.1l-0.409-0.911l-0.393-0.093l0.242-0.242l-0.791-1.759
			l-0.745,0.595l-0.092-1.684l-0.16-0.198l0.143-0.114l-0.103-1.88c-0.033-0.615,0.006-1.213,0.086-1.79
			c-0.692-0.009-1.32-0.082-1.916-0.223c-0.395-0.096-0.792-0.229-1.188-0.4c-0.418-0.189-0.783-0.403-1.118-0.648
			c-0.183-0.133-0.362-0.279-0.535-0.437c-0.543-0.497-0.845-1.199-0.829-1.93c0.015-0.729,0.343-1.42,0.901-1.89
			c0.457-0.386,1.039-0.598,1.637-0.598c0.221,0,0.438,0.028,0.647,0.083l3.37-2.836c-0.067-0.801,0.245-1.615,0.897-2.162
			c0.453-0.382,1.033-0.595,1.631-0.595c0.872,0,1.673,0.439,2.142,1.176c0.129,0.202,0.243,0.404,0.343,0.609
			c0.183,0.366,0.331,0.764,0.437,1.172c0.109,0.447,0.174,0.866,0.199,1.272c0.042,0.664-0.007,1.306-0.105,1.923
			c0.47,0.016,0.91,0.059,1.329,0.131h1.706l-0.363,0.294l3.311,0.763l-0.913,0.685l1.854,1.25l-0.764,0.38
			c0.81,1.527,0.849,3.185,0.643,4.624c0.479,0.014,0.927,0.057,1.354,0.129h1.789l-0.385,0.308l3.095,0.708l-0.834,0.667
			l0.552,0.371l-0.114,0.228c1.505,1.78,1.639,3.889,1.389,5.673c1.962,0.041,3.508,0.593,4.719,1.683
			c0.543,0.485,0.85,1.188,0.838,1.923s-0.342,1.43-0.906,1.902c-0.451,0.383-1.031,0.595-1.631,0.595
			c-0.26,0-0.515-0.039-0.758-0.115l-3.273,2.754c0.11,0.838-0.201,1.706-0.887,2.278C105.168,94.15,104.587,94.362,103.989,94.362"
			/>
		<path clip-path="url(#SVGID_12_)" fill="#3FA9F5" d="M90.855,62.389c0.177,0.001,0.352,0.088,0.455,0.25
			c0.087,0.137,0.164,0.274,0.233,0.414c0.126,0.254,0.226,0.521,0.297,0.796c0.071,0.292,0.12,0.592,0.139,0.893h0.001
			c0.083,1.342-0.33,2.666-0.717,3.932c0.004-0.001,0.005-0.001,0.008-0.001l-0.016,0.013c0.728-0.075,1.475-0.15,2.217-0.15
			c0.584,0,1.166,0.047,1.732,0.178l-0.004,0.003c0.296,0.067,0.592,0.166,0.872,0.276c0.261,0.11,0.513,0.246,0.756,0.41
			l-0.002,0.001c0.213,0.144,0.418,0.307,0.612,0.494h0.001c1.965,1.905,1.379,4.556,0.663,6.9c0.003-0.001,0.005-0.001,0.008-0.001
			l-0.02,0.016c0.729-0.075,1.476-0.151,2.219-0.151c0.584,0,1.166,0.048,1.733,0.178l-0.005,0.004
			c0.297,0.067,0.592,0.165,0.873,0.276c0.261,0.11,0.513,0.246,0.755,0.409l-0.001,0.002c0.213,0.143,0.418,0.307,0.612,0.494
			c1.968,1.902,1.383,4.544,0.664,6.9c0.002-0.001,0.005-0.001,0.007-0.001l0.568-0.369l-0.57,0.37
			c-0.001,0.003-0.001,0.005-0.002,0.008c0.76-0.096,1.552-0.185,2.33-0.185c1.322,0,2.604,0.256,3.622,1.172
			c0.242,0.217,0.233,0.599-0.015,0.808c-0.101,0.085-0.224,0.126-0.346,0.126c-0.132,0-0.264-0.048-0.366-0.144
			c-0.185-0.173-0.376-0.313-0.574-0.433l-5.485,4.615c0.083,0.216,0.19,0.43,0.328,0.64c0.148,0.228,0.104,0.529-0.104,0.705
			c-0.102,0.085-0.225,0.126-0.347,0.126c-0.176,0-0.351-0.086-0.453-0.249c-1.161-1.845-0.56-4.05,0.045-6.035
			c-0.002,0-0.005,0-0.007,0.002c0.001-0.002,0.001-0.003,0.002-0.003c0.004-0.003,0.006-0.004,0.01-0.007
			c-0.004,0-0.008,0.003-0.01,0.007c0.001-0.002,0.001-0.004,0.002-0.006c-0.73,0.09-1.485,0.167-2.227,0.167
			c-1.727,0-3.375-0.412-4.458-2v-0.001c-0.151-0.224-0.277-0.454-0.382-0.688l-0.002,0.002c-0.12-0.267-0.211-0.538-0.275-0.814
			c-0.061-0.295-0.106-0.604-0.123-0.906l-0.004,0.004c-0.071-1.32,0.295-2.641,0.648-3.898l-0.018,0.015
			c0.001-0.001,0.001-0.002,0.002-0.006c-0.792,0.099-1.605,0.203-2.414,0.203c-0.539,0-1.076-0.047-1.602-0.171l0.002-0.002
			c-1.14-0.275-1.968-0.965-2.682-1.855l0.01-0.008c-0.151-0.224-0.277-0.454-0.383-0.688l-0.001,0.001
			c-0.12-0.268-0.21-0.539-0.274-0.815c-0.062-0.295-0.107-0.603-0.123-0.907l-0.005,0.005c-0.07-1.319,0.296-2.638,0.648-3.896
			l-0.019,0.016c0-0.002,0.001-0.004,0.002-0.007c-0.791,0.1-1.604,0.204-2.411,0.204c-0.534,0-1.065-0.046-1.586-0.17h0.001
			c-0.293-0.07-0.581-0.171-0.856-0.29c-0.258-0.117-0.505-0.261-0.733-0.428c-0.126-0.092-0.249-0.192-0.368-0.301
			c-0.24-0.22-0.233-0.601,0.016-0.811c0.101-0.085,0.225-0.127,0.349-0.127c0.13,0,0.259,0.046,0.359,0.141
			c0.159,0.147,0.323,0.274,0.494,0.383c1.844-1.553,3.688-3.104,5.531-4.655c-0.078-0.186-0.175-0.369-0.294-0.552
			c-0.146-0.226-0.098-0.526,0.108-0.699C90.611,62.43,90.733,62.389,90.855,62.389 M86.867,68.984c0.517,0,1.693-1.365,2.103-1.71
			c0.95-0.8,2.151-1.312,1.958-2.657c-1.655,1.393-3.312,2.786-4.967,4.18c0.277,0.09,0.568,0.15,0.875,0.186
			C86.846,68.983,86.856,68.984,86.867,68.984 M88.151,69.009c0.687-0.036,1.37-0.127,2.052-0.212
			c0.211-0.689,0.415-1.354,0.56-1.985l-1.306,1.099L88.151,69.009 M90.468,71.652c0.837-0.704,1.672-1.408,2.509-2.11
			c-0.672,0.02-1.759,0.132-2.009,0.158C90.777,70.373,90.596,71.026,90.468,71.652 M90.32,73.832l2.417-2.033l2.411-2.03
			c-0.203-0.062-0.39-0.089-0.563-0.089c-0.954,0-1.524,0.837-2.346,1.528c-0.375,0.315-1.92,1.244-1.945,1.707
			C90.276,73.23,90.284,73.535,90.32,73.832 M90.885,75.411l2.812-2.364l2.913-2.451c-0.203-0.188-0.416-0.344-0.639-0.473
			l-2.719,2.288l-2.723,2.291C90.618,74.943,90.735,75.18,90.885,75.411 M91.991,76.536l2.769-2.329l2.77-2.33
			c-0.098-0.23-0.226-0.457-0.389-0.683l-2.878,2.422l-2.878,2.421C91.578,76.237,91.78,76.401,91.991,76.536 M93.702,77.107
			c0.466,0,1.601-1.272,2.014-1.646c0.001-0.001,0.001-0.002,0.002-0.002c0.017-0.016,0.033-0.029,0.048-0.042l0.002,0.002
			c0.951-0.784,2.195-1.362,1.998-2.694l-2.49,2.095l-2.49,2.096c0.282,0.093,0.578,0.155,0.891,0.191
			C93.686,77.107,93.693,77.107,93.702,77.107 M94.969,77.134c0.693-0.035,1.386-0.127,2.074-0.213
			c0.214-0.697,0.42-1.37,0.564-2.009l-1.327,1.117L94.969,77.134 M97.307,79.778l2.508-2.109c-0.639,0.019-1.313,0.086-2.009,0.158
			c-0.068,0.242-0.136,0.482-0.199,0.72C97.492,78.967,97.389,79.378,97.307,79.778 M97.159,81.959l2.412-2.03l2.416-2.033
			c-0.208-0.063-0.397-0.091-0.573-0.091c-0.953,0-1.507,0.832-2.338,1.531c-0.001,0.001-0.002,0.001-0.003,0.002
			c-0.483,0.406-1.928,1.216-1.947,1.855C97.118,81.455,97.129,81.71,97.159,81.959 M97.724,83.539l2.862-2.408l2.862-2.409
			c-0.204-0.188-0.417-0.343-0.639-0.472l-2.721,2.289l-2.721,2.289C97.457,83.07,97.573,83.307,97.724,83.539 M98.83,84.664
			l2.767-2.328l2.771-2.332c-0.099-0.23-0.225-0.458-0.389-0.683l-2.878,2.422l-2.879,2.422
			C98.417,84.364,98.619,84.528,98.83,84.664 M100.188,85.138c0.973,0,1.607-0.913,2.422-1.599c0.979-0.823,2.201-1.298,1.995-2.688
			l-2.49,2.095l-2.49,2.096C99.825,85.108,100.012,85.138,100.188,85.138 M101.808,85.26c0.653-0.033,1.351-0.121,2.074-0.213
			c0.203-0.663,0.411-1.33,0.564-2.008l-1.322,1.112L101.808,85.26 M104.119,87.784c0.805-0.677,1.609-1.354,2.414-2.031
			c-0.601,0.039-1.235,0.119-1.891,0.202c-0.075,0.241-0.148,0.48-0.218,0.716C104.311,87.052,104.206,87.423,104.119,87.784
			 M103.902,90.021c1.624-1.366,3.249-2.734,4.873-4.101c-0.221-0.064-0.424-0.094-0.616-0.094c-0.96,0-1.602,0.735-2.413,1.417
			C104.773,88.064,103.745,88.642,103.902,90.021 M96.738,77.95C96.738,77.951,96.738,77.951,96.738,77.95L96.738,77.95
			L96.738,77.95 M95.539,57.474l-2.315,1.578c-0.7-0.428-1.516-0.662-2.368-0.662c-1.067,0-2.105,0.378-2.921,1.065
			c-0.851,0.715-1.378,1.686-1.552,2.713l-2.056,1.73h-0.017c-1.067-0.001-2.106,0.378-2.924,1.066
			c-1,0.841-1.589,2.073-1.615,3.381c-0.026,1.307,0.513,2.563,1.479,3.444c0.227,0.205,0.463,0.4,0.707,0.578
			c0.443,0.324,0.928,0.606,1.436,0.838l0.033,0.016l0.035,0.015c0.405,0.175,0.813,0.32,1.216,0.432l-2.095,7.528l2.949-2.478
			l0.006,0.104l-1.436,1.215l1.521,0.362l0.081,1.521l1.395-1.17l0.648,0.153l0.417,0.93l0.785-0.644l0.341,0.081l-16.057,21.613
			l19.141-16.052l0.167,3.086l1.788-1.462l0.045,0.099l-3.398,2.841l7.947-0.818c0.113,1.205,0.468,2.456,1.229,3.666
			c0.835,1.326,2.27,2.118,3.838,2.118c1.067,0,2.105-0.379,2.923-1.066c0.889-0.747,1.423-1.774,1.571-2.855l1.891-1.591
			c0.054,0.002,0.108,0.003,0.163,0.003c1.066,0,2.104-0.378,2.92-1.065c1.006-0.845,1.595-2.084,1.616-3.397
			c0.021-1.313-0.525-2.567-1.5-3.445c-1.097-0.986-2.423-1.645-3.958-1.967c-0.031-0.896-0.183-1.83-0.523-2.754l1.234-1.024
			l-1.388-0.938l1.814-1.526l-3.106-0.714l3.018-2.529l-7.922,0.81c-0.069-0.754-0.229-1.526-0.522-2.291L103.381,69l-1.283-0.867
			l1.807-1.522l-3.078-0.709l3.041-2.541l-7.914,0.812L95.539,57.474z"/>
		<path clip-path="url(#SVGID_12_)" fill="#5D5D5D" d="M3.347,81.373l0.869,8.671c0.182-0.038,0.369-0.08,0.56-0.126
			c0.177-0.043,0.349-0.088,0.515-0.134c-0.288-2.84-0.576-5.679-0.865-8.519L3.347,81.373z"/>
		<path clip-path="url(#SVGID_12_)" fill="#5D5D5D" d="M6.151,80.786l0.342-0.034c0.138-0.013,0.238-0.136,0.224-0.273l-0.155-1.567
			c-0.014-0.137-0.136-0.237-0.274-0.224l-1.581,0.157l-0.345-3.473L2.25,75.581l0.345,3.474l-1.582,0.156
			c-0.137,0.013-0.237,0.137-0.224,0.273l0.156,1.568c0.014,0.137,0.136,0.237,0.273,0.224l0.06-0.006l-1.929,8.808
			c0.175,0.032,0.359,0.062,0.552,0.088c0.192,0.025,0.376,0.045,0.553,0.06c0.654-3.022,1.307-6.046,1.96-9.068l2.603-0.258
			l3.307,7.572c0.141-0.075,0.287-0.159,0.438-0.254c0.178-0.111,0.341-0.225,0.489-0.335C8.218,85.518,7.184,83.152,6.151,80.786"
			/>
		
			<rect x="16.233" y="63.885" transform="matrix(0.9399 -0.3415 0.3415 0.9399 -22.1495 10.1505)" clip-path="url(#SVGID_12_)" fill="#5D5D5D" width="3.037" height="8.185"/>
		
			<rect x="5.39" y="66.844" transform="matrix(0.9398 -0.3416 0.3416 0.9398 -23.396 8.0045)" clip-path="url(#SVGID_12_)" fill="#FBB03B" width="11.274" height="7.156"/>
		
			<rect x="-1.261" y="70.413" transform="matrix(0.9398 -0.3416 0.3416 0.9398 -24.9953 5.2268)" clip-path="url(#SVGID_12_)" fill="#F7931E" width="7.207" height="6.332"/>
		<g opacity="0.4" clip-path="url(#SVGID_12_)">
			<g>
				<defs>
					<rect id="SVGID_13_" x="5.811" y="67.458" width="6.267" height="3.059"/>
				</defs>
				<clipPath id="SVGID_14_">
					<use xlink:href="#SVGID_13_"  overflow="visible"/>
				</clipPath>
				<path clip-path="url(#SVGID_14_)" fill="#FFFFFF" d="M11.669,68.649l-5.032,1.829c-0.321,0.116-0.674-0.045-0.79-0.366
					c-0.116-0.32,0.05-0.671,0.371-0.788l5.032-1.828c0.32-0.118,0.673,0.045,0.79,0.365C12.156,68.183,11.99,68.533,11.669,68.649"
					/>
			</g>
		</g>
		<g opacity="0.4" clip-path="url(#SVGID_12_)">
			<g>
				<defs>
					<rect id="SVGID_15_" x="-1.388" y="70.571" width="4.701" height="2.343"/>
				</defs>
				<clipPath id="SVGID_16_">
					<use xlink:href="#SVGID_15_"  overflow="visible"/>
				</clipPath>
				<path clip-path="url(#SVGID_16_)" fill="#FFFFFF" d="M3.061,71.488l-3.871,1.407c-0.213,0.077-0.472-0.095-0.549-0.309
					c-0.079-0.214,0.009-0.512,0.223-0.589l3.871-1.407c0.214-0.078,0.472,0.094,0.55,0.308C3.363,71.112,3.275,71.411,3.061,71.488
					"/>
			</g>
		</g>
		<g opacity="0.4" clip-path="url(#SVGID_12_)">
			<g>
				<defs>
					<rect id="SVGID_17_" x="12.522" y="66.908" width="1.184" height="1.185"/>
				</defs>
				<clipPath id="SVGID_18_">
					<use xlink:href="#SVGID_17_"  overflow="visible"/>
				</clipPath>
				<path clip-path="url(#SVGID_18_)" fill="#FFFFFF" d="M13.67,67.298c-0.112-0.308-0.451-0.466-0.759-0.354
					c-0.307,0.111-0.466,0.451-0.354,0.758c0.112,0.308,0.451,0.466,0.759,0.354C13.624,67.945,13.782,67.605,13.67,67.298"/>
			</g>
		</g>
		<path clip-path="url(#SVGID_12_)" fill="#5D5D5D" d="M5.091,79.849c-0.073-0.738-0.732-1.277-1.47-1.204
			c-0.739,0.073-1.279,0.731-1.205,1.471c0.073,0.738,0.732,1.277,1.47,1.204C4.625,81.245,5.164,80.588,5.091,79.849"/>
		<path clip-path="url(#SVGID_12_)" fill="#F7931E" d="M3.924,81.695c-0.945,0.094-1.789-0.599-1.883-1.543
			c-0.094-0.945,0.598-1.79,1.542-1.884c0.945-0.094,1.79,0.599,1.884,1.543C5.56,80.756,4.868,81.602,3.924,81.695 M3.658,79.02
			c-0.531,0.053-0.919,0.527-0.867,1.058c0.053,0.531,0.528,0.92,1.058,0.867c0.531-0.053,0.919-0.528,0.867-1.058
			C4.663,79.355,4.188,78.967,3.658,79.02"/>
		<path clip-path="url(#SVGID_12_)" fill="#B948F3" d="M80.556,56.116c4.231-0.431,7.313-4.21,6.883-8.441
			c-0.431-4.232-4.21-7.314-8.441-6.884c-4.231,0.43-7.313,4.21-6.883,8.442C72.544,53.465,76.323,56.546,80.556,56.116"/>
		<path clip-path="url(#SVGID_12_)" fill="#C06EF0" d="M81.337,51.779c2.898-0.295,5.009-2.884,4.715-5.782
			c-0.295-2.899-2.884-5.01-5.782-4.715s-5.01,2.884-4.715,5.782C75.85,49.963,78.438,52.073,81.337,51.779"/>
		<g opacity="0.2" clip-path="url(#SVGID_12_)">
			<g>
				<defs>
					<rect id="SVGID_19_" x="79.631" y="47.079" width="3.93" height="3.93"/>
				</defs>
				<clipPath id="SVGID_20_">
					<use xlink:href="#SVGID_19_"  overflow="visible"/>
				</clipPath>
				<path clip-path="url(#SVGID_20_)" fill="#FFFFFF" d="M81.795,50.998c1.079-0.109,1.865-1.074,1.756-2.153
					c-0.11-1.08-1.074-1.866-2.153-1.756c-1.081,0.11-1.866,1.074-1.757,2.154C79.751,50.322,80.715,51.108,81.795,50.998"/>
			</g>
		</g>
		<g opacity="0.2" clip-path="url(#SVGID_12_)">
			<g>
				<defs>
					<rect id="SVGID_21_" x="80.433" y="45.058" width="0.77" height="0.771"/>
				</defs>
				<clipPath id="SVGID_22_">
					<use xlink:href="#SVGID_21_"  overflow="visible"/>
				</clipPath>
				<path clip-path="url(#SVGID_22_)" fill="#FFFFFF" d="M80.856,45.827c0.212-0.021,0.365-0.21,0.344-0.422
					s-0.21-0.366-0.422-0.344c-0.212,0.021-0.365,0.21-0.344,0.422C80.456,45.694,80.645,45.848,80.856,45.827"/>
			</g>
		</g>
		<path clip-path="url(#SVGID_12_)" fill="#912EE0" d="M78.024,40.956c-3.72,0.864-6.307,4.377-5.91,8.277
			c0.43,4.232,4.209,7.313,8.441,6.884c1.313-0.134,2.517-0.591,3.538-1.284C71.583,53.568,73.487,42.7,78.024,40.956"/>
		<path clip-path="url(#SVGID_12_)" fill="#B948F3" d="M85.984,46.644c0.069,0.766-0.496,1.444-1.263,1.513
			c-0.767,0.069-1.443-0.496-1.513-1.262c-0.069-0.767,0.496-1.444,1.262-1.513C85.237,45.312,85.915,45.876,85.984,46.644"/>
		<path clip-path="url(#SVGID_12_)" fill="#912EE0" d="M83.204,46.716c0.025-0.69,0.561-1.271,1.267-1.334
			c0.767-0.07,1.444,0.495,1.514,1.262c0.021,0.238-0.019,0.467-0.106,0.673C85.223,45.137,83.358,45.85,83.204,46.716"/>
		<path clip-path="url(#SVGID_12_)" fill="#B948F3" d="M79.694,43.612c0.052,0.563-0.364,1.062-0.928,1.113
			c-0.563,0.051-1.062-0.365-1.112-0.928c-0.052-0.564,0.364-1.062,0.928-1.113C79.146,42.633,79.644,43.049,79.694,43.612"/>
		<path clip-path="url(#SVGID_12_)" fill="#912EE0" d="M77.65,43.665c0.019-0.508,0.412-0.935,0.932-0.981
			c0.563-0.052,1.062,0.364,1.112,0.928c0.017,0.175-0.013,0.344-0.078,0.494C79.135,42.504,77.764,43.028,77.65,43.665"/>
		<path clip-path="url(#SVGID_12_)" fill="#B948F3" d="M78.948,46.703c0.045,0.499-0.323,0.939-0.821,0.984
			s-0.938-0.322-0.983-0.821c-0.045-0.498,0.322-0.939,0.82-0.984C78.462,45.837,78.903,46.204,78.948,46.703"/>
		<path clip-path="url(#SVGID_12_)" fill="#912EE0" d="M77.141,46.75c0.017-0.449,0.364-0.827,0.823-0.868
			c0.498-0.045,0.939,0.322,0.984,0.821c0.014,0.154-0.012,0.303-0.069,0.437C78.452,45.725,77.24,46.188,77.141,46.75"/>
		<path clip-path="url(#SVGID_12_)" fill="#B948F3" d="M81.606,43.21c0.03,0.33-0.213,0.621-0.543,0.651
			c-0.329,0.03-0.62-0.214-0.65-0.543c-0.03-0.33,0.213-0.621,0.543-0.651C81.285,42.637,81.577,42.88,81.606,43.21"/>
		<path clip-path="url(#SVGID_12_)" fill="#912EE0" d="M80.411,43.242c0.011-0.297,0.241-0.547,0.545-0.574
			c0.329-0.03,0.621,0.213,0.65,0.543c0.01,0.102-0.009,0.2-0.045,0.289C81.279,42.563,80.478,42.869,80.411,43.242"/>
		<path clip-path="url(#SVGID_12_)" fill="#B948F3" d="M82.624,42.211c0.022,0.244-0.157,0.458-0.4,0.48
			c-0.245,0.022-0.459-0.157-0.48-0.4c-0.022-0.244,0.157-0.458,0.4-0.48S82.602,41.968,82.624,42.211"/>
		<path clip-path="url(#SVGID_12_)" fill="#912EE0" d="M81.741,42.234c0.008-0.219,0.178-0.403,0.402-0.423
			c0.243-0.022,0.458,0.157,0.48,0.4c0.007,0.076-0.006,0.148-0.033,0.214C82.382,41.733,81.79,41.96,81.741,42.234"/>
		<path clip-path="url(#SVGID_12_)" fill="#869BF3" d="M87.776,40.899c-3.732-0.379-6.451-3.713-6.071-7.446
			c0.38-3.733,3.714-6.451,7.446-6.072c3.732,0.38,6.451,3.714,6.071,7.447C94.843,38.56,91.51,41.279,87.776,40.899"/>
		<path clip-path="url(#SVGID_12_)" fill="#AAB9F0" d="M87.087,37.073c-2.557-0.26-4.418-2.543-4.158-5.1s2.543-4.419,5.101-4.159
			c2.557,0.26,4.418,2.544,4.158,5.1C91.928,35.471,89.645,37.333,87.087,37.073"/>
		<g opacity="0.2" clip-path="url(#SVGID_12_)">
			<g>
				<defs>
					<rect id="SVGID_23_" x="84.317" y="32.316" width="3.874" height="3.873"/>
				</defs>
				<clipPath id="SVGID_24_">
					<use xlink:href="#SVGID_23_"  overflow="visible"/>
				</clipPath>
				<path clip-path="url(#SVGID_24_)" fill="#FFFFFF" d="M86.059,36.179c-1.064-0.108-1.839-1.059-1.73-2.123
					s1.059-1.838,2.122-1.731c1.064,0.109,1.839,1.059,1.73,2.123S87.123,36.287,86.059,36.179"/>
			</g>
		</g>
		<g opacity="0.2" clip-path="url(#SVGID_12_)">
			<g>
				<defs>
					<rect id="SVGID_25_" x="86.453" y="28.197" width="1.478" height="1.478"/>
				</defs>
				<clipPath id="SVGID_26_">
					<use xlink:href="#SVGID_25_"  overflow="visible"/>
				</clipPath>
				<path clip-path="url(#SVGID_26_)" fill="#FFFFFF" d="M87.117,29.67c-0.405-0.042-0.701-0.404-0.66-0.81
					c0.041-0.406,0.404-0.701,0.81-0.66c0.406,0.041,0.702,0.404,0.66,0.81C87.886,29.417,87.523,29.712,87.117,29.67"/>
			</g>
		</g>
		<path clip-path="url(#SVGID_12_)" fill="#5E7BE0" d="M90.009,27.526c3.281,0.762,5.563,3.861,5.214,7.301
			c-0.38,3.733-3.713,6.451-7.446,6.072c-1.159-0.118-2.22-0.521-3.121-1.133C95.691,38.651,94.011,29.064,90.009,27.526"/>
		<path clip-path="url(#SVGID_12_)" fill="#F58D6C" d="M94.753,31.553c0.185,0.467,0.316,0.959,0.394,1.469
			c0.597,0.327,0.937,0.701,0.937,1.099c0,0.404-0.352,0.784-0.965,1.114c-1.309,0.704-3.816,1.181-6.691,1.181
			c-2.831,0-5.307-0.463-6.631-1.15c-0.65-0.337-1.025-0.728-1.025-1.145c0-0.41,0.364-0.796,0.997-1.13
			c0.079-0.504,0.21-0.99,0.393-1.451c-2.658,0.582-4.39,1.522-4.39,2.581c0,1.069,1.763,2.016,4.461,2.597
			c1.747,0.376,3.886,0.598,6.195,0.598c2.337,0,4.499-0.228,6.258-0.611c2.663-0.582,4.398-1.523,4.398-2.584
			C99.083,33.07,97.378,32.136,94.753,31.553"/>
		<g opacity="0.56" clip-path="url(#SVGID_12_)">
			<g>
				<defs>
					<rect id="SVGID_27_" x="74.756" y="55.402" width="1.224" height="3.538"/>
				</defs>
				<clipPath id="SVGID_28_">
					<use xlink:href="#SVGID_27_"  overflow="visible"/>
				</clipPath>
				<rect x="74.76" y="55.404" clip-path="url(#SVGID_28_)" fill="#FFFFFF" width="1.216" height="3.535"/>
			</g>
		</g>
		<path clip-path="url(#SVGID_12_)" fill="#3FA9F5" d="M74.772,63.717c0.001,0.336,0.274,0.608,0.61,0.607
			c0.335-0.001,0.607-0.274,0.606-0.609l-0.01-4.777l-1.216,0.003L74.772,63.717z M75.641,63.372c0.097,0,0.173,0.076,0.174,0.171
			c0,0.095-0.077,0.172-0.172,0.172c-0.095,0.001-0.172-0.076-0.172-0.171S75.547,63.372,75.641,63.372 M75.163,63.139
			c-0.149,0-0.271-0.121-0.271-0.271s0.12-0.271,0.27-0.271c0.149,0,0.271,0.121,0.271,0.271S75.313,63.139,75.163,63.139
			 M75.491,60.34c0.095,0,0.172,0.077,0.172,0.172c0.001,0.095-0.076,0.172-0.171,0.172s-0.172-0.076-0.172-0.171
			C75.32,60.417,75.396,60.341,75.491,60.34 M75.579,59.149c0.145,0,0.262,0.116,0.263,0.261c0,0.145-0.117,0.262-0.262,0.263
			c-0.145,0-0.262-0.117-0.262-0.262C75.317,59.267,75.435,59.149,75.579,59.149"/>
		<path clip-path="url(#SVGID_12_)" fill="#CCCCCC" d="M76.43,63.714l-0.017-8.454h0.081c0.114,0,0.207-0.093,0.207-0.207v-0.063
			c0-0.114-0.094-0.207-0.208-0.207l-2.256,0.005c-0.114,0.001-0.206,0.094-0.206,0.207v0.064c0,0.114,0.093,0.206,0.207,0.206
			h0.077l2.098-0.005v0.142l-0.44,0.001l0.007,3.535l0.01,4.777c0.001,0.335-0.271,0.608-0.606,0.609
			c-0.336,0.001-0.609-0.271-0.61-0.607l-0.009-4.776l0.022-3.535l-0.411,0.001v-0.031l-0.013,8.343
			c0.001,0.579,0.457,1.048,1.036,1.047c0.072,0,0.136-0.008,0.204-0.021c0.034-0.008,0.063-0.017,0.097-0.026
			c0.099-0.031,0.188-0.076,0.272-0.133c0.027-0.019,0.054-0.039,0.079-0.061c0.104-0.086,0.191-0.19,0.254-0.31
			C76.386,64.065,76.431,63.895,76.43,63.714"/>
		<polygon clip-path="url(#SVGID_12_)" fill="#B3B3B3" points="74.786,55.405 75.987,55.402 76.421,55.401 76.416,55.26 
			74.347,55.265 74.375,55.375 74.375,55.406 		"/>
		<g opacity="0.45" clip-path="url(#SVGID_12_)">
			<g>
				<defs>
					<rect id="SVGID_29_" x="74.856" y="57.327" width="0.634" height="5.286"/>
				</defs>
				<clipPath id="SVGID_30_">
					<use xlink:href="#SVGID_29_"  overflow="visible"/>
				</clipPath>
				<path clip-path="url(#SVGID_30_)" fill="#FFFFFF" d="M75.481,57.641c-0.001-0.174-0.14-0.314-0.313-0.313
					c-0.174,0-0.313,0.142-0.312,0.315l0.009,4.656c0.001,0.174,0.139,0.314,0.313,0.314c0.174-0.001,0.313-0.142,0.312-0.315
					L75.481,57.641z"/>
			</g>
		</g>
		<path clip-path="url(#SVGID_12_)" fill="#3FA9F5" d="M75.162,62.597c-0.149,0.001-0.271,0.122-0.271,0.271
			c0.002,0.149,0.123,0.271,0.272,0.271s0.27-0.122,0.27-0.271C75.433,62.718,75.312,62.597,75.162,62.597"/>
		<g opacity="0.3" clip-path="url(#SVGID_12_)">
			<g>
				<defs>
					<rect id="SVGID_31_" x="74.892" y="62.598" width="0.542" height="0.541"/>
				</defs>
				<clipPath id="SVGID_32_">
					<use xlink:href="#SVGID_31_"  overflow="visible"/>
				</clipPath>
				<path clip-path="url(#SVGID_32_)" fill="#FFFFFF" d="M75.162,62.597c-0.149,0.001-0.271,0.122-0.271,0.271
					c0.002,0.149,0.123,0.271,0.272,0.271s0.27-0.122,0.27-0.271C75.433,62.718,75.312,62.597,75.162,62.597"/>
			</g>
		</g>
		<path clip-path="url(#SVGID_12_)" fill="#3FA9F5" d="M75.492,60.684c0.095,0,0.172-0.077,0.171-0.172
			c0-0.095-0.077-0.172-0.172-0.172c-0.095,0.001-0.171,0.077-0.171,0.173C75.32,60.607,75.397,60.684,75.492,60.684"/>
		<g opacity="0.3" clip-path="url(#SVGID_12_)">
			<g>
				<defs>
					<rect id="SVGID_33_" x="75.32" y="60.34" width="0.343" height="0.344"/>
				</defs>
				<clipPath id="SVGID_34_">
					<use xlink:href="#SVGID_33_"  overflow="visible"/>
				</clipPath>
				<path clip-path="url(#SVGID_34_)" fill="#FFFFFF" d="M75.492,60.684c0.095,0,0.172-0.077,0.171-0.172
					c0-0.095-0.077-0.172-0.172-0.172c-0.095,0.001-0.171,0.077-0.171,0.173C75.32,60.607,75.397,60.684,75.492,60.684"/>
			</g>
		</g>
		<path clip-path="url(#SVGID_12_)" fill="#3FA9F5" d="M75.643,63.715c0.095,0,0.172-0.077,0.172-0.172
			c-0.001-0.095-0.077-0.171-0.173-0.171c-0.095,0-0.171,0.077-0.171,0.172S75.548,63.716,75.643,63.715"/>
		<g opacity="0.3" clip-path="url(#SVGID_12_)">
			<g>
				<defs>
					<rect id="SVGID_35_" x="75.471" y="63.372" width="0.344" height="0.343"/>
				</defs>
				<clipPath id="SVGID_36_">
					<use xlink:href="#SVGID_35_"  overflow="visible"/>
				</clipPath>
				<path clip-path="url(#SVGID_36_)" fill="#FFFFFF" d="M75.643,63.715c0.095,0,0.172-0.077,0.172-0.172
					c-0.001-0.095-0.077-0.171-0.173-0.171c-0.095,0-0.171,0.077-0.171,0.172S75.548,63.716,75.643,63.715"/>
			</g>
		</g>
		<path clip-path="url(#SVGID_12_)" fill="#3FA9F5" d="M75.318,59.411c0,0.145,0.117,0.262,0.262,0.262
			c0.145-0.001,0.262-0.118,0.262-0.263c-0.001-0.146-0.118-0.261-0.263-0.261S75.317,59.266,75.318,59.411"/>
		<g opacity="0.3" clip-path="url(#SVGID_12_)">
			<g>
				<defs>
					<rect id="SVGID_37_" x="75.318" y="59.149" width="0.522" height="0.523"/>
				</defs>
				<clipPath id="SVGID_38_">
					<use xlink:href="#SVGID_37_"  overflow="visible"/>
				</clipPath>
				<path clip-path="url(#SVGID_38_)" fill="#FFFFFF" d="M75.318,59.411c0,0.145,0.117,0.262,0.262,0.262
					c0.145-0.001,0.262-0.118,0.262-0.263c-0.001-0.146-0.118-0.261-0.263-0.261S75.317,59.266,75.318,59.411"/>
			</g>
		</g>
		<path clip-path="url(#SVGID_12_)" fill="#FAB085" d="M77.683,62.057c-0.049-0.119-0.131-0.215-0.23-0.282
			c0.309-0.122,0.492-0.451,0.42-0.785c-0.048-0.221-0.196-0.392-0.386-0.479c0.187-0.135,0.312-0.352,0.316-0.6
			c0.007-0.345-0.22-0.64-0.535-0.735c0.281-0.082,0.501-0.324,0.539-0.633c0.051-0.414-0.243-0.791-0.657-0.842l-1.829-0.227
			c-0.414-0.051-0.791,0.243-0.842,0.657c-0.046,0.37,0.184,0.71,0.529,0.814c0.041,0.013,0.084,0.022,0.127,0.027l1.259,0.155
			l-1.175-0.022c-0.417-0.009-0.762,0.323-0.77,0.74c-0.006,0.305,0.169,0.57,0.427,0.695c0.095,0.045,0.201,0.072,0.313,0.074
			l1.055,0.021l-0.838,0.182c-0.372,0.081-0.608,0.448-0.527,0.82c0.059,0.271,0.271,0.471,0.525,0.527
			c0.094,0.021,0.194,0.022,0.294,0l0.138-0.029l-0.256,0.105c-0.322,0.132-0.476,0.5-0.343,0.821
			c0.06,0.146,0.17,0.259,0.302,0.324c0.156,0.077,0.345,0.09,0.52,0.019l1.281-0.527C77.661,62.745,77.814,62.378,77.683,62.057"/>
		<path clip-path="url(#SVGID_12_)" fill="#FAB085" d="M27.673,60.462l-1.146-2.186l0.126-1.957c0.028-0.422-0.308-0.78-0.731-0.78
			c-0.233,0-0.432,0.172-0.465,0.401l-0.263,1.826c-0.095,0.655-0.683,1.125-1.343,1.073l-0.932-0.074l-0.81,4.431l4.917,0.221
			L27.673,60.462z"/>
		<polygon clip-path="url(#SVGID_12_)" fill="#4CADBC" points="29.312,61.313 27.673,60.462 27.025,63.418 28.259,64.404 		"/>
		<g opacity="0.26" clip-path="url(#SVGID_12_)">
			<g>
				<defs>
					<rect id="SVGID_39_" x="23.408" y="55.125" width="2.361" height="5.552"/>
				</defs>
				<clipPath id="SVGID_40_">
					<use xlink:href="#SVGID_39_"  overflow="visible"/>
				</clipPath>
				<path clip-path="url(#SVGID_40_)" d="M23.44,60.494c0.071,0.057,0.264,0.188,0.533,0.183c0.243-0.005,0.418-0.115,0.5-0.182
					l0.111-0.088l0.116,0.065c0.089,0.063,0.277,0.152,0.531,0.152h0.001c0.243,0,0.442-0.08,0.537-0.143l-0.644-1.551v-3.807H24
					v3.845l-0.593,1.519L23.44,60.494z"/>
			</g>
		</g>
		<path clip-path="url(#SVGID_12_)" fill="#E6E6E6" d="M28.08,63.883l-2.205-5.119V54.25H23.25v4.56l-2.085,5.104
			c-0.24,0.589-0.175,1.235,0.18,1.764c0.355,0.527,0.942,0.822,1.578,0.822h3.417c0.643,0,1.231-0.3,1.585-0.837
			C28.279,65.127,28.332,64.474,28.08,63.883 M22.318,65.192c-0.224-0.333-0.272-0.813-0.128-1.166
			c0.209-0.518,0.423-1.065,0.629-1.595c0.195-0.501,0.395-1.016,0.594-1.508c0.143,0.073,0.335,0.158,0.567,0.153
			c0.269-0.006,0.478-0.077,0.617-0.163c0.144,0.08,0.362,0.211,0.634,0.211h0.002c0.223,0,0.41-0.084,0.549-0.149l1.285,3.068
			c0.151,0.354,0.107,0.802-0.116,1.14c-0.207,0.315-0.527,0.566-0.875,0.566h-2.888C22.843,65.75,22.526,65.502,22.318,65.192
			 M24,55.125h1.125v3.807l0.644,1.551c-0.094,0.063-0.294,0.143-0.536,0.143h-0.002c-0.254,0-0.441-0.09-0.531-0.152l-0.116-0.065
			l-0.111,0.088c-0.082,0.066-0.256,0.177-0.5,0.182c-0.268,0.007-0.462-0.126-0.533-0.183l-0.032-0.006L24,58.97V55.125z"/>
		<path clip-path="url(#SVGID_12_)" fill="#ED1C24" d="M26.951,65.184c0.224-0.338,0.267-0.786,0.116-1.14l-1.284-3.068
			c-0.14,0.064-0.327,0.148-0.55,0.148H25.23c-0.272,0-0.489-0.13-0.634-0.21c-0.138,0.085-0.348,0.157-0.616,0.163
			c-0.233,0.004-0.425-0.08-0.568-0.153c-0.198,0.491-0.399,1.007-0.594,1.508c-0.206,0.529-0.419,1.077-0.629,1.595
			c-0.143,0.353-0.095,0.833,0.129,1.166c0.208,0.31,0.525,0.557,0.869,0.557h2.888C26.425,65.749,26.744,65.498,26.951,65.184
			 M25.874,64.311c0,0.181-0.146,0.326-0.326,0.326c-0.181,0-0.327-0.146-0.327-0.326c0-0.18,0.146-0.326,0.327-0.326
			C25.728,63.984,25.874,64.131,25.874,64.311 M25.354,61.773c0.12,0,0.218,0.098,0.218,0.219c0,0.12-0.098,0.218-0.218,0.218
			c-0.12,0-0.218-0.098-0.218-0.218C25.137,61.871,25.235,61.773,25.354,61.773 M24.702,62.489c0.179,0,0.324,0.146,0.324,0.323
			c0,0.179-0.145,0.323-0.324,0.323c-0.178,0-0.323-0.145-0.323-0.323C24.379,62.635,24.524,62.489,24.702,62.489 M23.784,62.054
			c0.136,0,0.246,0.11,0.246,0.246c0,0.137-0.11,0.247-0.246,0.247c-0.137,0-0.247-0.11-0.247-0.247
			C23.537,62.164,23.646,62.054,23.784,62.054 M23.576,63.395c0.254,0,0.46,0.206,0.46,0.461c0,0.254-0.206,0.46-0.46,0.46
			s-0.46-0.206-0.46-0.46C23.116,63.601,23.322,63.395,23.576,63.395"/>
		<path clip-path="url(#SVGID_12_)" fill="#FFFFFF" d="M23.783,62.547c0.136,0,0.247-0.11,0.247-0.247
			c0-0.136-0.111-0.246-0.247-0.246s-0.247,0.11-0.247,0.246C23.536,62.437,23.647,62.547,23.783,62.547"/>
		<path clip-path="url(#SVGID_12_)" fill="#FFFFFF" d="M24.702,63.136c0.178,0,0.323-0.146,0.323-0.323s-0.145-0.323-0.323-0.323
			c-0.179,0-0.323,0.146-0.323,0.323S24.523,63.136,24.702,63.136"/>
		<path clip-path="url(#SVGID_12_)" fill="#FFFFFF" d="M23.576,64.315c0.254,0,0.46-0.206,0.46-0.46c0-0.255-0.206-0.461-0.46-0.461
			s-0.46,0.206-0.46,0.461C23.116,64.109,23.322,64.315,23.576,64.315"/>
		<path clip-path="url(#SVGID_12_)" fill="#FFFFFF" d="M25.221,64.311c0,0.181,0.146,0.326,0.327,0.326
			c0.18,0,0.326-0.146,0.326-0.326c0-0.18-0.146-0.326-0.326-0.326C25.367,63.984,25.221,64.131,25.221,64.311"/>
		<path clip-path="url(#SVGID_12_)" fill="#FFFFFF" d="M25.354,62.21c0.121,0,0.218-0.098,0.218-0.218
			c0-0.121-0.097-0.219-0.218-0.219c-0.12,0-0.218,0.098-0.218,0.219C25.137,62.112,25.234,62.21,25.354,62.21"/>
		<path clip-path="url(#SVGID_12_)" fill="#FAB085" d="M24.588,58.405l-1.816-0.315c-0.412-0.07-0.802,0.205-0.873,0.615
			c-0.037,0.209,0.017,0.413,0.132,0.571c-0.19,0.064-0.355,0.203-0.445,0.4c-0.143,0.312-0.056,0.669,0.19,0.884
			c-0.265,0.02-0.512,0.179-0.63,0.438c-0.105,0.228-0.086,0.479,0.027,0.683c-0.076,0.026-0.148,0.066-0.212,0.123
			c-0.262,0.229-0.288,0.626-0.059,0.888l0.914,1.042c0.124,0.142,0.298,0.215,0.473,0.215c0.147,0,0.295-0.052,0.415-0.156
			c0.261-0.229,0.287-0.627,0.058-0.888l-0.488-0.558l0.918,0.422c0.103,0.047,0.209,0.068,0.315,0.068
			c0.286,0,0.56-0.163,0.686-0.439c0.144-0.313,0.056-0.671-0.191-0.886c0.266-0.02,0.513-0.177,0.632-0.437
			c0.174-0.379,0.008-0.827-0.371-1.001l-0.675-0.31l0.742,0.128c0.044,0.008,0.087,0.012,0.13,0.012
			c0.36,0,0.679-0.259,0.743-0.626C25.274,58.867,25,58.477,24.588,58.405"/>
		<path clip-path="url(#SVGID_12_)" fill="#FAB085" d="M72.306,60.462l1.146-2.186l-0.126-1.957c-0.028-0.422,0.308-0.78,0.73-0.78
			h0.307l0.455,3.551l0.611,4.438l-2.477-0.111L72.306,60.462z"/>
		<polygon clip-path="url(#SVGID_12_)" fill="#4CADBC" points="70.667,61.313 72.306,60.462 72.953,63.418 71.72,64.404 		"/>
		<path clip-path="url(#SVGID_12_)" fill="#FFFFFF" d="M70.589,61.086l-5.151,2.3c-0.345,0.154-0.747,0.105-1.046-0.128
			l-6.063-4.731l-0.011,0.015l-0.033-0.091c-2.456-0.702-7.535-1.219-8.285-1.288v-0.008c0,0,0.027,0.002,0,0.004
			c-0.027-0.002,0-0.004,0-0.004v0.008c-0.75,0.069-5.828,0.586-8.284,1.288l-0.024,0.117l-0.037-0.041l-5.769,4.5
			c-0.481,0.375-1.13,0.455-1.688,0.205l-4.808-2.146l-1.21,3.551l6.361,4.025c0.763,0.482,1.749,0.435,2.461-0.122l3.875-3.024
			l-2.071,17.859h11.139h0.113h11.139l-2.068-17.839l3.956,3.088c0.648,0.506,1.545,0.55,2.24,0.11l6.476-4.098L70.589,61.086z"/>
		<path clip-path="url(#SVGID_12_)" fill="#FFFFFF" d="M49.875,56.979c-0.25-0.032-1.809-0.136-4.399,0.689
			c-0.133,0.2-1.365,2.131-1.841,5.626l1.361,0.331l-1.628,1.307c0.307,0.577,3.257,6.435,6.507,9.771V56.979z"/>
		<path clip-path="url(#SVGID_12_)" fill="#FFFFFF" d="M56.346,63.295c-0.477-3.496-1.69-5.427-1.824-5.626
			c-2.594-0.825-4.271-0.722-4.396-0.689v17.725c3-3.338,6.188-9.196,6.496-9.772l-1.618-1.306L56.346,63.295z"/>
		<path clip-path="url(#SVGID_12_)" fill="#CCCCCC" d="M55.261,63.688l1.216-0.298l-0.009-0.057
			c-0.499-3.748-1.883-5.734-1.896-5.755l-0.017-0.016l-0.026-0.008c-2.934-0.938-4.556-0.696-4.572-0.694l-0.007,0.001
			l-0.005-0.001c-0.064-0.01-1.598-0.243-4.531,0.694l-0.02,0.008l-0.012,0.017C45.368,57.6,44,59.587,43.5,63.334l-0.007,0.057
			l1.222,0.298l-1.51,1.211l0.025,0.046c0.034,0.063,3.408,6.462,6.644,9.948v0.132l0.069-0.059L50,75.025v-0.106l0.013-0.011
			c3.24-3.482,6.676-9.898,6.71-9.963l0.024-0.046L55.261,63.688z M50.125,74.704V56.98c0.125-0.033,1.803-0.137,4.396,0.688
			c0.134,0.199,1.348,2.13,1.824,5.626l-1.343,0.331l1.617,1.306C56.313,65.508,53.125,71.366,50.125,74.704 M44.996,63.626
			l-1.361-0.331c0.476-3.495,1.708-5.426,1.841-5.626c2.591-0.825,4.149-0.722,4.399-0.688v17.724
			c-3.25-3.337-6.2-9.194-6.507-9.771L44.996,63.626z"/>
		<path clip-path="url(#SVGID_12_)" fill="#FAB085" d="M47.25,55.679v1.686c0.375,0.218,2.748,2.496,2.748,2.496l0.018-0.001
			c0.028-0.026,2.484-2.286,2.734-2.495v-0.37v-1.315c-0.5,0.239-1.506,0.622-2.783,0.616C48.726,56.288,47.75,55.916,47.25,55.679"
			/>
		
			<line clip-path="url(#SVGID_12_)" fill="none" stroke="#F48B6C" stroke-width="0" stroke-linecap="round" stroke-linejoin="round" x1="52.75" y1="57" x2="52.75" y2="55.625"/>
		<path clip-path="url(#SVGID_12_)" fill="#F48B6C" d="M47.25,55.224v0.455c0.5,0.237,1.476,0.609,2.717,0.616
			c1.277,0.006,2.283-0.377,2.783-0.616v-0.638c-1,0.24-2.11,0.369-3.213,0.369C48.766,55.41,48,55.345,47.25,55.224"/>
		<path clip-path="url(#SVGID_12_)" fill="#FAB085" d="M61.455,41.5H61.25v-3.394c0-6.459-5.229-11.731-11.688-11.731h0.004
			c-6.459,0-11.691,5.272-11.691,11.731V41.5h0.031c-1.12,0-2.031,1.011-2.031,2.131v1.829c0,1.282,1.033,2.323,2.311,2.338
			c1.064,3.745,4.636,6.679,9.129,7.426c0.73,0.121,1.481,0.188,2.253,0.188c1.102,0,2.167-0.126,3.179-0.365
			c4.057-0.96,7.223-3.671,8.21-7.171h0.271c1.29,0,2.397-1.065,2.397-2.355v-1.889C63.625,42.466,62.62,41.5,61.455,41.5"/>
		<polygon clip-path="url(#SVGID_12_)" fill="#4CADBC" points="50.027,59.86 50.027,59.86 47.31,57.364 46.576,57.553 
			50.027,73.243 53.456,57.595 52.746,57.364 50.028,59.859 		"/>
		<path clip-path="url(#SVGID_12_)" fill="#F58D6C" d="M47.942,46.388c-0.057-0.101,0.032-0.227,0.127-0.181
			c0.38,0.184,0.952,0.386,1.659,0.383c0.694-0.003,1.257-0.203,1.632-0.386c0.095-0.046,0.183,0.079,0.128,0.18
			C50.687,47.851,48.757,47.832,47.942,46.388"/>
		<g opacity="0.5" clip-path="url(#SVGID_12_)">
			<g>
				<defs>
					<rect id="SVGID_41_" x="48.742" y="53.427" width="1.944" height="0.697"/>
				</defs>
				<clipPath id="SVGID_42_">
					<use xlink:href="#SVGID_41_"  overflow="visible"/>
				</clipPath>
				<path clip-path="url(#SVGID_42_)" fill="#F58D6C" d="M48.752,53.531c-0.031-0.054,0.017-0.123,0.069-0.098
					c0.206,0.1,0.517,0.209,0.901,0.208c0.376-0.002,0.682-0.11,0.886-0.21c0.052-0.024,0.1,0.043,0.069,0.098
					C50.242,54.327,49.195,54.316,48.752,53.531"/>
			</g>
		</g>
		<path clip-path="url(#SVGID_12_)" fill="#8E3926" d="M60.409,43.322v0.009V43.322z"/>
		<path clip-path="url(#SVGID_12_)" fill="#8E3926" d="M55.165,24.83c-12.567-2.688-15.283,2.507-15.868,4.694
			c-0.233-0.519-0.42-1.118-0.409-1.107c-0.552,0.834-0.558,1.455-0.44,2.154c-1.648,0.484-5.427,2.596-1.952,11.628
			c0,0,1.919-1.193,2.234,0.757c0,0,0.378-3.631,2.014-5.456c1.636-1.825,1.51-2.371,1.573-3.755c0,0,3.164,1.032,6.19,1.503
			c0.916,0.143,1.816,0.387,2.668,0.752c0.784,0.335,1.531,0.741,2.216,1.253c-0.587-0.67-1.242-1.255-1.943-1.782
			c0.04-0.002,0.081-0.004,0.121-0.006c0.582-0.032,1.224-0.042,1.886,0.002c0.612,0.26,1.082,0.722,1.323,1.556
			c0.021-0.568-0.101-1.043-0.329-1.447c2.925,0.454,5.911,2.2,5.961,7.746c-0.002-0.142,0.003-2.078,1.974-1.513
			C62.383,41.809,68.695,27.725,55.165,24.83"/>
		<path clip-path="url(#SVGID_12_)" fill="#8E3926" d="M45.086,49.498c0.928,0.375,2.499,0.876,4.499,0.881
			c2.034,0.005,3.629-0.504,4.563-0.881c-0.573,2.129-2.203,3.516-4.511,3.516C47.697,53.014,46.03,52.173,45.086,49.498"/>
		<path clip-path="url(#SVGID_12_)" fill="#D75265" d="M47.037,52.291c0.766,0.521,1.65,0.723,2.6,0.723
			c0.99,0,1.854-0.256,2.565-0.715c-0.545-0.852-1.499-1.417-2.585-1.417C48.534,50.882,47.583,51.444,47.037,52.291"/>
		<path clip-path="url(#SVGID_12_)" fill="#FFFFFF" d="M46.439,43.583c0-0.88-0.714-1.594-1.594-1.594
			c-0.881,0-1.594,0.714-1.594,1.594c0,0.881,0.713,1.594,1.594,1.594C45.726,45.176,46.439,44.463,46.439,43.583"/>
		<path clip-path="url(#SVGID_12_)" fill="#333333" d="M45.684,43.583c0-0.463-0.375-0.839-0.839-0.839
			c-0.464,0-0.839,0.376-0.839,0.839s0.375,0.839,0.839,0.839C45.309,44.421,45.684,44.045,45.684,43.583"/>
		<path clip-path="url(#SVGID_12_)" fill="#FFFFFF" d="M45.521,43.268c0-0.2-0.162-0.362-0.362-0.362
			c-0.2,0-0.362,0.162-0.362,0.362s0.162,0.362,0.362,0.362C45.359,43.63,45.521,43.468,45.521,43.268"/>
		<path clip-path="url(#SVGID_12_)" fill="#754C24" d="M42.799,42.481c-0.048,0-0.098-0.013-0.143-0.039
			c-0.135-0.079-0.18-0.253-0.101-0.388c1.195-2.035,3.286-1.131,3.307-1.122c0.143,0.064,0.207,0.232,0.143,0.374
			c-0.063,0.143-0.23,0.207-0.373,0.144c-0.069-0.031-1.654-0.701-2.588,0.891C42.991,42.432,42.896,42.481,42.799,42.481"/>
		<path clip-path="url(#SVGID_12_)" fill="#FFFFFF" d="M53.12,43.583c0-0.88,0.714-1.594,1.595-1.594
			c0.88,0,1.593,0.714,1.593,1.594c0,0.881-0.713,1.594-1.593,1.594C53.834,45.176,53.12,44.463,53.12,43.583"/>
		<path clip-path="url(#SVGID_12_)" fill="#333333" d="M53.875,43.583c0-0.463,0.376-0.839,0.84-0.839
			c0.463,0,0.839,0.376,0.839,0.839s-0.376,0.839-0.839,0.839C54.251,44.421,53.875,44.045,53.875,43.583"/>
		<path clip-path="url(#SVGID_12_)" fill="#FFFFFF" d="M54.038,43.268c0-0.2,0.162-0.362,0.361-0.362c0.2,0,0.362,0.162,0.362,0.362
			S54.6,43.63,54.399,43.63C54.2,43.63,54.038,43.468,54.038,43.268"/>
		<path clip-path="url(#SVGID_12_)" fill="#754C24" d="M56.76,42.481c-0.097,0-0.191-0.05-0.244-0.14
			c-0.941-1.604-2.521-0.922-2.588-0.892c-0.143,0.064-0.311,0-0.374-0.143c-0.063-0.142,0-0.31,0.144-0.374
			c0.021-0.009,2.112-0.913,3.307,1.122c0.079,0.135,0.034,0.309-0.101,0.388C56.858,42.468,56.809,42.481,56.76,42.481"/>
		<polygon clip-path="url(#SVGID_12_)" fill="#EA8063" points="82.97,88.756 17.01,88.756 26.791,82.76 73.188,82.76 		"/>
		<rect x="17.01" y="88.756" clip-path="url(#SVGID_12_)" fill="#8E3926" width="65.96" height="2.832"/>
		<rect x="18.278" y="91.588" clip-path="url(#SVGID_12_)" fill="#772C20" width="63.422" height="0.639"/>
		<rect x="18.624" y="92.227" clip-path="url(#SVGID_12_)" fill="#702720" width="62.729" height="7.773"/>
		<path clip-path="url(#SVGID_12_)" fill="#F58D6C" d="M37.605,42.906h0.402v3.288h-0.402c-0.377,0-0.684-0.306-0.684-0.684v-1.92
			C36.921,43.212,37.228,42.906,37.605,42.906"/>
		<path clip-path="url(#SVGID_12_)" fill="#F58D6C" d="M61.912,43.163h-0.401v3.031h0.401c0.378,0,0.685-0.306,0.685-0.684v-1.663
			C62.597,43.469,62.29,43.163,61.912,43.163"/>
		<g opacity="0.16" clip-path="url(#SVGID_12_)">
			<g>
				<defs>
					<rect id="SVGID_43_" x="41.67" y="45.974" width="3.356" height="1.258"/>
				</defs>
				<clipPath id="SVGID_44_">
					<use xlink:href="#SVGID_43_"  overflow="visible"/>
				</clipPath>
				<path clip-path="url(#SVGID_44_)" fill="#D75265" d="M45.027,46.604c0-0.348-0.751-0.629-1.678-0.629
					c-0.927,0-1.678,0.281-1.678,0.629c0,0.347,0.751,0.629,1.678,0.629C44.276,47.232,45.027,46.951,45.027,46.604"/>
			</g>
		</g>
		<g opacity="0.16" clip-path="url(#SVGID_12_)">
			<g>
				<defs>
					<rect id="SVGID_45_" x="54.752" y="45.974" width="3.356" height="1.258"/>
				</defs>
				<clipPath id="SVGID_46_">
					<use xlink:href="#SVGID_45_"  overflow="visible"/>
				</clipPath>
				<path clip-path="url(#SVGID_46_)" fill="#D75265" d="M58.108,46.604c0-0.348-0.751-0.629-1.679-0.629
					c-0.927,0-1.678,0.281-1.678,0.629c0,0.347,0.751,0.629,1.678,0.629C57.357,47.232,58.108,46.951,58.108,46.604"/>
			</g>
		</g>
		<path clip-path="url(#SVGID_12_)" fill="#42210B" d="M63.405,40.771c-0.066-0.341-0.397-0.563-0.738-0.497l-1.724,0.338
			c-0.905-1.653-2.662-2.777-4.677-2.777c-2.253,0-4.182,1.406-4.96,3.386c-0.408-0.166-0.927-0.303-1.533-0.303h-0.036
			c-0.522,0.005-1.047,0.116-1.532,0.318c-0.773-1.988-2.707-3.401-4.965-3.401c-2.014,0-3.77,1.123-4.676,2.775l-1.711-0.336
			c-0.341-0.066-0.672,0.156-0.739,0.497c-0.067,0.341,0.155,0.671,0.497,0.738l1.478,0.29c-0.115,0.436-0.177,0.892-0.177,1.364
			c0,2.938,2.39,5.328,5.328,5.328s5.328-2.39,5.328-5.328c0-0.234-0.017-0.49-0.046-0.715c0.296-0.148,0.716-0.323,1.226-0.323
			h0.026c0.499,0,0.913,0.161,1.213,0.304c-0.031,0.232-0.049,0.481-0.049,0.721c0,2.937,2.39,5.334,5.328,5.334
			s5.328-2.387,5.328-5.324c0-0.47-0.062-0.925-0.177-1.36l1.491-0.291C63.25,41.442,63.472,41.112,63.405,40.771 M43.241,47.232
			c-2.244,0-4.07-1.825-4.07-4.069c0-2.244,1.826-4.07,4.07-4.07c2.244,0,4.069,1.826,4.069,4.07
			C47.31,45.407,45.484,47.232,43.241,47.232 M56.267,47.232c-2.244,0-4.069-1.825-4.069-4.069c0-2.244,1.825-4.07,4.069-4.07
			s4.069,1.826,4.069,4.07C60.336,45.407,58.511,47.232,56.267,47.232"/>
		<path clip-path="url(#SVGID_12_)" fill="#D8EA3E" d="M37.495,86.06H34.61c-1.315,0-2.38-0.92-2.38-2.056h7.645
			C39.875,85.14,38.81,86.06,37.495,86.06"/>
		<path clip-path="url(#SVGID_12_)" fill="#B0B116" d="M40.055,84.004h-8.131c-0.109,0-0.198-0.088-0.198-0.198v-0.232
			c0-0.109,0.089-0.198,0.198-0.198h8.131c0.109,0,0.198,0.089,0.198,0.198v0.232C40.253,83.916,40.164,84.004,40.055,84.004"/>
		<path clip-path="url(#SVGID_12_)" fill="#FFFFFF" d="M49.256,85.977h-3.775c-0.58,0-1.049-0.47-1.049-1.049v-8.779h5.874v8.779
			C50.306,85.507,49.835,85.977,49.256,85.977"/>
		<path clip-path="url(#SVGID_12_)" fill="#CCCCCC" d="M49.865,79.799v5.129c0,0.335-0.273,0.607-0.609,0.607h-3.775
			c-0.336,0-0.609-0.272-0.609-0.607v-5.129H49.865 M50.306,79.6h-5.874v5.328c0,0.579,0.469,1.049,1.049,1.049h3.775
			c0.579,0,1.049-0.47,1.049-1.049v-5.569V79.6z"/>
		<rect x="49.875" y="72.5" clip-path="url(#SVGID_12_)" fill="#CCCCCC" width="0.25" height="10.25"/>
		<path clip-path="url(#SVGID_12_)" fill="#CCCCCC" d="M50.443,79.6h-6.109c-0.083,0-0.15-0.067-0.15-0.15v-0.177
			c0-0.083,0.067-0.15,0.15-0.15h6.109c0.083,0,0.15,0.067,0.15,0.15v0.177C50.594,79.532,50.526,79.6,50.443,79.6"/>
		<rect x="44.432" y="79.6" clip-path="url(#SVGID_12_)" fill="#B3B3B3" width="5.873" height="0.207"/>
		<g opacity="0.75" clip-path="url(#SVGID_12_)">
			<g>
				<defs>
					<rect id="SVGID_47_" x="44.432" y="81.319" width="5.873" height="4.657"/>
				</defs>
				<clipPath id="SVGID_48_">
					<use xlink:href="#SVGID_47_"  overflow="visible"/>
				</clipPath>
				<path clip-path="url(#SVGID_48_)" fill="#7AC943" d="M49.256,85.977h-3.775c-0.58,0-1.049-0.47-1.049-1.049v-3.608h5.874v3.608
					C50.306,85.507,49.835,85.977,49.256,85.977"/>
			</g>
		</g>
		<g opacity="0.56" clip-path="url(#SVGID_12_)">
			<g>
				<defs>
					<rect id="SVGID_49_" x="45" y="79.893" width="0.625" height="4.594"/>
				</defs>
				<clipPath id="SVGID_50_">
					<use xlink:href="#SVGID_49_"  overflow="visible"/>
				</clipPath>
				<path clip-path="url(#SVGID_50_)" fill="#FFFFFF" d="M45.313,84.486c-0.174,0-0.312-0.141-0.312-0.314v-3.964
					c0-0.174,0.138-0.315,0.312-0.315s0.312,0.142,0.312,0.315v3.964C45.625,84.346,45.486,84.486,45.313,84.486"/>
			</g>
		</g>
		<g opacity="0.47" clip-path="url(#SVGID_12_)">
			<g>
				<defs>
					<rect id="SVGID_51_" x="46.714" y="82.438" width="2.758" height="2.147"/>
				</defs>
				<clipPath id="SVGID_52_">
					<use xlink:href="#SVGID_51_"  overflow="visible"/>
				</clipPath>
				<path clip-path="url(#SVGID_52_)" fill="#FFFFFF" d="M48.624,82.762c0-0.179-0.145-0.323-0.323-0.323
					c-0.178,0-0.323,0.145-0.323,0.323s0.145,0.323,0.323,0.323C48.479,83.085,48.624,82.94,48.624,82.762"/>
				<path clip-path="url(#SVGID_52_)" fill="#FFFFFF" d="M47.634,83.804c0-0.254-0.206-0.46-0.46-0.46s-0.46,0.206-0.46,0.46
					s0.206,0.46,0.46,0.46S47.634,84.058,47.634,83.804"/>
				<path clip-path="url(#SVGID_52_)" fill="#FFFFFF" d="M49.472,84.259c0-0.18-0.146-0.326-0.326-0.326
					c-0.18,0-0.326,0.146-0.326,0.326c0,0.181,0.146,0.327,0.326,0.327C49.326,84.586,49.472,84.439,49.472,84.259"/>
			</g>
		</g>
		<g opacity="0.4" clip-path="url(#SVGID_12_)">
			<g>
				<defs>
					<rect id="SVGID_53_" x="66.766" y="75.362" width="2.098" height="9.502"/>
				</defs>
				<clipPath id="SVGID_54_">
					<use xlink:href="#SVGID_53_"  overflow="visible"/>
				</clipPath>
				<path clip-path="url(#SVGID_54_)" fill="#FFFFFF" d="M67.814,84.864L67.814,84.864c-0.579,0-1.049-0.47-1.049-1.049v-8.453
					h2.098v8.453C68.863,84.395,68.394,84.864,67.814,84.864"/>
			</g>
		</g>
		<g opacity="0.75" clip-path="url(#SVGID_12_)">
			<g>
				<defs>
					<rect id="SVGID_55_" x="66.766" y="77.108" width="2.098" height="7.756"/>
				</defs>
				<clipPath id="SVGID_56_">
					<use xlink:href="#SVGID_55_"  overflow="visible"/>
				</clipPath>
				<path clip-path="url(#SVGID_56_)" fill="#FF931E" d="M67.814,84.864L67.814,84.864c-0.579,0-1.049-0.47-1.049-1.049v-6.707
					h2.098v6.707C68.863,84.395,68.394,84.864,67.814,84.864"/>
			</g>
		</g>
		<path clip-path="url(#SVGID_12_)" fill="#CCCCCC" d="M68.423,75.478v8.338c0,0.335-0.272,0.608-0.608,0.608
			c-0.335,0-0.608-0.273-0.608-0.608v-8.338H68.423 M68.863,75.362h-2.098v8.453c0,0.579,0.47,1.049,1.049,1.049
			s1.049-0.47,1.049-1.049V75.362z"/>
		<path clip-path="url(#SVGID_12_)" fill="#CCCCCC" d="M69.002,75.362h-2.369c-0.083,0-0.15-0.067-0.15-0.15v-0.177
			c0-0.083,0.067-0.15,0.15-0.15h2.369c0.083,0,0.149,0.067,0.149,0.15v0.177C69.151,75.295,69.085,75.362,69.002,75.362"/>
		<rect x="66.765" y="75.362" clip-path="url(#SVGID_12_)" fill="#B3B3B3" width="2.099" height="0.142"/>
		<g opacity="0.4" clip-path="url(#SVGID_12_)">
			<g>
				<defs>
					<rect id="SVGID_57_" x="66.875" y="77.376" width="0.75" height="5.286"/>
				</defs>
				<clipPath id="SVGID_58_">
					<use xlink:href="#SVGID_57_"  overflow="visible"/>
				</clipPath>
				<path clip-path="url(#SVGID_58_)" fill="#FFFFFF" d="M67.25,82.662c-0.174,0-0.375-0.142-0.375-0.315V77.69
					c0-0.175,0.201-0.314,0.375-0.314s0.375,0.14,0.375,0.314v4.656C67.625,82.521,67.424,82.662,67.25,82.662"/>
			</g>
		</g>
		<g opacity="0.3" clip-path="url(#SVGID_12_)">
			<g>
				<defs>
					<rect id="SVGID_59_" x="67.76" y="82.552" width="0.542" height="0.542"/>
				</defs>
				<clipPath id="SVGID_60_">
					<use xlink:href="#SVGID_59_"  overflow="visible"/>
				</clipPath>
				<path clip-path="url(#SVGID_60_)" fill="#FFFFFF" d="M68.302,82.822c0-0.149-0.122-0.271-0.271-0.271
					c-0.15,0-0.271,0.121-0.271,0.271c0,0.15,0.121,0.271,0.271,0.271C68.18,83.094,68.302,82.973,68.302,82.822"/>
			</g>
		</g>
		<g opacity="0.3" clip-path="url(#SVGID_12_)">
			<g>
				<defs>
					<rect id="SVGID_61_" x="68.049" y="81.307" width="0.344" height="0.343"/>
				</defs>
				<clipPath id="SVGID_62_">
					<use xlink:href="#SVGID_61_"  overflow="visible"/>
				</clipPath>
				<path clip-path="url(#SVGID_62_)" fill="#FFFFFF" d="M68.392,81.478c0-0.095-0.076-0.171-0.171-0.171s-0.172,0.076-0.172,0.171
					c0,0.096,0.077,0.172,0.172,0.172S68.392,81.573,68.392,81.478"/>
			</g>
		</g>
		<g opacity="0.3" clip-path="url(#SVGID_12_)">
			<g>
				<defs>
					<rect id="SVGID_63_" x="68.049" y="77.697" width="0.344" height="0.343"/>
				</defs>
				<clipPath id="SVGID_64_">
					<use xlink:href="#SVGID_63_"  overflow="visible"/>
				</clipPath>
				<path clip-path="url(#SVGID_64_)" fill="#FFFFFF" d="M68.392,77.868c0-0.095-0.076-0.171-0.171-0.171s-0.172,0.076-0.172,0.171
					s0.077,0.172,0.172,0.172S68.392,77.963,68.392,77.868"/>
			</g>
		</g>
		<g opacity="0.3" clip-path="url(#SVGID_12_)">
			<g>
				<defs>
					<rect id="SVGID_65_" x="67.472" y="83.184" width="0.343" height="0.343"/>
				</defs>
				<clipPath id="SVGID_66_">
					<use xlink:href="#SVGID_65_"  overflow="visible"/>
				</clipPath>
				<path clip-path="url(#SVGID_66_)" fill="#FFFFFF" d="M67.814,83.354c0-0.095-0.077-0.171-0.172-0.171s-0.172,0.076-0.172,0.171
					c0,0.096,0.077,0.172,0.172,0.172S67.814,83.45,67.814,83.354"/>
			</g>
		</g>
		<g opacity="0.3" clip-path="url(#SVGID_12_)">
			<g>
				<defs>
					<rect id="SVGID_67_" x="67.615" y="80.115" width="0.523" height="0.523"/>
				</defs>
				<clipPath id="SVGID_68_">
					<use xlink:href="#SVGID_67_"  overflow="visible"/>
				</clipPath>
				<path clip-path="url(#SVGID_68_)" fill="#FFFFFF" d="M68.139,80.377c0-0.144-0.117-0.261-0.262-0.261s-0.262,0.117-0.262,0.261
					c0,0.146,0.117,0.262,0.262,0.262S68.139,80.523,68.139,80.377"/>
			</g>
		</g>
		<g opacity="0.3" clip-path="url(#SVGID_12_)">
			<g>
				<defs>
					<rect id="SVGID_69_" x="67.615" y="76.795" width="0.523" height="0.523"/>
				</defs>
				<clipPath id="SVGID_70_">
					<use xlink:href="#SVGID_69_"  overflow="visible"/>
				</clipPath>
				<path clip-path="url(#SVGID_70_)" fill="#FFFFFF" d="M68.139,77.057c0-0.146-0.117-0.262-0.262-0.262s-0.262,0.116-0.262,0.262
					c0,0.145,0.117,0.262,0.262,0.262S68.139,77.201,68.139,77.057"/>
			</g>
		</g>
		<g opacity="0.4" clip-path="url(#SVGID_12_)">
			<g>
				<defs>
					<rect id="SVGID_71_" x="63.301" y="75.362" width="2.098" height="9.502"/>
				</defs>
				<clipPath id="SVGID_72_">
					<use xlink:href="#SVGID_71_"  overflow="visible"/>
				</clipPath>
				<path clip-path="url(#SVGID_72_)" fill="#FFFFFF" d="M64.35,84.864L64.35,84.864c-0.579,0-1.049-0.47-1.049-1.049v-8.453h2.098
					v8.453C65.398,84.395,64.929,84.864,64.35,84.864"/>
			</g>
		</g>
		<g opacity="0.75" clip-path="url(#SVGID_12_)">
			<g>
				<defs>
					<rect id="SVGID_73_" x="63.301" y="80.254" width="2.098" height="4.61"/>
				</defs>
				<clipPath id="SVGID_74_">
					<use xlink:href="#SVGID_73_"  overflow="visible"/>
				</clipPath>
				<path clip-path="url(#SVGID_74_)" fill="#FF1D25" d="M64.35,84.864L64.35,84.864c-0.579,0-1.049-0.47-1.049-1.049v-3.562h2.098
					v3.562C65.398,84.395,64.929,84.864,64.35,84.864"/>
			</g>
		</g>
		<path clip-path="url(#SVGID_12_)" fill="#CCCCCC" d="M64.958,75.478v8.338c0,0.335-0.273,0.608-0.608,0.608
			c-0.336,0-0.608-0.273-0.608-0.608v-8.338H64.958 M65.398,75.362h-2.098v8.453c0,0.579,0.47,1.049,1.049,1.049
			s1.049-0.47,1.049-1.049V75.362z"/>
		<path clip-path="url(#SVGID_12_)" fill="#CCCCCC" d="M65.536,75.362h-2.368c-0.083,0-0.15-0.067-0.15-0.15v-0.177
			c0-0.083,0.067-0.15,0.15-0.15h2.368c0.083,0,0.15,0.067,0.15,0.15v0.177C65.687,75.295,65.619,75.362,65.536,75.362"/>
		<rect x="63.3" y="75.362" clip-path="url(#SVGID_12_)" fill="#B3B3B3" width="2.099" height="0.142"/>
		<g opacity="0.4" clip-path="url(#SVGID_12_)">
			<g>
				<defs>
					<rect id="SVGID_75_" x="63.375" y="77.376" width="0.75" height="5.286"/>
				</defs>
				<clipPath id="SVGID_76_">
					<use xlink:href="#SVGID_75_"  overflow="visible"/>
				</clipPath>
				<path clip-path="url(#SVGID_76_)" fill="#FFFFFF" d="M63.75,82.662c-0.174,0-0.375-0.142-0.375-0.315V77.69
					c0-0.175,0.201-0.314,0.375-0.314s0.375,0.14,0.375,0.314v4.656C64.125,82.521,63.924,82.662,63.75,82.662"/>
			</g>
		</g>
		<g opacity="0.3" clip-path="url(#SVGID_12_)">
			<g>
				<defs>
					<rect id="SVGID_77_" x="64.295" y="83.563" width="0.541" height="0.542"/>
				</defs>
				<clipPath id="SVGID_78_">
					<use xlink:href="#SVGID_77_"  overflow="visible"/>
				</clipPath>
				<path clip-path="url(#SVGID_78_)" fill="#FFFFFF" d="M64.836,83.833c0-0.149-0.121-0.271-0.271-0.271
					c-0.148,0-0.27,0.122-0.27,0.271c0,0.15,0.121,0.271,0.27,0.271C64.715,84.104,64.836,83.983,64.836,83.833"/>
			</g>
		</g>
		<g opacity="0.3" clip-path="url(#SVGID_12_)">
			<g>
				<defs>
					<rect id="SVGID_79_" x="64.439" y="82.028" width="0.343" height="0.344"/>
				</defs>
				<clipPath id="SVGID_80_">
					<use xlink:href="#SVGID_79_"  overflow="visible"/>
				</clipPath>
				<path clip-path="url(#SVGID_80_)" fill="#FFFFFF" d="M64.782,82.2c0-0.095-0.076-0.172-0.171-0.172
					c-0.096,0-0.172,0.077-0.172,0.172s0.076,0.172,0.172,0.172C64.706,82.372,64.782,82.295,64.782,82.2"/>
			</g>
		</g>
		<g opacity="0.3" clip-path="url(#SVGID_12_)">
			<g>
				<defs>
					<rect id="SVGID_81_" x="63.861" y="82.75" width="0.344" height="0.344"/>
				</defs>
				<clipPath id="SVGID_82_">
					<use xlink:href="#SVGID_81_"  overflow="visible"/>
				</clipPath>
				<path clip-path="url(#SVGID_82_)" fill="#FFFFFF" d="M64.205,82.922c0-0.095-0.077-0.172-0.172-0.172s-0.172,0.077-0.172,0.172
					s0.077,0.172,0.172,0.172S64.205,83.017,64.205,82.922"/>
			</g>
		</g>
		<g opacity="0.3" clip-path="url(#SVGID_12_)">
			<g>
				<defs>
					<rect id="SVGID_83_" x="64.295" y="80.549" width="0.523" height="0.523"/>
				</defs>
				<clipPath id="SVGID_84_">
					<use xlink:href="#SVGID_83_"  overflow="visible"/>
				</clipPath>
				<path clip-path="url(#SVGID_84_)" fill="#FFFFFF" d="M64.818,80.811c0-0.146-0.117-0.262-0.262-0.262s-0.262,0.116-0.262,0.262
					c0,0.145,0.117,0.262,0.262,0.262S64.818,80.955,64.818,80.811"/>
			</g>
		</g>
		<g opacity="0.4" clip-path="url(#SVGID_12_)">
			<g>
				<defs>
					<rect id="SVGID_85_" x="59.836" y="75.362" width="2.098" height="9.502"/>
				</defs>
				<clipPath id="SVGID_86_">
					<use xlink:href="#SVGID_85_"  overflow="visible"/>
				</clipPath>
				<path clip-path="url(#SVGID_86_)" fill="#FFFFFF" d="M60.885,84.864L60.885,84.864c-0.58,0-1.049-0.47-1.049-1.049v-8.453h2.098
					v8.453C61.934,84.395,61.464,84.864,60.885,84.864"/>
			</g>
		</g>
		<g opacity="0.75" clip-path="url(#SVGID_12_)">
			<g>
				<defs>
					<rect id="SVGID_87_" x="59.836" y="79.039" width="2.098" height="5.825"/>
				</defs>
				<clipPath id="SVGID_88_">
					<use xlink:href="#SVGID_87_"  overflow="visible"/>
				</clipPath>
				<path clip-path="url(#SVGID_88_)" fill="#3FA9F5" d="M60.885,84.864L60.885,84.864c-0.58,0-1.049-0.47-1.049-1.049v-4.776h2.098
					v4.776C61.934,84.395,61.464,84.864,60.885,84.864"/>
			</g>
		</g>
		<path clip-path="url(#SVGID_12_)" fill="#CCCCCC" d="M61.493,75.478v8.338c0,0.335-0.273,0.608-0.608,0.608
			c-0.336,0-0.608-0.273-0.608-0.608v-8.338H61.493 M61.934,75.362h-2.098v8.453c0,0.579,0.469,1.049,1.049,1.049
			c0.579,0,1.049-0.47,1.049-1.049V75.362z"/>
		<path clip-path="url(#SVGID_12_)" fill="#CCCCCC" d="M62.071,75.362h-2.368c-0.083,0-0.15-0.067-0.15-0.15v-0.177
			c0-0.083,0.067-0.15,0.15-0.15h2.368c0.083,0,0.15,0.067,0.15,0.15v0.177C62.222,75.295,62.154,75.362,62.071,75.362"/>
		<rect x="59.836" y="75.362" clip-path="url(#SVGID_12_)" fill="#B3B3B3" width="2.098" height="0.142"/>
		<g opacity="0.4" clip-path="url(#SVGID_12_)">
			<g>
				<defs>
					<rect id="SVGID_89_" x="60" y="77.376" width="0.625" height="5.286"/>
				</defs>
				<clipPath id="SVGID_90_">
					<use xlink:href="#SVGID_89_"  overflow="visible"/>
				</clipPath>
				<path clip-path="url(#SVGID_90_)" fill="#FFFFFF" d="M60.313,82.662c-0.174,0-0.312-0.142-0.312-0.315V77.69
					c0-0.175,0.138-0.314,0.312-0.314s0.312,0.14,0.312,0.314v4.656C60.624,82.521,60.486,82.662,60.313,82.662"/>
			</g>
		</g>
		<g opacity="0.3" clip-path="url(#SVGID_12_)">
			<g>
				<defs>
					<rect id="SVGID_91_" x="60.396" y="82.696" width="0.542" height="0.542"/>
				</defs>
				<clipPath id="SVGID_92_">
					<use xlink:href="#SVGID_91_"  overflow="visible"/>
				</clipPath>
				<path clip-path="url(#SVGID_92_)" fill="#FFFFFF" d="M60.938,82.967c0-0.149-0.121-0.271-0.271-0.271
					c-0.15,0-0.271,0.122-0.271,0.271c0,0.15,0.121,0.271,0.271,0.271C60.817,83.238,60.938,83.117,60.938,82.967"/>
			</g>
		</g>
		<g opacity="0.3" clip-path="url(#SVGID_12_)">
			<g>
				<defs>
					<rect id="SVGID_93_" x="60.83" y="80.44" width="0.343" height="0.343"/>
				</defs>
				<clipPath id="SVGID_94_">
					<use xlink:href="#SVGID_93_"  overflow="visible"/>
				</clipPath>
				<path clip-path="url(#SVGID_94_)" fill="#FFFFFF" d="M61.173,80.611c0-0.095-0.076-0.171-0.171-0.171
					c-0.096,0-0.172,0.076-0.172,0.171s0.076,0.172,0.172,0.172C61.097,80.783,61.173,80.706,61.173,80.611"/>
			</g>
		</g>
		<g opacity="0.3" clip-path="url(#SVGID_12_)">
			<g>
				<defs>
					<rect id="SVGID_95_" x="60.975" y="83.472" width="0.343" height="0.344"/>
				</defs>
				<clipPath id="SVGID_96_">
					<use xlink:href="#SVGID_95_"  overflow="visible"/>
				</clipPath>
				<path clip-path="url(#SVGID_96_)" fill="#FFFFFF" d="M61.317,83.644c0-0.095-0.076-0.172-0.171-0.172
					c-0.096,0-0.172,0.077-0.172,0.172s0.076,0.172,0.172,0.172C61.241,83.815,61.317,83.738,61.317,83.644"/>
			</g>
		</g>
		<g opacity="0.3" clip-path="url(#SVGID_12_)">
			<g>
				<defs>
					<rect id="SVGID_97_" x="60.83" y="79.249" width="0.523" height="0.523"/>
				</defs>
				<clipPath id="SVGID_98_">
					<use xlink:href="#SVGID_97_"  overflow="visible"/>
				</clipPath>
				<path clip-path="url(#SVGID_98_)" fill="#FFFFFF" d="M61.354,79.511c0-0.146-0.117-0.261-0.262-0.261s-0.262,0.115-0.262,0.261
					c0,0.145,0.117,0.262,0.262,0.262S61.354,79.655,61.354,79.511"/>
			</g>
		</g>
		<g opacity="0.4" clip-path="url(#SVGID_12_)">
			<g>
				<defs>
					<rect id="SVGID_99_" x="56.37" y="75.362" width="2.099" height="9.502"/>
				</defs>
				<clipPath id="SVGID_100_">
					<use xlink:href="#SVGID_99_"  overflow="visible"/>
				</clipPath>
				<path clip-path="url(#SVGID_100_)" fill="#FFFFFF" d="M57.42,84.864L57.42,84.864c-0.58,0-1.05-0.47-1.05-1.049v-8.453h2.098
					v8.453C58.468,84.395,57.999,84.864,57.42,84.864"/>
			</g>
		</g>
		<g opacity="0.75" clip-path="url(#SVGID_12_)">
			<g>
				<defs>
					<rect id="SVGID_101_" x="56.37" y="77.108" width="2.099" height="7.756"/>
				</defs>
				<clipPath id="SVGID_102_">
					<use xlink:href="#SVGID_101_"  overflow="visible"/>
				</clipPath>
				<path clip-path="url(#SVGID_102_)" fill="#7AC943" d="M57.42,84.864L57.42,84.864c-0.58,0-1.05-0.47-1.05-1.049v-6.707h2.098
					v6.707C58.468,84.395,57.999,84.864,57.42,84.864"/>
			</g>
		</g>
		<path clip-path="url(#SVGID_12_)" fill="#CCCCCC" d="M58.027,75.478v8.338c0,0.335-0.272,0.608-0.607,0.608
			c-0.336,0-0.608-0.273-0.608-0.608v-8.338H58.027 M58.468,75.362H56.37v8.453c0,0.579,0.47,1.049,1.05,1.049
			c0.579,0,1.048-0.47,1.048-1.049V75.362z"/>
		<path clip-path="url(#SVGID_12_)" fill="#CCCCCC" d="M58.606,75.362h-2.369c-0.083,0-0.151-0.067-0.151-0.15v-0.177
			c0-0.083,0.068-0.15,0.151-0.15h2.369c0.083,0,0.15,0.067,0.15,0.15v0.177C58.757,75.295,58.689,75.362,58.606,75.362"/>
		<rect x="56.37" y="75.362" clip-path="url(#SVGID_12_)" fill="#B3B3B3" width="2.098" height="0.142"/>
		<g opacity="0.4" clip-path="url(#SVGID_12_)">
			<g>
				<defs>
					<rect id="SVGID_103_" x="56.5" y="77.376" width="0.75" height="5.286"/>
				</defs>
				<clipPath id="SVGID_104_">
					<use xlink:href="#SVGID_103_"  overflow="visible"/>
				</clipPath>
				<path clip-path="url(#SVGID_104_)" fill="#FFFFFF" d="M56.875,82.662c-0.174,0-0.375-0.142-0.375-0.315V77.69
					c0-0.175,0.201-0.314,0.375-0.314s0.375,0.14,0.375,0.314v4.656C57.25,82.521,57.049,82.662,56.875,82.662"/>
			</g>
		</g>
		<g opacity="0.3" clip-path="url(#SVGID_12_)">
			<g>
				<defs>
					<rect id="SVGID_105_" x="57.51" y="81.83" width="0.541" height="0.542"/>
				</defs>
				<clipPath id="SVGID_106_">
					<use xlink:href="#SVGID_105_"  overflow="visible"/>
				</clipPath>
				<path clip-path="url(#SVGID_106_)" fill="#FFFFFF" d="M58.051,82.101c0-0.149-0.121-0.271-0.271-0.271s-0.271,0.121-0.271,0.271
					s0.122,0.271,0.271,0.271S58.051,82.25,58.051,82.101"/>
			</g>
		</g>
		<g opacity="0.3" clip-path="url(#SVGID_12_)">
			<g>
				<defs>
					<rect id="SVGID_107_" x="57.221" y="80.151" width="0.343" height="0.344"/>
				</defs>
				<clipPath id="SVGID_108_">
					<use xlink:href="#SVGID_107_"  overflow="visible"/>
				</clipPath>
				<path clip-path="url(#SVGID_108_)" fill="#FFFFFF" d="M57.563,80.323c0-0.095-0.076-0.172-0.172-0.172
					c-0.095,0-0.171,0.077-0.171,0.172s0.076,0.172,0.171,0.172C57.487,80.495,57.563,80.418,57.563,80.323"/>
			</g>
		</g>
		<g opacity="0.3" clip-path="url(#SVGID_12_)">
			<g>
				<defs>
					<rect id="SVGID_109_" x="57.51" y="77.119" width="0.343" height="0.344"/>
				</defs>
				<clipPath id="SVGID_110_">
					<use xlink:href="#SVGID_109_"  overflow="visible"/>
				</clipPath>
				<path clip-path="url(#SVGID_110_)" fill="#FFFFFF" d="M57.853,77.291c0-0.095-0.077-0.172-0.172-0.172s-0.172,0.077-0.172,0.172
					s0.077,0.172,0.172,0.172S57.853,77.386,57.853,77.291"/>
			</g>
		</g>
		<g opacity="0.3" clip-path="url(#SVGID_12_)">
			<g>
				<defs>
					<rect id="SVGID_111_" x="57.076" y="82.75" width="0.343" height="0.344"/>
				</defs>
				<clipPath id="SVGID_112_">
					<use xlink:href="#SVGID_111_"  overflow="visible"/>
				</clipPath>
				<path clip-path="url(#SVGID_112_)" fill="#FFFFFF" d="M57.42,82.922c0-0.095-0.077-0.172-0.172-0.172s-0.172,0.077-0.172,0.172
					s0.077,0.172,0.172,0.172S57.42,83.017,57.42,82.922"/>
			</g>
		</g>
		<g opacity="0.3" clip-path="url(#SVGID_12_)">
			<g>
				<defs>
					<rect id="SVGID_113_" x="57.365" y="78.095" width="0.523" height="0.523"/>
				</defs>
				<clipPath id="SVGID_114_">
					<use xlink:href="#SVGID_113_"  overflow="visible"/>
				</clipPath>
				<path clip-path="url(#SVGID_114_)" fill="#FFFFFF" d="M57.889,78.356c0-0.146-0.117-0.262-0.262-0.262s-0.262,0.116-0.262,0.262
					c0,0.145,0.117,0.262,0.262,0.262S57.889,78.501,57.889,78.356"/>
			</g>
		</g>
		<path clip-path="url(#SVGID_12_)" fill="#9D532E" d="M70.9,85.25c0.021-0.125-0.025-0.184-0.025-0.276v-8.387
			c0-0.612-0.438-1.087-1.05-1.087H55.352c-0.611,0-1.102,0.475-1.102,1.087v8.387c0,0.093,0.005,0.151,0.026,0.276H53.75v1H71.5v-1
			H70.9z M54.875,84.974v-8.387c0-0.265,0.212-0.462,0.477-0.462h14.474c0.265,0,0.425,0.197,0.425,0.462v8.387
			c0,0.1,0.024,0.151-0.027,0.276H54.954C54.902,85.125,54.875,85.073,54.875,84.974"/>
		<polygon clip-path="url(#SVGID_12_)" fill="#FF0000" points="50.027,59.86 48.716,61.245 49.372,61.874 48.535,66.459 
			50.027,73.243 51.505,66.552 50.603,61.874 51.148,61.287 		"/>
	</g>
</g>
</svg>
